<?xml version="1.0" encoding="UTF-8" standalone="no"?><!DOCTYPE svg PUBLIC "-//W3C//DTD SVG 1.1//EN" "http://www.w3.org/Graphics/SVG/1.1/DTD/svg11.dtd"><svg width="100%" height="100%" viewBox="0 0 303 392" version="1.1" xmlns="http://www.w3.org/2000/svg" xmlns:xlink="http://www.w3.org/1999/xlink" xml:space="preserve" style="fill-rule:evenodd;clip-rule:evenodd;stroke-linecap:round;stroke-linejoin:round;stroke-miterlimit:1.5;"><g><path d="M51.567,99.445c26.529,-20.195 109.596,-48.65 148.464,-23.127c34.338,22.548 61.409,106.853 72.771,131.776c2.537,5.565 -3.358,11.774 -4.598,17.763c-2.799,13.515 -4.768,42.31 -12.197,63.323c-12.261,34.683 -58.237,80.769 -81.7,91.779c-13.694,6.426 -28.331,13.552 -45.704,8.594c-15.883,-4.533 -36.843,-23.396 -48.878,-38.179c-8.009,-9.837 -14.566,-21.374 -17.786,-33.643c-5.494,-20.935 -17.821,-61.147 -23.739,-72.585c-10.924,-21.115 -14.019,-74.793 -11.791,-99.077c1.613,-17.586 11.106,-35.928 25.158,-46.624Z" style="fill:#f4ca9d;"/><path d="M113.437,209.23c-2.291,-2.867 -9.173,-10.934 -15.248,-12.559c-6.075,-1.625 -16.627,1.554 -21.203,2.811c-2.521,0.692 -8.626,3.624 -6.257,4.728c4.677,2.178 27.45,6.733 34.318,8.343c2.275,0.534 5.487,1.873 6.885,1.319c1.399,-0.554 2.52,-3.371 1.505,-4.642Z" style="fill:#826f55;"/><path d="M67.673,220.838c2.523,0.931 15.534,0.931 20.727,0c3.88,-0.695 10.109,-3.804 10.427,-5.581c0.317,-1.776 -5.216,-5.079 -8.523,-5.079c-4.26,0 -13.268,3.303 -17.04,5.079c-2.382,1.123 -8.062,4.67 -5.591,5.581Z" style="fill:#00132d;stroke:#000;stroke-width:0.5px;"/><path d="M139.833,198.661c2.541,-3.658 8.989,-10.513 15.248,-12.558c6.404,-2.093 18.575,-0.303 23.177,0c1.595,0.105 5.85,1.071 4.437,1.818c-5.006,2.647 -27.328,10.708 -34.472,14.064c-3.124,1.467 -6.992,6.623 -8.39,6.069c-1.398,-0.554 -1.786,-6.821 0,-9.393Z" style="fill:#826f55;"/><path d="M165.865,206.747c2.523,0.93 14.8,0.93 20.727,0c5.219,-0.819 14.003,-3.81 14.833,-5.581c0.83,-1.772 -6.164,-5.048 -9.855,-5.048c-4.995,0 -15.83,3.276 -20.114,5.048c-2.433,1.006 -8.061,4.67 -5.591,5.581Z" style="fill:#00132d;stroke:#000;stroke-width:0.5px;"/><path d="M106.153,314.595l80.099,-8.06l3.022,4.046l-48.454,20.463l-32.638,-9.714l-2.029,-6.735Z" style="fill:#2d3a4c;"/><path d="M237.787,317.318c-2.373,-5.252 11.435,-57.639 12.224,-78.32c0.59,-15.445 -2.948,-38.135 -7.488,-45.762c-3.368,-5.657 -16.676,5.821 -19.751,0c-4.287,-8.113 -3.378,-32.536 -5.97,-48.676c-16.425,-102.3 -74.363,-21.99 -54.884,-70.517c4.363,-10.869 38.928,-5.51 38.928,-5.51c14.874,14.631 14.824,21.806 28.64,45.316c16.524,28.119 39.421,82.223 44.829,100.757c2.979,10.208 -4.375,-0.937 -10.065,55.904c-1.612,16.101 -24.09,52.06 -26.463,46.808Z" style="fill:#d6ad8e;"/><path d="M144.846,314.664c0.506,1.009 1.518,3.027 2.965,3.225c1.977,0.271 7.418,-0.883 8.901,-1.599c0.81,-0.391 0.891,-2.575 0,-2.697c-1.977,-0.271 -8.57,0.624 -11.866,1.071" style="fill:#666;"/><path d="M106.902,259.085c-2.101,1.329 -16.996,16.248 -21.272,22.501c-2.943,4.303 -3.908,12.512 -4.383,15.014c-0.095,0.502 1.229,0.411 1.533,0c2.832,-3.832 11.436,-16.741 15.456,-22.994c3.049,-4.741 10.767,-15.851 8.666,-14.521Z" style="fill:#826f55;"/><path d="M158.144,313.765c-0.471,0.141 0.581,0.923 1.062,1.019c0.719,0.142 2.53,0.051 3.248,-0.164c0.495,-0.147 1.569,-1.024 1.063,-1.125c-0.718,-0.142 -4.655,0.055 -5.373,0.27Z" style="fill:#575757;"/><path d="M131.209,314.681c-1.385,0.541 -0.217,3.545 0,4.459c0.128,0.538 0.753,0.958 1.302,1.028c1.336,0.171 5.031,0.171 6.717,0c1.177,-0.12 2.832,-0.113 3.399,-1.028c0.566,-0.914 1.384,-3.918 0,-4.459c-1.903,-0.744 -9.515,-0.744 -11.418,0Z" style="fill:#7b7b7b;"/><path d="M118.621,205.566c-1.763,5.162 -4.472,11.657 -4.21,20.068c0.246,7.881 -0.99,20.892 -2.663,27.139c-1.096,4.091 -5.978,6.427 -7.374,10.347c-1.291,3.626 -0.933,9.679 0.903,11.823c1.836,2.143 7.211,-0.129 10.116,1.036c6.101,2.447 12.453,8.546 17.61,7.459c3.369,-0.71 5.68,-1.588 8.734,-5.051c1.828,-2.072 1.911,-2.454 3.035,-3.444c8.265,-7.281 13.239,-4.512 17.7,-3.956c1.822,0.226 4.994,-2.533 4.994,-4.81c0,-2.276 -2.802,-6.267 -4.994,-8.85c-2.549,-3.003 -7.736,-5.664 -10.3,-9.17c-6.36,-8.695 -12.145,-28.736 -13.56,-37.778c-0.957,-6.115 -9.382,-8.976 -12.882,-8.426c-3.978,0.625 -6.431,1.631 -7.109,3.613Z" style="fill:#d6ad8e;"/><path d="M121.325,215.723c-1.294,9.062 -5.42,40.934 -3.386,50.628c1.257,5.988 10.91,8.057 15.595,7.536c4.685,-0.521 12.649,-4.933 12.515,-10.662c-0.235,-10.095 -10.535,-41.363 -13.925,-49.903c-0.857,-2.158 -4.616,-1.74 -6.416,-1.34c-1.8,0.4 -4.099,1.756 -4.383,3.741Z" style="fill:#b39782;"/><path d="M122.856,314.266c0.119,1.323 -0.351,3.187 0,4.139c0.304,0.822 1.25,1.391 2.108,1.572c1.246,0.262 4.475,0.952 5.37,0c0.895,-0.952 1.52,-5.328 0,-5.711c-1.25,-0.314 -7.523,-0.514 -7.478,0Z" style="fill:#5f5f5f;"/><path d="M109.378,218.43c9.589,-9.011 20.475,-10.779 32.631,-5.085" style="fill:none;stroke:#19202b;stroke-width:7.5px;"/><path d="M215.723,217.681c-4.276,11.899 -46.604,29.875 -70.304,9.354c-4.152,-5.979 -4.386,-14.949 0,-19.945c4.555,-5.189 18.108,-10.075 27.331,-11.186c11.077,-2.607 38.051,-0.476 40.272,4.682c1.818,0.817 4.743,11.416 2.701,17.095Z" style="fill:#2d3a4c;fill-opacity:0.807843;stroke:#19202b;stroke-width:7.5px;"/><path d="M213.539,200.258c4.685,1.578 9.362,1.441 14.031,0c11.093,-6.29 21.502,-14.647 31.661,-23.759" style="fill:none;stroke:#19202b;stroke-width:7.5px;"/><path d="M37.42,224.434c-2.376,0.923 -7.128,2.77 -9.608,2.77c-1.986,0 -5.763,-0.846 -5.273,-2.77c0.954,-3.745 7.648,-14.379 10.995,-19.696" style="fill:none;stroke:#19202b;stroke-width:7.5px;"/><path d="M37.628,224.742c-1.866,-9.251 46.985,-25.888 70.673,-7.279c4.152,5.979 4.386,14.949 0,19.945c-4.555,5.189 -18.108,10.075 -27.331,11.186c-8.953,1.305 -17.787,0.491 -26.529,-1.98c-4.159,-1.013 -8.42,-3.143 -12.833,-6.958c-1.818,-0.817 -6.357,-9.366 -3.98,-14.914Z" style="fill:#2d3a4c;fill-opacity:0.819608;stroke:#19202b;stroke-width:7.5px;"/><path d="M106.535,317.171c0.988,0.811 3.491,4.09 5.927,4.864c3.366,1.07 9.501,1.13 14.266,1.552c6.136,0.545 15.177,3.29 22.548,1.713c10.586,-2.263 35.027,-14.751 40.967,-15.295c4.367,-0.4 -2.809,8.439 -5.326,12.03c-3.571,5.095 -9.063,14.358 -16.098,18.541c-7.393,4.395 -21.462,6.885 -28.263,7.835c-4.201,0.587 -8.667,-0.416 -12.546,-2.134c-4.265,-1.889 -9.887,-4.917 -13.047,-9.199c-3.579,-4.851 -7.024,-16.589 -8.428,-19.907Z" style="fill:#d6ad8e;"/><path d="M115.077,314.197c0.177,1.261 0.529,3.783 1.362,4.694c0.833,0.911 2.655,0.772 3.636,0.772c0.793,0 1.948,-0.039 2.249,-0.772c0.375,-0.911 1.208,-3.912 0,-4.694c-1.208,-0.783 -5.234,-0.261 -7.247,0" style="fill:#636363;"/><path d="M98.881,314.676c3.303,-2.044 9.909,-6.132 15.515,-7.052c7.162,-1.176 21.067,0 27.454,0c3.621,0 7.287,0.561 10.865,0c3.811,-0.598 8.308,-2.99 12.004,-3.588c3.347,-0.541 6.149,1.478 10.17,0c6.313,-2.32 18.374,4.408 15.999,8.517c-0.304,0.525 -10.186,-2.998 -13.456,-2.998c-2.284,0 -3.906,2.637 -6.161,2.998c-5.337,0.853 -17.891,1.769 -25.861,2.123c-7.313,0.325 -16.456,0 -21.96,0c-3.686,0 -7.535,-0.42 -11.06,0c-3.442,0.41 -7.839,2.52 -10.09,2.52c-1.416,0 -2.752,-1.68 -3.419,-2.52" style="fill:#b39782;"/><path d="M8.575,92.254c-17.032,25.409 -4.136,71.387 0,91.768l12.719,28.108l16.822,32.942l0,-32.942c-7.363,-24.606 -15.043,-56.534 -8.666,-73.668c3.587,-9.637 24.97,-32.059 23.88,-34.963l0,30.743l19.755,-9.868l6.565,9.868c3.888,-34.005 9.948,-41.068 20.228,4.22c5.824,7.643 33.462,-33.862 31.566,-42.353c-1.63,-7.302 8.417,28.017 13.678,28.265l0,-12.328l14.31,22.196c-4.282,0.055 -6.919,-34.944 0,-38.133c1.139,-0.524 14.636,31.973 16.056,32.076c2.262,-7.856 6.23,-8.298 12.208,0c-2.878,0.62 -12.351,-37.795 0,-46.836c5.517,-4.038 15.305,-0.678 20.069,4.225c14.427,14.847 63.827,147.299 63.729,150.319c-1.614,-7.222 6.957,-7.477 14.111,-14.392c10.422,-1.489 4.175,-33.451 9.387,-16.898c11.878,-26.221 6.971,-89.884 0,-119.029c-5.409,-22.618 -21.18,-45.132 -41.824,-55.842c-27.258,-14.142 -80.284,-33.757 -121.724,-29.007c-99.522,11.408 -102.39,60.979 -122.869,91.529Z" style="fill:#1f2b38;"/><path d="M240.592,153.449c0,0 33.264,79.494 30.743,82.805c-1.62,-6.98 6.978,-7.227 14.155,-13.91c10.455,-1.44 4.188,-32.331 9.417,-16.332c11.916,-25.343 7.563,-79.41 0,-120.643c-11.428,24.45 -28.213,59 -54.315,68.08Z" style="fill:#3c3c3c;"/><path d="M271.811,227.749c1.091,-2.918 3.527,-5.619 5.671,-7.428c2.031,-1.712 5.864,-1.126 7.197,-3.423c1.895,-3.267 5.374,-11.96 4.175,-16.179c-1.2,-4.219 -10.676,-5.715 -11.372,-9.134c-0.696,-3.419 4.425,-12.903 7.197,-11.38c2.772,1.522 7.863,13.171 9.435,20.514c1.573,7.343 0,17.226 0,23.543c0,4.787 1.366,9.774 0,14.362c-1.572,5.282 -6.085,14.443 -9.435,17.332c-2.693,2.322 -7.768,1.391 -10.668,0c-2.901,-1.392 -6.456,-4.785 -6.734,-8.35c-0.367,-4.701 2.833,-15.31 4.534,-19.857Z" style="fill:#b39782;"/><path d="M131.444,0.725c-126.171,1.524 -110.344,168.23 -101.994,137.737c2.716,-9.917 24.97,-32.059 23.88,-34.963l0,30.743l19.755,-9.868l6.565,9.868c3.888,-34.005 9.948,-41.068 20.228,4.22c7.575,10.51 37.807,-30.174 36.783,-81.717c-0.024,-1.167 7.943,-56.179 -5.217,-56.02Z" style="fill:#2d3a4c;"/><path d="M148.322,243.14c4.962,2.022 14.885,6.066 21.678,10.289c7.086,4.404 15.314,11.223 20.836,16.138c4.52,4.024 9.606,9.773 12.298,13.355c1.803,2.399 3.397,5.17 3.854,8.136c0.642,4.17 0.642,14.069 0,16.883c-0.286,1.252 -3.568,1.252 -3.854,0c-0.643,-2.814 2.484,-11.834 0,-16.883c-3.147,-6.396 -12.384,-15.219 -18.883,-21.491c-6.185,-5.969 -14.124,-11.734 -20.112,-16.138c-5.067,-3.727 -12.234,-8.102 -15.817,-10.289" style="fill:#d5b593;"/></g></svg>