<?xml version="1.0" encoding="UTF-8" standalone="no"?><!DOCTYPE svg PUBLIC "-//W3C//DTD SVG 1.1//EN" "http://www.w3.org/Graphics/SVG/1.1/DTD/svg11.dtd"><svg width="100%" height="100%" viewBox="0 0 800 463" version="1.1" xmlns="http://www.w3.org/2000/svg" xmlns:xlink="http://www.w3.org/1999/xlink" xml:space="preserve" style="fill-rule:evenodd;clip-rule:evenodd;stroke-linejoin:round;stroke-miterlimit:1.41421;"><g><path d="M1.355,133.125c12.579,-45.823 53.212,-79.413 101.339,-79.413c48.127,0 88.76,33.59 101.34,79.413l-202.679,0Z" style="fill:#7fb174;"/><path d="M166.593,132.924c19.23,-51.496 68.403,-88.155 125.966,-88.155c57.564,0 106.737,36.659 125.967,88.155l-251.933,0Z" style="fill:#92d5ce;"/><path d="M444.889,132.056l-161.209,0l80.605,-112.618l80.604,112.618Z" style="fill:#7fb174;"/><path d="M584.833,132.056l-174.979,0l87.489,-105.695l87.49,105.695Z" style="fill:#8c8c8c;"/><path d="M574.328,132.056c11.749,-43.369 57.763,-75.766 112.669,-75.766c54.906,0 100.92,32.397 112.669,75.766l-225.338,0Z" style="fill:#91cf8e;"/><g><rect x="0" y="203.389" width="266.472" height="259.449" style="fill:#93d190;"/><rect x="266.71" y="203.389" width="266.487" height="259.446" style="fill:#92d5ce;"/><rect x="533.513" y="203.389" width="266.487" height="259.446" style="fill:#f2c05d;"/></g><rect x="0" y="131.423" width="800" height="72.382" style="fill:#454545;"/><path d="M800,203.804l-800,0l0,-72.381l800,0l0,72.381Zm-793,-65.381l0,58.382l786,0l0,-58.382l-786,0Z" style="fill:#454545;"/><path d="M0.356,0l731.518,130.882l-731.518,0l0,-130.882Z" style="fill:#fff;fill-opacity:0.2;"/></g></svg>