<?xml version="1.0" encoding="UTF-8" standalone="no"?><!DOCTYPE svg PUBLIC "-//W3C//DTD SVG 1.1//EN" "http://www.w3.org/Graphics/SVG/1.1/DTD/svg11.dtd"><svg width="100%" height="100%" viewBox="0 0 1443 900" version="1.1" xmlns="http://www.w3.org/2000/svg" xmlns:xlink="http://www.w3.org/1999/xlink" xml:space="preserve" style="fill-rule:evenodd;clip-rule:evenodd;stroke-linejoin:round;stroke-miterlimit:1.41421;"><path d="M0,238.923c22.727,-82.696 96.141,-143.316 183.093,-143.316c86.951,0 160.365,60.62 183.092,143.316l-366.185,0Z" style="fill:#7fb174;"/><path d="M298.541,238.56c34.742,-92.934 123.584,-159.092 227.586,-159.092c104.001,0 192.844,66.158 227.586,159.092l-455.172,0Z" style="fill:#92d5ce;"/><path d="M801.344,236.993l-291.26,0l145.63,-203.239l145.63,203.239Z" style="fill:#7fb174;"/><path d="M1054.18,236.993l-316.139,0l158.069,-190.746l158.07,190.746Z" style="fill:#8c8c8c;"/><path d="M1035.2,236.993c21.227,-78.267 104.363,-136.732 203.562,-136.732c99.2,0 182.336,58.465 203.562,136.732l-407.124,0Z" style="fill:#91cf8e;"/><g><rect x="0.325" y="365.726" width="479.65" height="533.903" style="fill:#93d190;"/><rect x="480.404" y="365.726" width="479.676" height="533.897" style="fill:#92d5ce;"/><rect x="960.649" y="365.726" width="479.676" height="533.897" style="fill:#f2c05d;"/></g><g><path d="M714.443,611.073c38.771,-60.454 116.314,-60.454 155.086,-30.227c38.773,30.227 38.773,90.68 0,151.134c-27.141,45.34 -96.929,90.68 -155.086,120.906c-58.157,-30.226 -127.946,-75.566 -155.086,-120.906c-38.771,-60.454 -38.771,-120.907 0,-151.134c38.772,-30.227 116.315,-30.227 155.086,30.227Z" style="fill:#fffefe;fill-opacity:0.341176;"/><path d="M824.84,478.303c19.168,-32.293 57.505,-32.293 76.674,-16.147c19.169,16.147 19.169,48.441 0,80.734c-13.418,24.22 -47.921,48.44 -76.674,64.587c-28.753,-16.147 -63.256,-40.367 -76.674,-64.587c-19.169,-32.293 -19.169,-64.587 0,-80.734c19.168,-16.146 57.505,-16.146 76.674,16.147Z" style="fill:#fffefe;fill-opacity:0.341176;"/><path d="M0.325,544.249c67.399,-29.787 166.239,-16.177 219.757,72.7c63.195,-104.948 189.585,-104.948 252.78,-52.474c63.198,52.474 63.198,157.422 0,262.369c-13.634,24.26 -33.872,48.52 -58.124,72.011l-389.312,0c-8.958,-8.677 -17.369,-17.459 -25.101,-26.308l0,-328.298Z" style="fill:#fffefe;fill-opacity:0.341176;"/><path d="M658.079,366.864c0.275,15.405 -4.943,33.143 -15.653,50.88c-14.619,25.941 -52.209,51.882 -83.534,69.176c-31.325,-17.294 -68.915,-43.235 -83.533,-69.176c-10.71,-17.737 -15.927,-35.475 -15.652,-50.88l198.372,0Z" style="fill:#fffefe;fill-opacity:0.341176;"/><path d="M1216.75,898.855c-81.424,-48.249 -169.438,-113.637 -206.211,-179.025c-59.24,-98.317 -59.24,-196.635 0,-245.793c59.241,-49.159 177.721,-49.159 236.961,49.158c46.899,-77.834 130.925,-94.05 193.293,-73.037l0,326.306c-43.745,45.341 -104.801,88.176 -162.542,122.391l-61.501,0Z" style="fill:#fffefe;fill-opacity:0.341176;"/></g><path d="M0.325,42.594l1319.52,192.281l-1319.52,0l0,-192.281Z" style="fill:#fff;fill-opacity:0.2;"/><rect x="0.325" y="236.663" width="1440" height="130.626" style="fill:#454545;"/><path d="M1440.33,367.289l-1440,0l0,-130.626l1440,0l0,130.626Zm-1433,-123.626l0,116.626l1426,0l0,-116.626l-1426,0Z" style="fill:#454545;"/><rect x="1300.49" y="0" width="113.612" height="236.294" style="fill:#eee;fill-opacity:0.784314;"/></svg>