<?xml version="1.0" encoding="UTF-8" standalone="no"?><!DOCTYPE svg PUBLIC "-//W3C//DTD SVG 1.1//EN" "http://www.w3.org/Graphics/SVG/1.1/DTD/svg11.dtd"><svg width="100%" height="100%" viewBox="0 0 250 203" version="1.1" xmlns="http://www.w3.org/2000/svg" xmlns:xlink="http://www.w3.org/1999/xlink" xml:space="preserve" style="fill-rule:evenodd;clip-rule:evenodd;stroke-linejoin:round;stroke-miterlimit:1.41421;"><g><ellipse cx="131.858" cy="100.904" rx="103.168" ry="100.904" style="fill:#454545;"/><path d="M48.851,46.455c-2.816,-13.002 -8.449,-35.844 -12.221,-37.993c-3.772,-2.15 -5.964,24.205 -10.41,25.098c-4.446,0.894 -13.556,-25.281 -16.268,-19.739c-2.711,5.541 1.659,44.156 0,52.988c-0.612,3.26 -9.952,-3.318 -9.952,0c0,5.012 4.668,20.932 9.952,30.073c6.105,10.56 19.349,34.715 26.678,33.287c7.328,-1.429 15.256,-27.908 17.293,-41.861c2.03,-13.905 -2.19,-28.545 -5.072,-41.853Z" style="fill:#454545;"/><path d="M229.859,71.838l20.141,18.983l-20.141,3.342l0,-22.325Z" style="fill:#454545;"/><ellipse cx="186.656" cy="48.311" rx="7.435" ry="7.656" style="fill:#fff7f7;"/><path d="M41.337,151.028c17.845,30.624 51.537,51.291 90.125,51.291c38.588,0 72.279,-20.667 90.125,-51.291l-180.25,0Z" style="fill:#8ccecc;"/><path d="M221.377,151.386l-0.211,0.357l-0.213,0.357l-0.214,0.356l-0.216,0.354l-0.217,0.354l-0.218,0.353l-0.22,0.352l-0.222,0.351l-0.222,0.35l-0.224,0.349l-0.226,0.348l-0.227,0.348l-0.228,0.346l-0.23,0.345l-0.231,0.344l-0.233,0.344l-0.234,0.342l-0.235,0.341l-0.237,0.341l-0.238,0.339l-0.239,0.339l-0.241,0.337l-0.242,0.336l-0.243,0.336l-0.245,0.334l-0.247,0.333l-0.247,0.333l-0.249,0.331l-0.25,0.331l-0.252,0.329l-0.253,0.328l-0.254,0.327l-0.255,0.327l-0.257,0.325l-0.258,0.324l-0.26,0.323l-0.261,0.322l-0.262,0.321l-0.263,0.32l-0.265,0.318l-0.266,0.318l-0.267,0.317l-0.268,0.316l-0.27,0.314l-0.271,0.313l-0.273,0.313l-0.273,0.311l-0.275,0.31l-0.276,0.309l-0.278,0.308l-0.278,0.307l-0.28,0.306l-0.281,0.304l-0.283,0.304l-0.283,0.302l-0.285,0.302l-0.286,0.3l-0.288,0.299l-0.288,0.298l-0.29,0.296l-0.291,0.296l-0.292,0.294l-0.293,0.294l-0.295,0.292l-0.296,0.291l-0.297,0.289l-0.298,0.289l-0.299,0.288l-0.3,0.286l-0.302,0.285l-0.303,0.284l-0.304,0.283l-0.305,0.281l-0.307,0.28l-0.307,0.28l-0.309,0.277l-0.309,0.277l-0.311,0.276l-0.312,0.274l-0.314,0.273l-0.314,0.272l-0.316,0.271l-0.316,0.269l-0.318,0.268l-0.319,0.267l-0.32,0.266l-0.321,0.264l-0.322,0.263l-0.323,0.262l-0.325,0.261l-0.325,0.26l-0.327,0.258l-0.327,0.257l-0.329,0.255l-0.33,0.255l-0.331,0.253l-0.332,0.251l-0.333,0.251l-0.334,0.249l-0.335,0.248l-0.336,0.247l-0.337,0.245l-0.339,0.244l-0.339,0.243l-0.341,0.241l-0.341,0.24l-0.342,0.239l-0.344,0.237l-0.344,0.237l-0.346,0.234l-0.346,0.234l-0.348,0.232l-0.349,0.231l-0.349,0.229l-0.351,0.228l-0.351,0.227l-0.353,0.225l-0.353,0.224l-0.355,0.223l-0.355,0.221l-0.357,0.22l-0.357,0.218l-0.359,0.217l-0.359,0.216l-0.361,0.214l-0.361,0.213l-0.362,0.212l-0.363,0.21l-0.365,0.208l-0.365,0.208l-0.366,0.206l-0.367,0.204l-0.368,0.203l-0.368,0.202l-0.37,0.2l-0.371,0.199l-0.371,0.197l-0.373,0.196l-0.373,0.194l-0.375,0.193l-0.375,0.192l-0.376,0.19l-0.377,0.189l-0.378,0.187l-0.379,0.185l-0.379,0.185l-0.381,0.182l-0.381,0.182l-0.382,0.179l-0.383,0.179l-0.384,0.177l-0.385,0.175l-0.386,0.174l-0.387,0.172l-0.387,0.171l-0.388,0.169l-0.389,0.168l-0.39,0.166l-0.391,0.165l-0.391,0.163l-0.393,0.162l-0.393,0.16l-0.394,0.159l-0.395,0.157l-0.395,0.155l-0.397,0.154l-0.397,0.153l-0.398,0.151l-0.399,0.149l-0.399,0.148l-0.4,0.146l-0.402,0.145l-0.401,0.143l-0.403,0.141l-0.404,0.14l-0.404,0.138l-0.405,0.137l-0.405,0.135l-0.407,0.134l-0.407,0.132l-0.408,0.13l-0.409,0.129l-0.409,0.127l-0.41,0.126l-0.411,0.123l-0.412,0.123l-0.412,0.12l-0.413,0.119l-0.414,0.118l-0.414,0.115l-0.415,0.114l-0.416,0.113l-0.417,0.111l-0.417,0.109l-0.418,0.107l-0.418,0.106l-0.42,0.104l-0.42,0.103l-0.42,0.1l-0.422,0.099l-0.422,0.098l-0.422,0.096l-0.423,0.094l-0.424,0.092l-0.425,0.091l-0.425,0.089l-0.426,0.087l-0.426,0.086l-0.428,0.083l-0.427,0.083l-0.429,0.08l-0.429,0.079l-0.429,0.077l-0.431,0.075l-0.43,0.073l-0.432,0.072l-0.432,0.07l-0.433,0.068l-0.433,0.067l-0.434,0.065l-0.434,0.063l-0.435,0.061l-0.436,0.059l-0.436,0.058l-0.436,0.056l-0.438,0.054l-0.438,0.052l-0.438,0.051l-0.439,0.049l-0.439,0.047l-0.44,0.045l-0.441,0.043l-0.441,0.042l-0.442,0.04l-0.442,0.038l-0.443,0.036l-0.443,0.034l-0.444,0.033l-0.444,0.031l-0.445,0.028l-0.445,0.027l-0.446,0.026l-0.446,0.023l-0.447,0.021l-0.447,0.02l-0.448,0.018l-0.448,0.016l-0.449,0.014l-0.449,0.012l-0.45,0.011l-0.45,0.008l-0.451,0.007l-0.451,0.004l-0.451,0.003l-0.452,0.001l-0.452,-0.001l-0.452,-0.003l-0.451,-0.004l-0.45,-0.007l-0.45,-0.008l-0.45,-0.011l-0.449,-0.012l-0.449,-0.014l-0.448,-0.016l-0.448,-0.018l-0.447,-0.02l-0.447,-0.021l-0.446,-0.023l-0.446,-0.026l-0.446,-0.027l-0.444,-0.028l-0.445,-0.031l-0.443,-0.033l-0.444,-0.034l-0.442,-0.036l-0.443,-0.038l-0.441,-0.04l-0.441,-0.042l-0.441,-0.043l-0.44,-0.045l-0.439,-0.047l-0.439,-0.049l-0.439,-0.051l-0.438,-0.052l-0.437,-0.054l-0.437,-0.056l-0.436,-0.058l-0.435,-0.059l-0.435,-0.061l-0.435,-0.063l-0.434,-0.065l-0.433,-0.067l-0.432,-0.068l-0.432,-0.07l-0.432,-0.072l-0.431,-0.073l-0.43,-0.075l-0.43,-0.077l-0.429,-0.079l-0.428,-0.08l-0.428,-0.083l-0.427,-0.083l-0.426,-0.086l-0.426,-0.087l-0.425,-0.089l-0.425,-0.091l-0.424,-0.092l-0.423,-0.094l-0.423,-0.096l-0.422,-0.098l-0.421,-0.099l-0.421,-0.1l-0.42,-0.103l-0.419,-0.104l-0.418,-0.106l-0.418,-0.107l-0.418,-0.109l-0.416,-0.111l-0.416,-0.113l-0.415,-0.114l-0.415,-0.115l-0.413,-0.118l-0.413,-0.119l-0.413,-0.12l-0.411,-0.123l-0.411,-0.123l-0.41,-0.126l-0.41,-0.127l-0.408,-0.129l-0.408,-0.13l-0.407,-0.132l-0.407,-0.134l-0.406,-0.135l-0.405,-0.137l-0.404,-0.138l-0.403,-0.14l-0.403,-0.141l-0.402,-0.143l-0.401,-0.145l-0.4,-0.146l-0.4,-0.148l-0.399,-0.149l-0.398,-0.151l-0.397,-0.153l-0.396,-0.154l-0.396,-0.155l-0.395,-0.157l-0.394,-0.159l-0.393,-0.16l-0.392,-0.162l-0.392,-0.163l-0.39,-0.165l-0.39,-0.166l-0.389,-0.168l-0.388,-0.169l-0.388,-0.171l-0.386,-0.172l-0.386,-0.174l-0.385,-0.175l-0.384,-0.177l-0.383,-0.179l-0.382,-0.179l-0.382,-0.182l-0.38,-0.182l-0.38,-0.185l-0.379,-0.185l-0.377,-0.187l-0.377,-0.189l-0.376,-0.19l-0.376,-0.192l-0.374,-0.193l-0.373,-0.194l-0.373,-0.196l-0.371,-0.197l-0.371,-0.199l-0.37,-0.2l-0.369,-0.202l-0.368,-0.203l-0.367,-0.204l-0.366,-0.206l-0.365,-0.208l-0.364,-0.208l-0.363,-0.21l-0.362,-0.212l-0.362,-0.213l-0.36,-0.214l-0.359,-0.216l-0.359,-0.217l-0.357,-0.218l-0.357,-0.22l-0.355,-0.221l-0.355,-0.223l-0.353,-0.224l-0.353,-0.225l-0.352,-0.227l-0.35,-0.228l-0.35,-0.229l-0.348,-0.231l-0.348,-0.232l-0.346,-0.234l-0.346,-0.234l-0.344,-0.237l-0.344,-0.237l-0.342,-0.239l-0.342,-0.24l-0.34,-0.241l-0.34,-0.243l-0.338,-0.244l-0.337,-0.245l-0.336,-0.247l-0.335,-0.248l-0.335,-0.249l-0.333,-0.251l-0.332,-0.251l-0.33,-0.253l-0.33,-0.255l-0.329,-0.255l-0.328,-0.257l-0.326,-0.258l-0.326,-0.26l-0.324,-0.261l-0.323,-0.262l-0.323,-0.263l-0.321,-0.264l-0.32,-0.266l-0.318,-0.267l-0.318,-0.268l-0.317,-0.269l-0.315,-0.271l-0.315,-0.272l-0.313,-0.273l-0.312,-0.274l-0.311,-0.276l-0.31,-0.277l-0.308,-0.277l-0.308,-0.28l-0.306,-0.28l-0.305,-0.281l-0.304,-0.283l-0.303,-0.284l-0.302,-0.285l-0.3,-0.286l-0.3,-0.288l-0.298,-0.289l-0.297,-0.289l-0.296,-0.291l-0.294,-0.292l-0.293,-0.294l-0.293,-0.294l-0.291,-0.296l-0.289,-0.296l-0.289,-0.298l-0.287,-0.299l-0.286,-0.3l-0.285,-0.302l-0.284,-0.302l-0.282,-0.304l-0.281,-0.304l-0.28,-0.306l-0.279,-0.307l-0.277,-0.308l-0.276,-0.309l-0.275,-0.31l-0.274,-0.311l-0.272,-0.313l-0.271,-0.313l-0.27,-0.314l-0.268,-0.316l-0.268,-0.317l-0.266,-0.318l-0.264,-0.318l-0.264,-0.32l-0.262,-0.321l-0.261,-0.322l-0.259,-0.323l-0.258,-0.324l-0.257,-0.325l-0.256,-0.327l-0.254,-0.327l-0.253,-0.328l-0.251,-0.329l-0.25,-0.331l-0.249,-0.331l-0.248,-0.333l-0.246,-0.333l-0.245,-0.334l-0.243,-0.336l-0.242,-0.336l-0.241,-0.337l-0.24,-0.339l-0.238,-0.339l-0.236,-0.341l-0.236,-0.341l-0.234,-0.342l-0.232,-0.344l-0.231,-0.344l-0.23,-0.345l-0.228,-0.346l-0.227,-0.348l-0.226,-0.348l-0.224,-0.349l-0.223,-0.35l-0.221,-0.351l-0.22,-0.352l-0.218,-0.353l-0.217,-0.354l-0.216,-0.354l-0.214,-0.356l-0.213,-0.357l-0.211,-0.357l-0.21,-0.358l180.25,0l-0.21,0.358Zm-169.879,5.141l0.186,0.254l0.233,0.315l0.234,0.315l0.235,0.313l0.237,0.313l0.238,0.312l0.239,0.309l0.241,0.31l0.242,0.309l0.243,0.309l0.244,0.306l0.246,0.305l0.246,0.304l0.248,0.304l0.25,0.304l0.25,0.301l0.252,0.3l0.253,0.3l0.254,0.298l0.255,0.299l0.257,0.296l0.257,0.296l0.26,0.295l0.26,0.293l0.261,0.292l0.263,0.292l0.263,0.29l0.265,0.29l0.267,0.289l0.266,0.286l0.269,0.286l0.27,0.286l0.27,0.284l0.272,0.283l0.274,0.282l0.274,0.281l0.275,0.28l0.277,0.279l0.278,0.278l0.278,0.275l0.281,0.277l0.281,0.274l0.281,0.272l0.284,0.273l0.285,0.271l0.285,0.27l0.287,0.269l0.288,0.267l0.289,0.267l0.291,0.266l0.29,0.264l0.292,0.263l0.294,0.262l0.295,0.262l0.294,0.258l0.296,0.258l0.299,0.258l0.3,0.258l0.299,0.254l0.3,0.254l0.303,0.253l0.302,0.251l0.305,0.251l0.305,0.249l0.305,0.248l0.309,0.247l0.307,0.246l0.309,0.243l0.311,0.245l0.311,0.242l0.313,0.241l0.314,0.24l0.313,0.237l0.316,0.238l0.316,0.236l0.318,0.235l0.318,0.234l0.32,0.232l0.32,0.231l0.32,0.229l0.324,0.23l0.323,0.227l0.324,0.225l0.327,0.226l0.325,0.224l0.327,0.221l0.329,0.222l0.329,0.219l0.331,0.22l0.331,0.217l0.33,0.215l0.333,0.214l0.336,0.215l0.335,0.212l0.335,0.211l0.337,0.209l0.337,0.208l0.339,0.208l0.339,0.205l0.34,0.204l0.342,0.203l0.342,0.202l0.343,0.2l0.345,0.199l0.346,0.199l0.346,0.196l0.345,0.195l0.346,0.192l0.349,0.193l0.351,0.192l0.35,0.189l0.352,0.189l0.351,0.186l0.351,0.185l0.356,0.185l0.355,0.183l0.354,0.181l0.356,0.18l0.358,0.179l0.358,0.177l0.358,0.176l0.36,0.175l0.361,0.173l0.361,0.171l0.361,0.17l0.364,0.17l0.364,0.167l0.364,0.166l0.366,0.165l0.365,0.163l0.366,0.161l0.369,0.161l0.37,0.16l0.367,0.157l0.37,0.155l0.372,0.156l0.372,0.153l0.373,0.151l0.372,0.151l0.374,0.148l0.375,0.148l0.375,0.145l0.377,0.145l0.377,0.143l0.378,0.141l0.378,0.141l0.38,0.138l0.38,0.137l0.379,0.135l0.382,0.134l0.383,0.133l0.383,0.131l0.383,0.13l0.383,0.127l0.387,0.127l0.387,0.126l0.385,0.123l0.386,0.121l0.389,0.121l0.389,0.119l0.389,0.117l0.389,0.116l0.39,0.114l0.392,0.113l0.393,0.111l0.392,0.11l0.393,0.108l0.394,0.106l0.395,0.105l0.397,0.104l0.394,0.102l0.396,0.1l0.399,0.099l0.398,0.097l0.398,0.095l0.397,0.094l0.4,0.092l0.402,0.091l0.401,0.089l0.402,0.088l0.403,0.086l0.403,0.084l0.403,0.083l0.403,0.081l0.405,0.079l0.407,0.078l0.405,0.076l0.405,0.075l0.408,0.073l0.408,0.071l0.409,0.07l0.41,0.068l0.408,0.066l0.409,0.065l0.412,0.063l0.412,0.061l0.411,0.06l0.411,0.058l0.414,0.056l0.414,0.055l0.414,0.053l0.414,0.051l0.416,0.05l0.415,0.048l0.416,0.046l0.416,0.045l0.417,0.042l0.419,0.042l0.418,0.039l0.418,0.038l0.421,0.036l0.42,0.034l0.418,0.033l0.421,0.031l0.423,0.029l0.422,0.027l0.421,0.026l0.423,0.024l0.423,0.022l0.424,0.02l0.425,0.019l0.425,0.017l0.426,0.015l0.424,0.013l0.427,0.012l0.427,0.01l0.426,0.008l0.428,0.006l0.429,0.004l0.429,0.003l0.428,0.001l0.428,-0.001l0.429,-0.003l0.429,-0.004l0.428,-0.006l0.426,-0.008l0.427,-0.01l0.427,-0.012l0.424,-0.013l0.426,-0.015l0.425,-0.017l0.424,-0.019l0.424,-0.02l0.424,-0.022l0.423,-0.024l0.421,-0.026l0.421,-0.027l0.424,-0.029l0.42,-0.031l0.419,-0.033l0.42,-0.034l0.42,-0.036l0.419,-0.038l0.418,-0.039l0.419,-0.042l0.417,-0.042l0.416,-0.045l0.416,-0.046l0.415,-0.048l0.416,-0.05l0.414,-0.051l0.413,-0.053l0.415,-0.055l0.414,-0.056l0.411,-0.058l0.411,-0.06l0.412,-0.061l0.411,-0.063l0.41,-0.065l0.408,-0.066l0.41,-0.068l0.408,-0.07l0.409,-0.071l0.407,-0.073l0.405,-0.075l0.405,-0.076l0.408,-0.078l0.405,-0.079l0.402,-0.081l0.404,-0.083l0.403,-0.084l0.403,-0.086l0.402,-0.088l0.401,-0.089l0.402,-0.091l0.399,-0.092l0.398,-0.094l0.398,-0.095l0.398,-0.097l0.398,-0.099l0.397,-0.1l0.394,-0.102l0.396,-0.104l0.396,-0.105l0.394,-0.106l0.392,-0.108l0.393,-0.11l0.393,-0.111l0.392,-0.113l0.39,-0.114l0.389,-0.116l0.388,-0.117l0.39,-0.119l0.389,-0.121l0.386,-0.121l0.385,-0.123l0.386,-0.126l0.388,-0.127l0.383,-0.127l0.382,-0.13l0.384,-0.131l0.382,-0.133l0.382,-0.134l0.38,-0.135l0.38,-0.137l0.379,-0.138l0.379,-0.141l0.378,-0.141l0.377,-0.143l0.376,-0.144l0.376,-0.146l0.375,-0.148l0.374,-0.149l0.373,-0.15l0.372,-0.151l0.371,-0.153l0.372,-0.156l0.37,-0.155l0.367,-0.157l0.37,-0.16l0.369,-0.161l0.367,-0.161l0.365,-0.163l0.365,-0.164l0.364,-0.167l0.365,-0.167l0.364,-0.17l0.361,-0.169l0.361,-0.172l0.361,-0.173l0.36,-0.175l0.358,-0.176l0.359,-0.177l0.357,-0.179l0.355,-0.18l0.355,-0.181l0.355,-0.183l0.355,-0.185l0.352,-0.185l0.351,-0.186l0.351,-0.189l0.351,-0.189l0.351,-0.192l0.348,-0.192l0.347,-0.194l0.345,-0.194l0.346,-0.196l0.347,-0.199l0.343,-0.199l0.343,-0.2l0.343,-0.202l0.342,-0.203l0.34,-0.204l0.338,-0.205l0.34,-0.208l0.337,-0.208l0.337,-0.209l0.335,-0.211l0.334,-0.212l0.337,-0.215l0.332,-0.214l0.331,-0.215l0.331,-0.217l0.331,-0.22l0.329,-0.219l0.329,-0.222l0.326,-0.221l0.326,-0.224l0.328,-0.226l0.323,-0.225l0.322,-0.227l0.324,-0.23l0.321,-0.229l0.319,-0.231l0.32,-0.232l0.319,-0.234l0.317,-0.235l0.317,-0.236l0.316,-0.238l0.313,-0.237l0.313,-0.24l0.313,-0.241l0.312,-0.243l0.311,-0.244l0.308,-0.243l0.308,-0.246l0.309,-0.247l0.304,-0.247l0.305,-0.25l0.305,-0.251l0.304,-0.252l0.301,-0.252l0.3,-0.253l0.3,-0.256l0.3,-0.257l0.298,-0.257l0.296,-0.259l0.295,-0.259l0.295,-0.261l0.293,-0.262l0.293,-0.263l0.29,-0.264l0.29,-0.266l0.29,-0.267l0.288,-0.267l0.287,-0.269l0.284,-0.27l0.286,-0.271l0.283,-0.273l0.281,-0.272l0.282,-0.275l0.28,-0.276l0.278,-0.275l0.278,-0.278l0.277,-0.279l0.276,-0.28l0.274,-0.281l0.273,-0.282l0.272,-0.283l0.271,-0.284l0.27,-0.286l0.268,-0.286l0.266,-0.286l0.268,-0.289l0.265,-0.29l0.263,-0.29l0.263,-0.292l0.26,-0.291l0.261,-0.295l0.26,-0.295l0.257,-0.295l0.256,-0.296l0.256,-0.298l0.254,-0.298l0.253,-0.301l0.252,-0.3l0.25,-0.302l0.25,-0.303l0.248,-0.304l0.246,-0.304l0.245,-0.305l0.244,-0.306l0.244,-0.309l0.242,-0.309l0.24,-0.31l0.239,-0.309l0.238,-0.312l0.237,-0.313l0.235,-0.313l0.235,-0.315l0.233,-0.315l0.185,-0.254l-159.927,0Z" style="fill:#8ccecc;"/></g></svg>