<?xml version="1.0" encoding="UTF-8" standalone="no"?><!DOCTYPE svg PUBLIC "-//W3C//DTD SVG 1.1//EN" "http://www.w3.org/Graphics/SVG/1.1/DTD/svg11.dtd"><svg width="100%" height="100%" viewBox="0 0 300 243" version="1.1" xmlns="http://www.w3.org/2000/svg" xmlns:xlink="http://www.w3.org/1999/xlink" xml:space="preserve" style="fill-rule:evenodd;clip-rule:evenodd;stroke-linejoin:round;stroke-miterlimit:1.41421;"><g><ellipse cx="158.229" cy="121.085" rx="123.801" ry="121.085" style="fill:#454545;"/><path d="M58.622,55.746c-3.38,-15.603 -10.14,-43.013 -14.666,-45.592c-4.527,-2.579 -7.157,29.047 -12.492,30.118c-5.336,1.072 -16.268,-30.337 -19.521,-23.687c-3.254,6.65 1.99,52.988 0,63.586c-0.735,3.912 -11.943,-3.981 -11.943,0c0,6.014 5.601,25.118 11.943,36.088c7.326,12.672 23.219,41.658 32.013,39.943c8.794,-1.715 18.307,-33.489 20.751,-50.232c2.436,-16.687 -2.627,-34.255 -6.085,-50.224Z" style="fill:#454545;"/><path d="M275.831,86.205l24.169,22.781l-24.169,4.01l0,-26.791Z" style="fill:#454545;"/><ellipse cx="223.987" cy="57.973" rx="8.922" ry="9.187" style="fill:#fff7f7;"/><path d="M49.604,181.233c21.415,36.75 61.845,61.55 108.15,61.55c46.306,0 86.736,-24.8 108.15,-61.55l-216.3,0Z" style="fill:#8ccecc;"/><path d="M265.652,181.663l-0.253,0.429l-0.255,0.428l-0.257,0.427l-0.259,0.426l-0.261,0.424l-0.262,0.424l-0.264,0.422l-0.265,0.421l-0.268,0.42l-0.269,0.419l-0.27,0.418l-0.273,0.416l-0.274,0.416l-0.275,0.414l-0.278,0.413l-0.279,0.412l-0.28,0.411l-0.283,0.41l-0.284,0.408l-0.285,0.408l-0.288,0.406l-0.289,0.405l-0.29,0.403l-0.292,0.403l-0.294,0.401l-0.296,0.4l-0.297,0.399l-0.298,0.397l-0.301,0.397l-0.301,0.395l-0.304,0.394l-0.305,0.393l-0.307,0.391l-0.308,0.39l-0.31,0.389l-0.311,0.388l-0.313,0.386l-0.314,0.385l-0.316,0.384l-0.318,0.383l-0.319,0.381l-0.321,0.38l-0.322,0.379l-0.324,0.377l-0.325,0.376l-0.327,0.375l-0.328,0.374l-0.33,0.372l-0.332,0.371l-0.332,0.369l-0.335,0.369l-0.336,0.366l-0.337,0.366l-0.339,0.364l-0.34,0.363l-0.342,0.362l-0.343,0.36l-0.345,0.359l-0.346,0.357l-0.348,0.356l-0.349,0.355l-0.351,0.353l-0.352,0.352l-0.353,0.35l-0.355,0.35l-0.356,0.347l-0.358,0.347l-0.359,0.345l-0.361,0.343l-0.362,0.342l-0.363,0.341l-0.365,0.339l-0.366,0.338l-0.368,0.336l-0.369,0.335l-0.37,0.334l-0.372,0.332l-0.373,0.331l-0.375,0.329l-0.376,0.328l-0.377,0.326l-0.378,0.325l-0.38,0.323l-0.382,0.322l-0.382,0.32l-0.384,0.319l-0.386,0.317l-0.386,0.316l-0.388,0.314l-0.389,0.313l-0.391,0.311l-0.392,0.31l-0.393,0.309l-0.395,0.306l-0.395,0.306l-0.397,0.303l-0.399,0.302l-0.399,0.301l-0.401,0.299l-0.402,0.298l-0.404,0.295l-0.405,0.295l-0.406,0.293l-0.407,0.291l-0.408,0.29l-0.41,0.288l-0.411,0.286l-0.412,0.285l-0.413,0.283l-0.415,0.282l-0.416,0.28l-0.417,0.279l-0.418,0.277l-0.42,0.275l-0.42,0.274l-0.422,0.272l-0.423,0.27l-0.425,0.269l-0.425,0.267l-0.427,0.265l-0.428,0.264l-0.428,0.262l-0.431,0.261l-0.431,0.259l-0.432,0.257l-0.434,0.255l-0.435,0.254l-0.435,0.252l-0.437,0.251l-0.439,0.248l-0.439,0.247l-0.44,0.246l-0.442,0.244l-0.442,0.241l-0.444,0.241l-0.445,0.238l-0.446,0.237l-0.447,0.235l-0.448,0.233l-0.449,0.232l-0.45,0.23l-0.452,0.228l-0.452,0.226l-0.453,0.225l-0.455,0.223l-0.455,0.221l-0.457,0.219l-0.458,0.218l-0.458,0.215l-0.46,0.214l-0.461,0.213l-0.462,0.21l-0.463,0.208l-0.463,0.207l-0.465,0.205l-0.466,0.203l-0.467,0.202l-0.468,0.199l-0.469,0.198l-0.47,0.196l-0.47,0.194l-0.472,0.192l-0.473,0.19l-0.474,0.189l-0.474,0.187l-0.476,0.184l-0.477,0.183l-0.477,0.181l-0.479,0.18l-0.479,0.177l-0.481,0.175l-0.481,0.174l-0.482,0.172l-0.484,0.17l-0.484,0.167l-0.485,0.166l-0.486,0.164l-0.486,0.163l-0.488,0.16l-0.489,0.158l-0.489,0.157l-0.491,0.154l-0.491,0.153l-0.492,0.15l-0.493,0.149l-0.494,0.147l-0.495,0.144l-0.496,0.143l-0.496,0.141l-0.497,0.139l-0.499,0.137l-0.499,0.135l-0.499,0.133l-0.501,0.13l-0.502,0.129l-0.502,0.127l-0.503,0.125l-0.504,0.123l-0.505,0.121l-0.505,0.119l-0.507,0.117l-0.507,0.115l-0.508,0.113l-0.508,0.111l-0.51,0.109l-0.51,0.106l-0.511,0.105l-0.512,0.103l-0.513,0.1l-0.513,0.099l-0.514,0.096l-0.515,0.095l-0.515,0.092l-0.517,0.09l-0.517,0.089l-0.517,0.086l-0.519,0.084l-0.519,0.082l-0.52,0.079l-0.52,0.078l-0.522,0.076l-0.522,0.073l-0.522,0.072l-0.524,0.069l-0.524,0.067l-0.524,0.065l-0.526,0.063l-0.526,0.06l-0.527,0.059l-0.527,0.056l-0.528,0.055l-0.529,0.052l-0.529,0.05l-0.53,0.047l-0.531,0.046l-0.531,0.043l-0.532,0.042l-0.532,0.039l-0.534,0.036l-0.533,0.035l-0.535,0.033l-0.535,0.03l-0.535,0.028l-0.536,0.026l-0.537,0.023l-0.537,0.022l-0.538,0.019l-0.539,0.017l-0.539,0.014l-0.539,0.013l-0.541,0.01l-0.54,0.008l-0.542,0.005l-0.541,0.004l-0.543,0.001l-0.542,-0.001l-0.542,-0.004l-0.541,-0.005l-0.541,-0.008l-0.54,-0.01l-0.54,-0.013l-0.539,-0.014l-0.538,-0.017l-0.538,-0.019l-0.538,-0.022l-0.536,-0.023l-0.536,-0.026l-0.536,-0.028l-0.535,-0.03l-0.534,-0.033l-0.534,-0.035l-0.533,-0.036l-0.533,-0.039l-0.532,-0.042l-0.531,-0.043l-0.53,-0.046l-0.53,-0.047l-0.53,-0.05l-0.528,-0.052l-0.529,-0.055l-0.527,-0.056l-0.527,-0.059l-0.526,-0.06l-0.525,-0.063l-0.525,-0.065l-0.524,-0.067l-0.523,-0.069l-0.523,-0.072l-0.522,-0.073l-0.521,-0.076l-0.521,-0.078l-0.52,-0.079l-0.519,-0.082l-0.518,-0.084l-0.518,-0.086l-0.517,-0.089l-0.516,-0.09l-0.516,-0.092l-0.515,-0.095l-0.514,-0.096l-0.513,-0.099l-0.513,-0.1l-0.511,-0.103l-0.511,-0.105l-0.511,-0.106l-0.509,-0.109l-0.509,-0.111l-0.508,-0.113l-0.507,-0.115l-0.506,-0.117l-0.506,-0.119l-0.505,-0.121l-0.504,-0.123l-0.503,-0.125l-0.502,-0.127l-0.501,-0.129l-0.501,-0.13l-0.5,-0.133l-0.499,-0.135l-0.498,-0.137l-0.497,-0.139l-0.497,-0.141l-0.496,-0.143l-0.494,-0.144l-0.494,-0.147l-0.493,-0.149l-0.492,-0.15l-0.492,-0.153l-0.49,-0.154l-0.49,-0.157l-0.488,-0.158l-0.488,-0.16l-0.487,-0.163l-0.486,-0.164l-0.485,-0.166l-0.484,-0.167l-0.483,-0.17l-0.482,-0.172l-0.482,-0.174l-0.48,-0.175l-0.48,-0.177l-0.478,-0.18l-0.478,-0.181l-0.476,-0.183l-0.476,-0.184l-0.475,-0.187l-0.474,-0.189l-0.472,-0.19l-0.472,-0.192l-0.471,-0.194l-0.47,-0.196l-0.469,-0.198l-0.468,-0.199l-0.466,-0.202l-0.466,-0.203l-0.465,-0.205l-0.464,-0.207l-0.463,-0.208l-0.462,-0.21l-0.46,-0.213l-0.46,-0.214l-0.459,-0.215l-0.458,-0.218l-0.456,-0.219l-0.456,-0.221l-0.454,-0.223l-0.454,-0.225l-0.452,-0.226l-0.451,-0.228l-0.451,-0.23l-0.449,-0.232l-0.448,-0.233l-0.447,-0.235l-0.446,-0.237l-0.445,-0.238l-0.443,-0.241l-0.443,-0.241l-0.441,-0.244l-0.441,-0.246l-0.439,-0.247l-0.438,-0.248l-0.437,-0.251l-0.436,-0.252l-0.435,-0.254l-0.433,-0.255l-0.433,-0.257l-0.431,-0.259l-0.43,-0.261l-0.429,-0.262l-0.428,-0.264l-0.426,-0.265l-0.426,-0.267l-0.424,-0.269l-0.423,-0.27l-0.422,-0.272l-0.421,-0.274l-0.419,-0.275l-0.419,-0.277l-0.417,-0.279l-0.415,-0.28l-0.415,-0.282l-0.414,-0.283l-0.412,-0.285l-0.411,-0.286l-0.409,-0.288l-0.409,-0.29l-0.407,-0.291l-0.406,-0.293l-0.405,-0.295l-0.403,-0.295l-0.402,-0.298l-0.401,-0.299l-0.4,-0.301l-0.398,-0.302l-0.397,-0.303l-0.396,-0.306l-0.395,-0.306l-0.393,-0.309l-0.392,-0.31l-0.39,-0.311l-0.389,-0.313l-0.388,-0.314l-0.387,-0.316l-0.385,-0.317l-0.384,-0.319l-0.383,-0.32l-0.381,-0.322l-0.38,-0.323l-0.379,-0.325l-0.377,-0.326l-0.376,-0.328l-0.374,-0.329l-0.373,-0.331l-0.372,-0.332l-0.371,-0.334l-0.369,-0.335l-0.367,-0.336l-0.366,-0.338l-0.365,-0.339l-0.364,-0.341l-0.362,-0.342l-0.36,-0.343l-0.359,-0.345l-0.358,-0.347l-0.357,-0.347l-0.354,-0.35l-0.354,-0.35l-0.352,-0.352l-0.35,-0.353l-0.35,-0.355l-0.347,-0.356l-0.346,-0.357l-0.345,-0.359l-0.344,-0.36l-0.341,-0.362l-0.341,-0.363l-0.339,-0.364l-0.337,-0.366l-0.336,-0.366l-0.334,-0.369l-0.333,-0.369l-0.331,-0.371l-0.33,-0.372l-0.329,-0.374l-0.326,-0.375l-0.326,-0.376l-0.323,-0.377l-0.323,-0.379l-0.32,-0.38l-0.32,-0.381l-0.317,-0.383l-0.316,-0.384l-0.315,-0.385l-0.313,-0.386l-0.311,-0.388l-0.31,-0.389l-0.308,-0.39l-0.307,-0.391l-0.305,-0.393l-0.303,-0.394l-0.302,-0.395l-0.3,-0.397l-0.299,-0.397l-0.297,-0.399l-0.295,-0.4l-0.294,-0.401l-0.292,-0.403l-0.291,-0.403l-0.289,-0.405l-0.287,-0.406l-0.286,-0.408l-0.284,-0.408l-0.282,-0.41l-0.281,-0.411l-0.279,-0.412l-0.277,-0.413l-0.276,-0.414l-0.274,-0.416l-0.272,-0.416l-0.271,-0.418l-0.269,-0.419l-0.267,-0.42l-0.266,-0.421l-0.264,-0.422l-0.262,-0.424l-0.26,-0.424l-0.259,-0.426l-0.257,-0.427l-0.255,-0.428l-0.254,-0.429l-0.252,-0.43l216.3,0l-0.252,0.43Zm-205.995,5.07l0.09,0.127l0.275,0.389l0.276,0.387l0.277,0.386l0.279,0.383l0.281,0.384l0.282,0.382l0.283,0.38l0.286,0.38l0.286,0.378l0.288,0.377l0.291,0.378l0.292,0.376l0.292,0.373l0.294,0.372l0.296,0.372l0.297,0.37l0.299,0.368l0.301,0.369l0.302,0.367l0.303,0.365l0.305,0.364l0.307,0.364l0.308,0.362l0.308,0.36l0.311,0.359l0.313,0.359l0.314,0.357l0.314,0.354l0.316,0.354l0.319,0.354l0.32,0.352l0.321,0.351l0.321,0.348l0.324,0.348l0.326,0.348l0.327,0.345l0.327,0.344l0.33,0.343l0.331,0.342l0.332,0.339l0.333,0.339l0.336,0.338l0.335,0.336l0.338,0.335l0.34,0.334l0.34,0.333l0.342,0.33l0.344,0.331l0.344,0.327l0.346,0.327l0.348,0.327l0.347,0.323l0.35,0.322l0.353,0.323l0.353,0.32l0.353,0.318l0.355,0.318l0.357,0.316l0.357,0.314l0.359,0.313l0.362,0.312l0.362,0.311l0.363,0.309l0.364,0.308l0.366,0.306l0.367,0.305l0.368,0.303l0.369,0.301l0.371,0.301l0.372,0.299l0.374,0.298l0.375,0.296l0.375,0.295l0.377,0.293l0.379,0.291l0.38,0.291l0.38,0.289l0.382,0.287l0.383,0.286l0.385,0.284l0.386,0.284l0.386,0.28l0.389,0.281l0.389,0.278l0.39,0.277l0.392,0.275l0.392,0.274l0.395,0.272l0.395,0.271l0.397,0.27l0.397,0.268l0.398,0.265l0.4,0.265l0.402,0.264l0.402,0.261l0.403,0.26l0.405,0.259l0.405,0.257l0.407,0.255l0.407,0.254l0.409,0.252l0.41,0.25l0.411,0.249l0.412,0.248l0.415,0.246l0.414,0.244l0.416,0.243l0.417,0.241l0.417,0.239l0.419,0.238l0.42,0.237l0.42,0.234l0.423,0.233l0.423,0.231l0.424,0.23l0.425,0.228l0.427,0.227l0.427,0.224l0.428,0.223l0.43,0.222l0.43,0.219l0.432,0.218l0.433,0.217l0.433,0.214l0.434,0.213l0.436,0.212l0.437,0.209l0.437,0.208l0.438,0.207l0.44,0.204l0.442,0.203l0.44,0.201l0.443,0.2l0.443,0.197l0.444,0.196l0.447,0.195l0.446,0.192l0.447,0.191l0.448,0.189l0.449,0.187l0.45,0.185l0.451,0.184l0.453,0.183l0.452,0.179l0.454,0.179l0.455,0.177l0.456,0.175l0.456,0.173l0.457,0.171l0.459,0.17l0.459,0.167l0.46,0.166l0.462,0.165l0.461,0.162l0.464,0.16l0.464,0.159l0.464,0.157l0.466,0.155l0.465,0.153l0.467,0.151l0.469,0.15l0.469,0.148l0.47,0.146l0.47,0.144l0.472,0.142l0.471,0.14l0.474,0.138l0.474,0.137l0.474,0.135l0.476,0.132l0.477,0.132l0.477,0.128l0.477,0.127l0.479,0.125l0.48,0.124l0.479,0.121l0.482,0.12l0.483,0.118l0.482,0.115l0.483,0.114l0.484,0.111l0.485,0.11l0.486,0.108l0.487,0.106l0.487,0.104l0.488,0.103l0.488,0.1l0.489,0.098l0.491,0.096l0.492,0.094l0.49,0.093l0.493,0.09l0.493,0.088l0.494,0.087l0.494,0.084l0.496,0.082l0.496,0.081l0.496,0.078l0.497,0.076l0.498,0.075l0.5,0.072l0.498,0.07l0.5,0.069l0.501,0.066l0.501,0.064l0.502,0.062l0.504,0.06l0.503,0.058l0.503,0.056l0.505,0.054l0.505,0.052l0.506,0.05l0.507,0.048l0.506,0.045l0.509,0.044l0.508,0.042l0.509,0.039l0.509,0.038l0.511,0.035l0.511,0.033l0.51,0.031l0.512,0.029l0.514,0.027l0.513,0.024l0.513,0.023l0.514,0.02l0.516,0.019l0.515,0.016l0.517,0.014l0.516,0.012l0.517,0.01l0.518,0.007l0.517,0.006l0.52,0.003l0.519,0.001l0.519,-0.001l0.52,-0.003l0.518,-0.006l0.518,-0.007l0.516,-0.01l0.517,-0.012l0.516,-0.014l0.516,-0.016l0.515,-0.019l0.514,-0.02l0.513,-0.023l0.514,-0.024l0.513,-0.027l0.512,-0.029l0.511,-0.031l0.511,-0.033l0.51,-0.035l0.51,-0.038l0.508,-0.039l0.508,-0.042l0.509,-0.044l0.507,-0.045l0.506,-0.048l0.506,-0.05l0.505,-0.052l0.505,-0.054l0.504,-0.056l0.502,-0.058l0.505,-0.06l0.502,-0.062l0.5,-0.064l0.501,-0.066l0.5,-0.069l0.499,-0.07l0.499,-0.072l0.498,-0.075l0.498,-0.076l0.496,-0.078l0.496,-0.081l0.495,-0.082l0.494,-0.084l0.494,-0.087l0.493,-0.088l0.494,-0.091l0.489,-0.091l0.492,-0.095l0.491,-0.096l0.489,-0.098l0.488,-0.1l0.488,-0.103l0.488,-0.104l0.486,-0.106l0.486,-0.108l0.485,-0.11l0.485,-0.111l0.482,-0.114l0.483,-0.116l0.482,-0.117l0.482,-0.12l0.479,-0.121l0.48,-0.123l0.479,-0.126l0.478,-0.127l0.477,-0.129l0.476,-0.131l0.476,-0.132l0.474,-0.135l0.475,-0.137l0.473,-0.138l0.472,-0.14l0.471,-0.142l0.471,-0.144l0.47,-0.146l0.468,-0.148l0.469,-0.15l0.467,-0.151l0.466,-0.153l0.466,-0.155l0.464,-0.157l0.463,-0.159l0.464,-0.16l0.462,-0.163l0.461,-0.164l0.461,-0.166l0.458,-0.167l0.458,-0.17l0.458,-0.171l0.457,-0.174l0.456,-0.174l0.455,-0.177l0.453,-0.178l0.452,-0.18l0.453,-0.183l0.452,-0.184l0.45,-0.185l0.449,-0.187l0.447,-0.189l0.448,-0.191l0.447,-0.193l0.445,-0.194l0.444,-0.196l0.444,-0.197l0.443,-0.2l0.441,-0.201l0.44,-0.203l0.439,-0.204l0.44,-0.207l0.438,-0.208l0.435,-0.209l0.436,-0.212l0.434,-0.212l0.434,-0.216l0.433,-0.216l0.43,-0.218l0.431,-0.219l0.43,-0.222l0.429,-0.224l0.426,-0.223l0.426,-0.227l0.426,-0.228l0.425,-0.23l0.423,-0.231l0.421,-0.233l0.422,-0.235l0.42,-0.236l0.417,-0.237l0.419,-0.24l0.417,-0.241l0.415,-0.243l0.414,-0.244l0.414,-0.246l0.413,-0.248l0.411,-0.249l0.41,-0.25l0.409,-0.252l0.407,-0.254l0.408,-0.256l0.405,-0.256l0.404,-0.259l0.404,-0.26l0.401,-0.261l0.403,-0.264l0.399,-0.264l0.399,-0.267l0.397,-0.267l0.396,-0.27l0.396,-0.271l0.393,-0.272l0.393,-0.274l0.392,-0.275l0.391,-0.278l0.389,-0.277l0.388,-0.281l0.386,-0.28l0.386,-0.283l0.386,-0.286l0.382,-0.285l0.382,-0.287l0.382,-0.29l0.379,-0.29l0.378,-0.291l0.376,-0.293l0.377,-0.295l0.375,-0.296l0.372,-0.297l0.373,-0.3l0.371,-0.301l0.369,-0.301l0.368,-0.303l0.368,-0.305l0.365,-0.306l0.365,-0.308l0.364,-0.31l0.361,-0.31l0.36,-0.311l0.359,-0.313l0.358,-0.315l0.357,-0.316l0.355,-0.318l0.355,-0.319l0.353,-0.32l0.35,-0.321l0.351,-0.323l0.348,-0.324l0.347,-0.325l0.346,-0.328l0.345,-0.328l0.343,-0.329l0.342,-0.331l0.341,-0.333l0.339,-0.334l0.337,-0.334l0.336,-0.336l0.336,-0.339l0.334,-0.339l0.332,-0.34l0.331,-0.342l0.329,-0.341l0.328,-0.345l0.327,-0.346l0.325,-0.346l0.324,-0.349l0.322,-0.348l0.32,-0.351l0.321,-0.353l0.317,-0.352l0.317,-0.354l0.315,-0.356l0.315,-0.357l0.311,-0.357l0.31,-0.359l0.31,-0.362l0.309,-0.362l0.305,-0.363l0.305,-0.364l0.304,-0.365l0.301,-0.366l0.301,-0.369l0.3,-0.37l0.296,-0.369l0.295,-0.371l0.295,-0.373l0.294,-0.375l0.291,-0.375l0.29,-0.375l0.287,-0.377l0.288,-0.38l0.285,-0.38l0.283,-0.38l0.283,-0.383l0.281,-0.383l0.278,-0.383l0.278,-0.387l0.276,-0.386l0.274,-0.388l0.09,-0.128l-196.194,0Z" style="fill:#8ccecc;"/></g></svg>