<?xml version="1.0" encoding="UTF-8" standalone="no"?><!DOCTYPE svg PUBLIC "-//W3C//DTD SVG 1.1//EN" "http://www.w3.org/Graphics/SVG/1.1/DTD/svg11.dtd"><svg width="100%" height="100%" viewBox="0 0 139 113" version="1.1" xmlns="http://www.w3.org/2000/svg" xmlns:xlink="http://www.w3.org/1999/xlink" xml:space="preserve" style="fill-rule:evenodd;clip-rule:evenodd;stroke-linejoin:round;stroke-miterlimit:1.41421;"><ellipse cx="72.982" cy="55.912" rx="57.102" ry="55.912" style="fill:#454545;"/><path d="M27.039,25.741c-1.559,-7.204 -4.677,-19.862 -6.765,-21.052c-2.088,-1.191 -3.301,13.412 -5.762,13.907c-2.461,0.495 -7.503,-14.008 -9.003,-10.938c-1.501,3.071 0.918,24.468 0,29.362c-0.339,1.806 -5.509,-1.839 -5.509,0c0,2.777 2.583,11.598 5.509,16.664c3.379,5.851 10.709,19.236 14.765,18.444c4.056,-0.792 8.444,-15.464 9.571,-23.195c1.124,-7.706 -1.211,-15.818 -2.806,-23.192Z" style="fill:#454545;"/><path d="M127.224,39.806l11.148,10.519l-11.148,1.852l0,-12.371Z" style="fill:#454545;"/><ellipse cx="103.312" cy="26.77" rx="4.115" ry="4.242" style="fill:#fff7f7;"/><path d="M22.879,83.686c9.878,16.97 28.526,28.422 49.884,28.422c21.358,0 40.005,-11.452 49.883,-28.422l-99.767,0Z" style="fill:#8ccecc;"/><path d="M122.529,83.885l-0.116,0.198l-0.118,0.198l-0.119,0.197l-0.119,0.196l-0.12,0.196l-0.121,0.196l-0.122,0.195l-0.122,0.194l-0.124,0.194l-0.124,0.194l-0.125,0.193l-0.125,0.192l-0.127,0.192l-0.127,0.191l-0.128,0.191l-0.128,0.19l-0.13,0.19l-0.13,0.189l-0.131,0.189l-0.132,0.188l-0.132,0.187l-0.134,0.187l-0.134,0.187l-0.134,0.186l-0.136,0.185l-0.136,0.185l-0.137,0.184l-0.138,0.183l-0.138,0.183l-0.14,0.183l-0.14,0.182l-0.14,0.181l-0.142,0.181l-0.142,0.18l-0.143,0.18l-0.143,0.179l-0.145,0.178l-0.145,0.178l-0.146,0.177l-0.146,0.177l-0.147,0.176l-0.148,0.175l-0.149,0.175l-0.149,0.175l-0.15,0.173l-0.151,0.173l-0.151,0.173l-0.153,0.172l-0.152,0.171l-0.154,0.171l-0.154,0.17l-0.155,0.169l-0.156,0.169l-0.156,0.168l-0.157,0.168l-0.158,0.166l-0.158,0.167l-0.159,0.165l-0.16,0.165l-0.16,0.165l-0.161,0.164l-0.162,0.163l-0.162,0.162l-0.163,0.162l-0.164,0.161l-0.164,0.161l-0.165,0.16l-0.166,0.159l-0.166,0.159l-0.167,0.158l-0.168,0.157l-0.168,0.157l-0.169,0.156l-0.169,0.155l-0.171,0.155l-0.171,0.154l-0.171,0.153l-0.172,0.153l-0.173,0.152l-0.173,0.151l-0.174,0.151l-0.175,0.15l-0.175,0.149l-0.176,0.149l-0.176,0.148l-0.177,0.147l-0.178,0.146l-0.179,0.146l-0.178,0.145l-0.18,0.145l-0.18,0.143l-0.181,0.144l-0.181,0.142l-0.182,0.142l-0.183,0.14l-0.183,0.141l-0.184,0.139l-0.184,0.139l-0.185,0.138l-0.185,0.138l-0.186,0.136l-0.187,0.136l-0.187,0.135l-0.188,0.135l-0.189,0.134l-0.189,0.133l-0.189,0.132l-0.19,0.131l-0.191,0.131l-0.191,0.13l-0.192,0.13l-0.192,0.128l-0.193,0.128l-0.194,0.127l-0.194,0.127l-0.194,0.125l-0.196,0.125l-0.195,0.124l-0.196,0.124l-0.197,0.122l-0.198,0.122l-0.197,0.121l-0.199,0.12l-0.199,0.12l-0.199,0.119l-0.2,0.118l-0.201,0.117l-0.201,0.116l-0.201,0.116l-0.202,0.115l-0.203,0.114l-0.203,0.113l-0.204,0.113l-0.204,0.111l-0.204,0.111l-0.206,0.11l-0.205,0.11l-0.206,0.108l-0.207,0.108l-0.207,0.107l-0.208,0.106l-0.208,0.105l-0.209,0.105l-0.209,0.104l-0.21,0.103l-0.21,0.102l-0.21,0.101l-0.211,0.1l-0.212,0.1l-0.212,0.099l-0.213,0.098l-0.213,0.097l-0.213,0.096l-0.214,0.096l-0.214,0.094l-0.215,0.094l-0.216,0.093l-0.215,0.092l-0.217,0.092l-0.216,0.09l-0.218,0.09l-0.217,0.088l-0.218,0.088l-0.219,0.087l-0.219,0.086l-0.219,0.086l-0.22,0.084l-0.22,0.084l-0.221,0.083l-0.221,0.082l-0.222,0.081l-0.222,0.08l-0.222,0.079l-0.223,0.078l-0.223,0.078l-0.224,0.077l-0.224,0.075l-0.225,0.075l-0.225,0.074l-0.225,0.073l-0.226,0.073l-0.226,0.071l-0.227,0.07l-0.227,0.07l-0.227,0.068l-0.228,0.068l-0.228,0.067l-0.229,0.066l-0.229,0.065l-0.229,0.064l-0.23,0.063l-0.23,0.063l-0.231,0.061l-0.23,0.06l-0.232,0.06l-0.231,0.059l-0.233,0.057l-0.232,0.057l-0.233,0.056l-0.233,0.055l-0.233,0.054l-0.234,0.053l-0.235,0.052l-0.234,0.051l-0.235,0.05l-0.236,0.05l-0.235,0.048l-0.236,0.048l-0.237,0.046l-0.237,0.046l-0.237,0.044l-0.237,0.044l-0.238,0.042l-0.238,0.042l-0.239,0.041l-0.238,0.039l-0.239,0.039l-0.24,0.038l-0.24,0.037l-0.24,0.036l-0.24,0.035l-0.241,0.034l-0.241,0.033l-0.241,0.032l-0.242,0.031l-0.242,0.03l-0.243,0.029l-0.242,0.028l-0.243,0.027l-0.243,0.026l-0.244,0.025l-0.244,0.024l-0.244,0.023l-0.244,0.022l-0.245,0.021l-0.245,0.02l-0.246,0.019l-0.245,0.018l-0.246,0.017l-0.246,0.016l-0.247,0.015l-0.246,0.014l-0.247,0.013l-0.248,0.012l-0.247,0.011l-0.248,0.01l-0.248,0.008l-0.249,0.008l-0.248,0.007l-0.249,0.006l-0.249,0.004l-0.25,0.004l-0.249,0.003l-0.25,0.001l-0.25,0.001l-0.251,-0.001l-0.25,-0.001l-0.249,-0.003l-0.25,-0.004l-0.249,-0.004l-0.249,-0.006l-0.248,-0.007l-0.249,-0.008l-0.248,-0.008l-0.248,-0.01l-0.247,-0.011l-0.247,-0.012l-0.247,-0.013l-0.247,-0.014l-0.247,-0.015l-0.246,-0.016l-0.246,-0.017l-0.245,-0.018l-0.246,-0.019l-0.245,-0.02l-0.244,-0.021l-0.245,-0.022l-0.244,-0.023l-0.244,-0.024l-0.244,-0.025l-0.243,-0.026l-0.243,-0.027l-0.242,-0.028l-0.243,-0.029l-0.242,-0.03l-0.241,-0.031l-0.242,-0.032l-0.241,-0.033l-0.241,-0.034l-0.24,-0.035l-0.24,-0.036l-0.24,-0.037l-0.239,-0.038l-0.24,-0.039l-0.238,-0.039l-0.239,-0.041l-0.238,-0.042l-0.238,-0.042l-0.237,-0.044l-0.237,-0.044l-0.237,-0.046l-0.236,-0.046l-0.237,-0.048l-0.235,-0.048l-0.236,-0.05l-0.235,-0.05l-0.234,-0.051l-0.235,-0.052l-0.233,-0.053l-0.234,-0.054l-0.233,-0.055l-0.233,-0.056l-0.232,-0.057l-0.232,-0.057l-0.232,-0.059l-0.231,-0.06l-0.231,-0.06l-0.231,-0.061l-0.23,-0.063l-0.23,-0.063l-0.229,-0.064l-0.229,-0.065l-0.229,-0.066l-0.228,-0.067l-0.228,-0.068l-0.227,-0.068l-0.227,-0.07l-0.227,-0.07l-0.226,-0.071l-0.226,-0.073l-0.225,-0.073l-0.225,-0.074l-0.225,-0.075l-0.224,-0.075l-0.224,-0.077l-0.223,-0.078l-0.223,-0.078l-0.222,-0.079l-0.222,-0.08l-0.222,-0.081l-0.221,-0.082l-0.221,-0.083l-0.22,-0.084l-0.22,-0.084l-0.219,-0.086l-0.219,-0.086l-0.219,-0.087l-0.218,-0.088l-0.217,-0.088l-0.218,-0.09l-0.216,-0.09l-0.217,-0.092l-0.215,-0.092l-0.216,-0.093l-0.215,-0.094l-0.214,-0.094l-0.214,-0.096l-0.213,-0.096l-0.213,-0.097l-0.213,-0.098l-0.212,-0.099l-0.212,-0.1l-0.211,-0.1l-0.21,-0.101l-0.21,-0.102l-0.21,-0.103l-0.209,-0.104l-0.209,-0.105l-0.208,-0.105l-0.208,-0.106l-0.207,-0.107l-0.206,-0.108l-0.207,-0.108l-0.205,-0.11l-0.205,-0.11l-0.205,-0.111l-0.204,-0.111l-0.204,-0.113l-0.203,-0.113l-0.203,-0.114l-0.202,-0.115l-0.201,-0.116l-0.201,-0.116l-0.201,-0.117l-0.2,-0.118l-0.199,-0.119l-0.199,-0.12l-0.199,-0.12l-0.197,-0.121l-0.198,-0.122l-0.197,-0.122l-0.196,-0.124l-0.195,-0.124l-0.196,-0.125l-0.194,-0.125l-0.194,-0.127l-0.194,-0.127l-0.193,-0.128l-0.192,-0.128l-0.192,-0.13l-0.191,-0.13l-0.191,-0.131l-0.19,-0.131l-0.189,-0.132l-0.189,-0.133l-0.189,-0.134l-0.188,-0.135l-0.187,-0.135l-0.186,-0.136l-0.187,-0.136l-0.185,-0.138l-0.185,-0.138l-0.184,-0.139l-0.184,-0.139l-0.183,-0.141l-0.183,-0.14l-0.182,-0.142l-0.181,-0.142l-0.181,-0.144l-0.18,-0.143l-0.179,-0.145l-0.179,-0.145l-0.179,-0.146l-0.177,-0.146l-0.178,-0.147l-0.176,-0.148l-0.176,-0.149l-0.175,-0.149l-0.175,-0.15l-0.174,-0.151l-0.173,-0.151l-0.173,-0.152l-0.172,-0.153l-0.171,-0.153l-0.171,-0.154l-0.17,-0.155l-0.17,-0.155l-0.169,-0.156l-0.168,-0.157l-0.168,-0.157l-0.167,-0.158l-0.166,-0.159l-0.166,-0.159l-0.165,-0.16l-0.164,-0.161l-0.164,-0.161l-0.163,-0.162l-0.162,-0.162l-0.162,-0.163l-0.161,-0.164l-0.16,-0.165l-0.16,-0.165l-0.159,-0.165l-0.158,-0.167l-0.158,-0.166l-0.157,-0.168l-0.156,-0.168l-0.156,-0.169l-0.155,-0.169l-0.154,-0.17l-0.154,-0.171l-0.152,-0.171l-0.153,-0.172l-0.151,-0.173l-0.151,-0.173l-0.15,-0.173l-0.149,-0.175l-0.149,-0.175l-0.148,-0.175l-0.147,-0.176l-0.146,-0.177l-0.146,-0.177l-0.145,-0.178l-0.145,-0.178l-0.143,-0.179l-0.143,-0.18l-0.142,-0.18l-0.142,-0.181l-0.14,-0.181l-0.14,-0.182l-0.14,-0.183l-0.138,-0.183l-0.138,-0.183l-0.137,-0.184l-0.136,-0.185l-0.136,-0.185l-0.134,-0.186l-0.134,-0.187l-0.134,-0.187l-0.132,-0.187l-0.132,-0.188l-0.131,-0.189l-0.13,-0.189l-0.13,-0.19l-0.128,-0.19l-0.128,-0.191l-0.127,-0.191l-0.127,-0.192l-0.125,-0.192l-0.125,-0.193l-0.124,-0.194l-0.124,-0.194l-0.122,-0.194l-0.122,-0.195l-0.121,-0.196l-0.12,-0.196l-0.119,-0.196l-0.119,-0.197l-0.117,-0.198l-0.117,-0.198l-0.117,-0.199l99.767,0l-0.117,0.199Zm-88.894,5.301l0.085,0.096l0.141,0.156l0.138,0.153l0.141,0.154l0.141,0.153l0.142,0.153l0.141,0.15l0.139,0.147l0.146,0.153l0.144,0.151l0.143,0.148l0.146,0.149l0.144,0.147l0.145,0.146l0.15,0.15l0.148,0.147l0.147,0.144l0.149,0.146l0.15,0.145l0.146,0.141l0.151,0.144l0.154,0.146l0.148,0.139l0.153,0.142l0.156,0.144l0.151,0.139l0.153,0.139l0.155,0.14l0.154,0.137l0.156,0.139l0.157,0.138l0.156,0.136l0.158,0.137l0.157,0.134l0.159,0.135l0.16,0.136l0.16,0.134l0.161,0.134l0.157,0.129l0.162,0.133l0.163,0.132l0.161,0.129l0.165,0.132l0.165,0.131l0.161,0.126l0.165,0.128l0.166,0.128l0.166,0.128l0.167,0.127l0.165,0.124l0.166,0.124l0.169,0.125l0.169,0.124l0.167,0.122l0.17,0.123l0.171,0.122l0.169,0.12l0.172,0.121l0.172,0.12l0.168,0.117l0.176,0.12l0.176,0.12l0.169,0.114l0.173,0.116l0.176,0.116l0.175,0.115l0.176,0.115l0.178,0.114l0.175,0.113l0.175,0.111l0.178,0.111l0.179,0.112l0.178,0.11l0.179,0.109l0.183,0.111l0.176,0.106l0.181,0.108l0.182,0.107l0.18,0.105l0.182,0.106l0.184,0.105l0.183,0.105l0.182,0.102l0.182,0.102l0.185,0.102l0.185,0.101l0.185,0.1l0.188,0.101l0.185,0.098l0.185,0.098l0.19,0.099l0.185,0.095l0.187,0.096l0.189,0.096l0.19,0.095l0.188,0.093l0.188,0.092l0.192,0.094l0.192,0.092l0.19,0.09l0.192,0.091l0.19,0.088l0.194,0.089l0.193,0.089l0.191,0.086l0.193,0.086l0.194,0.085l0.198,0.087l0.194,0.084l0.192,0.082l0.197,0.083l0.194,0.081l0.198,0.082l0.2,0.081l0.195,0.079l0.199,0.079l0.196,0.077l0.197,0.077l0.204,0.078l0.197,0.075l0.199,0.075l0.202,0.075l0.199,0.072l0.2,0.073l0.2,0.071l0.202,0.071l0.205,0.071l0.202,0.069l0.201,0.068l0.202,0.067l0.206,0.068l0.206,0.067l0.201,0.064l0.203,0.064l0.207,0.065l0.205,0.062l0.208,0.063l0.206,0.061l0.206,0.061l0.207,0.06l0.206,0.058l0.21,0.059l0.204,0.056l0.207,0.056l0.212,0.056l0.21,0.055l0.208,0.054l0.209,0.053l0.211,0.052l0.213,0.052l0.21,0.051l0.208,0.049l0.211,0.048l0.212,0.048l0.212,0.048l0.216,0.047l0.213,0.045l0.209,0.044l0.214,0.044l0.214,0.043l0.214,0.042l0.215,0.041l0.215,0.041l0.212,0.039l0.216,0.038l0.219,0.039l0.214,0.036l0.217,0.036l0.216,0.036l0.215,0.033l0.218,0.034l0.218,0.032l0.219,0.032l0.219,0.031l0.216,0.03l0.22,0.029l0.22,0.028l0.216,0.027l0.221,0.026l0.222,0.026l0.217,0.024l0.222,0.024l0.222,0.023l0.219,0.021l0.219,0.021l0.223,0.02l0.224,0.019l0.22,0.018l0.224,0.018l0.224,0.016l0.222,0.016l0.221,0.014l0.226,0.014l0.222,0.012l0.222,0.012l0.227,0.011l0.226,0.01l0.224,0.009l0.223,0.007l0.228,0.008l0.228,0.006l0.224,0.005l0.222,0.004l0.229,0.003l0.229,0.003l0.222,0.001l0.23,0.001l0.229,-0.001l0.223,-0.001l0.229,-0.003l0.228,-0.003l0.222,-0.004l0.224,-0.005l0.228,-0.006l0.228,-0.008l0.224,-0.007l0.223,-0.009l0.227,-0.01l0.226,-0.011l0.222,-0.012l0.223,-0.012l0.225,-0.014l0.222,-0.014l0.221,-0.016l0.224,-0.016l0.224,-0.018l0.22,-0.018l0.224,-0.019l0.223,-0.02l0.219,-0.021l0.219,-0.021l0.222,-0.023l0.222,-0.024l0.218,-0.024l0.221,-0.026l0.22,-0.026l0.218,-0.027l0.22,-0.028l0.219,-0.029l0.216,-0.03l0.22,-0.031l0.218,-0.032l0.218,-0.032l0.218,-0.034l0.214,-0.033l0.218,-0.036l0.217,-0.036l0.213,-0.036l0.219,-0.039l0.216,-0.038l0.212,-0.039l0.215,-0.041l0.215,-0.041l0.214,-0.042l0.214,-0.043l0.214,-0.044l0.21,-0.044l0.213,-0.046l0.215,-0.046l0.212,-0.048l0.212,-0.048l0.211,-0.048l0.208,-0.049l0.211,-0.051l0.213,-0.052l0.209,-0.052l0.21,-0.053l0.209,-0.054l0.209,-0.055l0.211,-0.056l0.208,-0.056l0.204,-0.056l0.211,-0.059l0.207,-0.059l0.205,-0.059l0.207,-0.061l0.205,-0.061l0.207,-0.062l0.206,-0.063l0.208,-0.065l0.203,-0.064l0.2,-0.064l0.206,-0.067l0.206,-0.068l0.202,-0.067l0.201,-0.068l0.202,-0.069l0.204,-0.071l0.204,-0.072l0.2,-0.071l0.198,-0.071l0.2,-0.073l0.203,-0.076l0.197,-0.073l0.197,-0.076l0.205,-0.078l0.197,-0.077l0.196,-0.077l0.2,-0.08l0.196,-0.078l0.197,-0.081l0.197,-0.081l0.196,-0.082l0.197,-0.083l0.193,-0.082l0.193,-0.084l0.198,-0.087l0.195,-0.086l0.192,-0.085l0.191,-0.086l0.194,-0.089l0.193,-0.089l0.188,-0.087l0.193,-0.091l0.193,-0.092l0.191,-0.092l0.19,-0.092l0.187,-0.092l0.192,-0.095l0.188,-0.094l0.188,-0.095l0.19,-0.097l0.185,-0.096l0.186,-0.097l0.187,-0.099l0.187,-0.099l0.185,-0.099l0.186,-0.101l0.185,-0.101l0.185,-0.102l0.184,-0.103l0.18,-0.101l0.182,-0.104l0.185,-0.106l0.183,-0.106l0.179,-0.105l0.182,-0.107l0.179,-0.107l0.18,-0.108l0.181,-0.11l0.178,-0.108l0.179,-0.111l0.181,-0.113l0.176,-0.11l0.173,-0.11l0.177,-0.114l0.179,-0.115l0.175,-0.114l0.173,-0.114l0.178,-0.117l0.173,-0.116l0.171,-0.115l0.174,-0.119l0.174,-0.119l0.17,-0.118l0.172,-0.12l0.174,-0.122l0.167,-0.119l0.171,-0.122l0.17,-0.123l0.165,-0.12l0.171,-0.126l0.169,-0.125l0.168,-0.125l0.165,-0.125l0.163,-0.124l0.168,-0.129l0.168,-0.129l0.162,-0.126l0.162,-0.127l0.167,-0.132l0.163,-0.131l0.161,-0.129l0.163,-0.132l0.162,-0.133l0.157,-0.129l0.161,-0.134l0.161,-0.134l0.159,-0.136l0.16,-0.135l0.154,-0.133l0.158,-0.137l0.158,-0.137l0.157,-0.138l0.156,-0.139l0.154,-0.137l0.155,-0.14l0.154,-0.141l0.153,-0.139l0.151,-0.14l0.153,-0.142l0.152,-0.143l0.152,-0.144l0.151,-0.144l0.148,-0.142l0.148,-0.144l0.15,-0.146l0.146,-0.144l0.148,-0.147l0.148,-0.148l0.147,-0.148l0.144,-0.147l0.144,-0.147l0.147,-0.152l0.142,-0.149l0.144,-0.151l0.143,-0.151l0.141,-0.15l0.14,-0.151l0.141,-0.153l0.141,-0.154l0.138,-0.153l0.139,-0.154l0.087,-0.098l-78.255,0Z" style="fill:#8ccecc;"/></svg>