<?xml version="1.0" encoding="UTF-8" standalone="no"?><!DOCTYPE svg PUBLIC "-//W3C//DTD SVG 1.1//EN" "http://www.w3.org/Graphics/SVG/1.1/DTD/svg11.dtd"><svg width="100%" height="100%" viewBox="0 0 80 259" version="1.1" xmlns="http://www.w3.org/2000/svg" xmlns:xlink="http://www.w3.org/1999/xlink" xml:space="preserve" style="fill-rule:evenodd;clip-rule:evenodd;stroke-linecap:round;stroke-linejoin:round;stroke-miterlimit:1.5;"><g><circle cx="39.683" cy="130.01" r="35.433" style="fill:#786964;stroke:#554946;stroke-width:8.5px;"/><rect x="34.439" y="60.735" width="11.415" height="164.611" style="fill:#cd543d;stroke:#554946;stroke-width:9px;"/><path d="M40.343,4.5c0,0 -21.205,25.608 -21.205,36.583c0,11.703 9.502,21.205 21.205,21.205c11.703,0 21.205,-9.502 21.205,-21.205c0,-10.975 -21.205,-36.583 -21.205,-36.583Z" style="fill:#cd543d;stroke:#554946;stroke-width:9px;"/><path d="M72.281,253.715c0,-20.405 -14.162,-36.971 -31.605,-36.971c-17.443,0 -31.604,16.566 -31.604,36.971c7.374,-6.121 18.997,-11.091 31.604,-11.091c12.608,0 24.231,4.97 31.605,11.091Z" style="fill:#cd543d;stroke:#554946;stroke-width:9px;"/><ellipse cx="40.264" cy="129.579" rx="19.828" ry="19.843" style="fill:#cd543d;stroke:#554946;stroke-width:9px;"/><path d="M39.801,220.83c0.244,-0.006 0.49,-0.009 0.735,-0.009c14.654,0 26.551,11.242 26.551,25.089c-6.195,-4.154 -15.959,-7.527 -26.551,-7.527c-0.245,0 -0.49,0.002 -0.735,0.006l0,-17.559Z" style="fill:#eb573b;"/><path d="M39.801,114.277c0.123,-0.003 0.246,-0.004 0.37,-0.004c8.745,0 15.844,6.75 15.844,15.064c0,8.313 -7.099,15.063 -15.844,15.063c-0.124,0 -0.247,-0.001 -0.37,-0.004l0,-30.119Z" style="fill:#eb573b;"/><path d="M40.206,11.836c0.262,-0.347 0.407,-0.534 0.407,-0.534c0,0 15.916,20.609 15.916,29.441c0,9.419 -7.132,17.065 -15.916,17.065c-0.136,0 -0.272,-0.001 -0.407,-0.005l0,-45.967Z" style="fill:#eb573b;"/></g></svg>