<?xml version="1.0" encoding="UTF-8" standalone="no"?><!DOCTYPE svg PUBLIC "-//W3C//DTD SVG 1.1//EN" "http://www.w3.org/Graphics/SVG/1.1/DTD/svg11.dtd"><svg width="100%" height="100%" viewBox="0 0 81 261" version="1.1" xmlns="http://www.w3.org/2000/svg" xmlns:xlink="http://www.w3.org/1999/xlink" xml:space="preserve" style="fill-rule:evenodd;clip-rule:evenodd;stroke-linecap:round;stroke-linejoin:round;stroke-miterlimit:1.5;"><circle cx="39.683" cy="130.142" r="35.433" style="fill:#786964;stroke:#554946;stroke-width:8.5px;"/><rect x="35.424" y="60.735" width="11.415" height="164.611" style="fill:#cd543d;stroke:#554946;stroke-width:9px;"/><path d="M40.608,4.5c0,0 -21.205,25.608 -21.205,36.583c0,11.703 9.501,21.205 21.205,21.205c11.703,0 21.204,-9.502 21.204,-21.205c0,-10.975 -21.204,-36.583 -21.204,-36.583Z" style="fill:#cd543d;stroke:#554946;stroke-width:9px;"/><ellipse cx="40.024" cy="130.191" rx="19.828" ry="19.843" style="fill:#cd543d;stroke:#554946;stroke-width:9px;"/><path d="M41.191,11.836c0.262,-0.347 0.407,-0.534 0.407,-0.534c0,0 15.916,20.609 15.916,29.441c0,9.419 -7.132,17.065 -15.916,17.065c-0.136,0 -0.272,-0.001 -0.407,-0.005l0,-45.967Z" style="fill:#eb573b;"/><path d="M6.528,255.883c-0.947,-3.51 -1.456,-7.224 -1.456,-11.068c0,-21.537 15.96,-39.023 35.617,-39.023c19.658,0 35.618,17.486 35.618,39.023c0,4.052 -0.565,7.96 -1.613,11.636c-7.794,-9.566 -20.269,-15.768 -34.319,-15.768c-13.77,0 -26.028,5.957 -33.847,15.2Z" style="fill:#cd543d;stroke:#554946;stroke-width:8.5px;"/><path d="M41.401,210.181c17.73,0.313 32.018,13.322 32.018,29.302c0,3.043 -0.519,5.978 -1.48,8.739c-6.974,-7.009 -18.036,-11.614 -30.538,-11.834l0,-26.207Z" style="fill:#eb573b;"/></svg>