<?xml version="1.0" encoding="UTF-8" standalone="no"?><!DOCTYPE svg PUBLIC "-//W3C//DTD SVG 1.1//EN" "http://www.w3.org/Graphics/SVG/1.1/DTD/svg11.dtd"><svg width="100%" height="100%" viewBox="0 0 470 408" version="1.1" xmlns="http://www.w3.org/2000/svg" xmlns:xlink="http://www.w3.org/1999/xlink" xml:space="preserve" style="fill-rule:evenodd;clip-rule:evenodd;stroke-linecap:round;stroke-linejoin:round;stroke-miterlimit:1.5;"><g><path d="M376.18,341.342c-36.223,38.045 -87.298,61.763 -143.856,61.763c-109.748,0 -198.849,-89.305 -198.849,-199.303c0,-29.479 11.657,-74.55 11.657,-74.55c-28.941,-20.331 -58.115,-53.807 -27.794,-81.965c17.26,-16.029 47.173,-2.697 78.453,11.671c35.629,-33.752 83.688,-54.458 136.533,-54.458c109.748,0 198.849,89.304 198.849,199.302c0,27.918 -6.571,66.22 -6.571,66.22c28.942,20.331 58.116,53.807 27.794,81.965c-16.848,15.646 -45.753,3.317 -76.216,-10.645Zm51.289,-35.037c7.615,0 13.797,6.025 13.797,13.445c0,7.421 -6.182,13.446 -13.797,13.446c-7.615,0 -13.797,-6.025 -13.797,-13.446c0,-7.42 6.182,-13.445 13.797,-13.445Zm-381.13,-240.595c7.615,0 13.797,6.025 13.797,13.445c0,7.421 -6.182,13.446 -13.797,13.446c-7.615,0 -13.797,-6.025 -13.797,-13.446c0,-7.42 6.182,-13.445 13.797,-13.445Z" style="fill:#eb573b;stroke:#554946;stroke-width:9px;"/><circle cx="233.271" cy="203.973" r="155.906" style="fill:#f9f8d2;stroke:#554946;stroke-width:9px;"/><path d="M191.047,57.911c13.128,-3.693 26.971,-5.669 41.273,-5.669c84.057,0 152.3,68.244 152.3,152.3c0,77.308 -57.725,141.24 -132.386,151.007c64.03,-18.011 111.026,-76.876 111.026,-146.631c0,-84.057 -68.243,-152.3 -152.3,-152.3c-6.748,0 -13.395,0.44 -19.913,1.293Z" style="fill:#c7c3a8;"/><circle cx="233.836" cy="378.885" r="9.921" style="fill:#554946;"/><circle cx="233.836" cy="24.576" r="9.921" style="fill:#554946;"/><path d="M112.909,320.94c3.872,3.872 3.872,10.159 0,14.031c-3.872,3.872 -10.158,3.872 -14.03,0c-3.872,-3.872 -3.872,-10.159 0,-14.031c3.872,-3.872 10.158,-3.872 14.03,0Z" style="fill:#554946;"/><path d="M363.444,70.406c3.872,3.872 3.872,10.159 0,14.031c-3.872,3.872 -10.159,3.872 -14.031,0c-3.872,-3.872 -3.872,-10.159 0,-14.031c3.872,-3.872 10.159,-3.872 14.031,0Z" style="fill:#554946;"/><path d="M351.212,323.395c3.872,-3.872 10.159,-3.872 14.031,0c3.872,3.872 3.872,10.159 0,14.031c-3.872,3.872 -10.159,3.872 -14.031,0c-3.871,-3.872 -3.871,-10.159 0,-14.031Z" style="fill:#554946;"/><path d="M100.678,72.861c3.872,-3.872 10.159,-3.872 14.031,0c3.872,3.872 3.872,10.159 0,14.031c-3.872,3.872 -10.159,3.872 -14.031,0c-3.872,-3.872 -3.872,-10.159 0,-14.031Z" style="fill:#554946;"/><path d="M66.603,201.73c0,5.476 -4.446,9.921 -9.921,9.921c-5.476,0 -9.922,-4.445 -9.922,-9.921c0,-5.476 4.446,-9.921 9.922,-9.921c5.475,0 9.921,4.445 9.921,9.921Z" style="fill:#554946;"/><path d="M420.912,201.73c0,5.476 -4.446,9.921 -9.921,9.921c-5.476,0 -9.922,-4.445 -9.922,-9.921c0,-5.476 4.446,-9.921 9.922,-9.921c5.475,0 9.921,4.445 9.921,9.921Z" style="fill:#554946;"/></g></svg>