<?xml version="1.0" encoding="UTF-8" standalone="no"?><!DOCTYPE svg PUBLIC "-//W3C//DTD SVG 1.1//EN" "http://www.w3.org/Graphics/SVG/1.1/DTD/svg11.dtd"><svg width="100%" height="100%" viewBox="0 0 51 44" version="1.1" xmlns="http://www.w3.org/2000/svg" xmlns:xlink="http://www.w3.org/1999/xlink" xml:space="preserve" style="fill-rule:evenodd;clip-rule:evenodd;stroke-linejoin:bevel;stroke-miterlimit:1.5;"><g><path d="M50.425,21.579l-0.025,0.147l-0.026,0.146l-0.026,0.146l-0.028,0.146l-0.028,0.145l-0.029,0.145l-0.029,0.145l-0.031,0.145l-0.031,0.144l-0.032,0.144l-0.033,0.144l-0.033,0.143l-0.034,0.143l-0.035,0.143l-0.036,0.142l-0.036,0.143l-0.037,0.141l-0.038,0.142l-0.039,0.141l-0.039,0.141l-0.04,0.14l-0.041,0.141l-0.042,0.14l-0.042,0.139l-0.043,0.139l-0.044,0.139l-0.044,0.139l-0.045,0.138l-0.046,0.138l-0.047,0.138l-0.047,0.137l-0.048,0.137l-0.048,0.136l-0.05,0.136l-0.05,0.136l-0.051,0.136l-0.051,0.135l-0.052,0.134l-0.053,0.135l-0.053,0.134l-0.055,0.133l-0.055,0.134l-0.055,0.133l-0.056,0.132l-0.057,0.132l-0.058,0.132l-0.058,0.131l-0.059,0.131l-0.059,0.131l-0.061,0.13l-0.061,0.13l-0.061,0.129l-0.062,0.129l-0.063,0.129l-0.064,0.128l-0.064,0.128l-0.065,0.127l-0.065,0.127l-0.066,0.127l-0.067,0.126l-0.067,0.126l-0.068,0.125l-0.069,0.125l-0.069,0.124l-0.07,0.124l-0.071,0.124l-0.071,0.123l-0.072,0.123l-0.072,0.122l-0.073,0.122l-0.074,0.122l-0.074,0.121l-0.075,0.12l-0.075,0.12l-0.077,0.12l-0.076,0.119l-0.078,0.119l-0.077,0.118l-0.079,0.118l-0.079,0.118l-0.08,0.117l-0.08,0.116l-0.081,0.116l-0.163,0.231l-0.166,0.228l-0.168,0.227l-0.171,0.225l-0.172,0.223l-0.175,0.221l-0.177,0.219l-0.18,0.216l-0.181,0.215l-0.184,0.213l-0.186,0.211l-0.188,0.208l-0.19,0.207l-0.192,0.204l-0.195,0.203l-0.196,0.2l-0.199,0.198l-0.2,0.195l-0.101,0.097l-0.102,0.097l-0.102,0.096l-0.102,0.095l-0.103,0.095l-0.104,0.094l-0.104,0.094l-0.104,0.093l-0.105,0.092l-0.106,0.092l-0.106,0.091l-0.106,0.091l-0.107,0.09l-0.107,0.09l-0.108,0.089l-0.108,0.088l-0.109,0.088l-0.11,0.087l-0.109,0.087l-0.11,0.086l-0.111,0.086l-0.111,0.084l-0.112,0.085l-0.112,0.083l-0.112,0.083l-0.113,0.083l-0.113,0.081l-0.114,0.081l-0.114,0.081l-0.115,0.08l-0.115,0.079l-0.116,0.079l-0.116,0.078l-0.116,0.077l-0.117,0.077l-0.117,0.076l-0.118,0.075l-0.118,0.075l-0.118,0.074l-0.119,0.074l-0.12,0.073l-0.119,0.072l-0.121,0.072l-0.12,0.071l-0.121,0.07l-0.121,0.069l-0.122,0.069l-0.122,0.069l-0.123,0.067l-0.123,0.067l-0.123,0.066l-0.124,0.066l-0.124,0.065l-0.125,0.064l-0.124,0.064l-0.126,0.063l-0.125,0.062l-0.126,0.061l-0.127,0.061l-0.127,0.06l-0.127,0.059l-0.127,0.059l-0.128,0.058l-0.128,0.057l-0.129,0.057l-0.129,0.056l-0.129,0.055l-0.13,0.055l-0.13,0.053l-0.13,0.053l-0.131,0.053l-0.131,0.051l-0.131,0.051l-0.132,0.05l-0.132,0.05l-0.132,0.048l-0.133,0.048l-0.133,0.047l-0.133,0.047l-0.134,0.046l-0.134,0.045l-0.134,0.044l-0.135,0.043l-0.135,0.043l-0.135,0.042l-0.136,0.041l-0.136,0.041l-0.136,0.039l-0.136,0.039l-0.137,0.038l-0.137,0.038l-0.138,0.036l-0.138,0.036l-0.138,0.035l-0.138,0.035l-0.138,0.033l-0.139,0.033l-0.139,0.032l-0.14,0.031l-0.14,0.031l-0.14,0.029l-0.14,0.029l-0.14,0.028l-0.141,0.027l-0.141,0.027l-0.142,0.025l-0.141,0.025l-0.142,0.024l-0.142,0.023l-0.143,0.023l-0.142,0.021l-0.143,0.021l-0.143,0.02l-0.144,0.019l-0.143,0.018l-0.144,0.018l-0.144,0.016l-0.145,0.016l-0.144,0.015l-0.145,0.014l-0.145,0.013l-0.145,0.013l-0.146,0.012l-0.146,0.01l-0.146,0.01l-0.146,0.009l-0.146,0.008l-0.147,0.008l-0.147,0.006l-0.147,0.006l-0.147,0.005l-0.147,0.004l-0.148,0.003l-0.148,0.002l-0.148,0.001l-0.148,0.001l-0.149,-0.001l-0.148,-0.001l-0.147,-0.002l-0.148,-0.003l-0.148,-0.004l-0.147,-0.005l-0.147,-0.006l-0.147,-0.006l-0.146,-0.008l-0.147,-0.008l-0.146,-0.009l-0.146,-0.01l-0.146,-0.01l-0.145,-0.012l-0.145,-0.013l-0.145,-0.013l-0.145,-0.014l-0.145,-0.015l-0.144,-0.016l-0.144,-0.016l-0.144,-0.018l-0.144,-0.018l-0.143,-0.019l-0.143,-0.02l-0.143,-0.021l-0.143,-0.021l-0.142,-0.023l-0.142,-0.023l-0.142,-0.024l-0.142,-0.025l-0.141,-0.025l-0.141,-0.027l-0.141,-0.027l-0.141,-0.028l-0.14,-0.029l-0.14,-0.029l-0.14,-0.031l-0.139,-0.031l-0.139,-0.032l-0.139,-0.033l-0.139,-0.033l-0.138,-0.035l-0.138,-0.035l-0.138,-0.036l-0.137,-0.036l-0.137,-0.038l-0.137,-0.038l-0.137,-0.039l-0.136,-0.039l-0.136,-0.041l-0.135,-0.041l-0.136,-0.042l-0.135,-0.043l-0.134,-0.043l-0.135,-0.044l-0.134,-0.045l-0.133,-0.046l-0.134,-0.047l-0.133,-0.047l-0.132,-0.048l-0.133,-0.048l-0.132,-0.05l-0.131,-0.05l-0.132,-0.051l-0.131,-0.051l-0.131,-0.053l-0.13,-0.053l-0.13,-0.053l-0.13,-0.055l-0.129,-0.055l-0.129,-0.056l-0.128,-0.057l-0.129,-0.057l-0.127,-0.058l-0.128,-0.059l-0.127,-0.059l-0.127,-0.06l-0.126,-0.061l-0.126,-0.061l-0.126,-0.062l-0.125,-0.063l-0.125,-0.064l-0.124,-0.064l-0.125,-0.065l-0.123,-0.066l-0.124,-0.066l-0.123,-0.067l-0.122,-0.067l-0.122,-0.069l-0.122,-0.069l-0.121,-0.069l-0.121,-0.07l-0.121,-0.071l-0.12,-0.072l-0.12,-0.072l-0.119,-0.073l-0.119,-0.074l-0.119,-0.074l-0.118,-0.075l-0.117,-0.075l-0.118,-0.076l-0.117,-0.077l-0.116,-0.077l-0.116,-0.078l-0.115,-0.079l-0.116,-0.079l-0.114,-0.08l-0.114,-0.081l-0.114,-0.081l-0.114,-0.081l-0.112,-0.083l-0.113,-0.083l-0.112,-0.083l-0.111,-0.085l-0.111,-0.084l-0.111,-0.086l-0.11,-0.086l-0.11,-0.087l-0.109,-0.087l-0.109,-0.088l-0.108,-0.088l-0.108,-0.089l-0.108,-0.09l-0.106,-0.09l-0.107,-0.091l-0.106,-0.091l-0.105,-0.092l-0.105,-0.092l-0.105,-0.093l-0.104,-0.094l-0.103,-0.094l-0.103,-0.095l-0.103,-0.095l-0.102,-0.096l-0.101,-0.097l-0.101,-0.097l-0.201,-0.195l-0.198,-0.198l-0.197,-0.2l-0.194,-0.203l-0.193,-0.204l-0.19,-0.207l-0.188,-0.208l-0.186,-0.211l-0.183,-0.213l-0.182,-0.215l-0.179,-0.216l-0.177,-0.219l-0.175,-0.221l-0.173,-0.223l-0.17,-0.225l-0.169,-0.227l-0.165,-0.228l-0.164,-0.231l-0.081,-0.116l-0.08,-0.116l-0.08,-0.117l-0.079,-0.118l-0.078,-0.118l-0.078,-0.118l-0.077,-0.119l-0.077,-0.119l-0.076,-0.12l-0.076,-0.12l-0.074,-0.12l-0.075,-0.121l-0.073,-0.122l-0.073,-0.122l-0.073,-0.122l-0.072,-0.123l-0.071,-0.123l-0.07,-0.124l-0.07,-0.124l-0.069,-0.124l-0.069,-0.125l-0.068,-0.125l-0.067,-0.126l-0.067,-0.126l-0.066,-0.127l-0.066,-0.127l-0.065,-0.127l-0.064,-0.128l-0.063,-0.128l-0.063,-0.129l-0.062,-0.129l-0.062,-0.129l-0.061,-0.13l-0.06,-0.13l-0.06,-0.131l-0.059,-0.131l-0.058,-0.131l-0.057,-0.132l-0.057,-0.132l-0.056,-0.132l-0.056,-0.133l-0.055,-0.134l-0.054,-0.133l-0.054,-0.134l-0.052,-0.135l-0.053,-0.134l-0.051,-0.135l-0.051,-0.136l-0.05,-0.136l-0.049,-0.136l-0.049,-0.136l-0.048,-0.137l-0.047,-0.137l-0.047,-0.138l-0.045,-0.138l-0.045,-0.138l-0.045,-0.139l-0.044,-0.139l-0.043,-0.139l-0.042,-0.139l-0.041,-0.14l-0.041,-0.141l-0.04,-0.14l-0.04,-0.141l-0.038,-0.141l-0.038,-0.142l-0.037,-0.141l-0.037,-0.143l-0.035,-0.142l-0.035,-0.143l-0.034,-0.143l-0.034,-0.143l-0.033,-0.144l-0.031,-0.144l-0.032,-0.144l-0.03,-0.145l-0.03,-0.145l-0.029,-0.145l-0.028,-0.145l-0.027,-0.146l-0.027,-0.146l-0.026,-0.146l-0.025,-0.147l-0.024,-0.146l50.449,0l-0.024,0.146Zm-45.216,3.853l0.018,0.047l0.044,0.112l0.046,0.115l0.047,0.116l0.047,0.114l0.048,0.114l0.048,0.115l0.047,0.11l0.048,0.108l0.05,0.113l0.051,0.113l0.051,0.112l0.052,0.112l0.051,0.11l0.053,0.111l0.052,0.108l0.053,0.109l0.054,0.109l0.055,0.109l0.056,0.11l0.056,0.108l0.056,0.108l0.055,0.104l0.058,0.108l0.059,0.109l0.059,0.107l0.057,0.102l0.061,0.109l0.06,0.105l0.058,0.101l0.064,0.108l0.061,0.104l0.06,0.099l0.064,0.107l0.064,0.103l0.063,0.102l0.066,0.105l0.064,0.1l0.062,0.098l0.066,0.101l0.068,0.103l0.068,0.102l0.067,0.1l0.065,0.095l0.07,0.101l0.067,0.097l0.141,0.198l0.14,0.194l0.143,0.192l0.145,0.192l0.147,0.19l0.148,0.186l0.15,0.186l0.154,0.186l0.154,0.182l0.154,0.179l0.159,0.18l0.16,0.178l0.16,0.173l0.163,0.173l0.165,0.172l0.168,0.171l0.168,0.168l0.173,0.169l0.082,0.078l0.085,0.082l0.086,0.08l0.086,0.08l0.089,0.082l0.088,0.08l0.088,0.079l0.089,0.079l0.087,0.077l0.089,0.077l0.092,0.08l0.09,0.077l0.088,0.074l0.091,0.076l0.094,0.078l0.091,0.074l0.089,0.072l0.092,0.073l0.096,0.075l0.093,0.074l0.091,0.07l0.095,0.072l0.094,0.071l0.095,0.071l0.097,0.072l0.092,0.067l0.099,0.071l0.094,0.067l0.096,0.068l0.099,0.069l0.095,0.065l0.095,0.065l0.1,0.067l0.101,0.067l0.098,0.065l0.097,0.063l0.098,0.063l0.101,0.064l0.1,0.062l0.1,0.062l0.1,0.061l0.101,0.061l0.103,0.061l0.101,0.06l0.1,0.058l0.104,0.059l0.102,0.058l0.101,0.057l0.105,0.058l0.102,0.055l0.104,0.056l0.106,0.056l0.104,0.055l0.103,0.053l0.105,0.053l0.107,0.054l0.104,0.051l0.107,0.052l0.106,0.052l0.107,0.05l0.107,0.05l0.105,0.049l0.107,0.048l0.109,0.049l0.11,0.048l0.108,0.047l0.107,0.046l0.107,0.045l0.11,0.045l0.11,0.045l0.11,0.044l0.111,0.043l0.111,0.043l0.108,0.042l0.111,0.041l0.111,0.041l0.11,0.04l0.113,0.04l0.113,0.039l0.111,0.038l0.113,0.038l0.111,0.037l0.112,0.036l0.116,0.036l0.113,0.035l0.113,0.035l0.113,0.033l0.113,0.033l0.118,0.034l0.114,0.032l0.112,0.03l0.118,0.032l0.114,0.03l0.114,0.029l0.119,0.029l0.114,0.028l0.115,0.027l0.119,0.027l0.117,0.026l0.115,0.025l0.117,0.025l0.12,0.025l0.116,0.023l0.118,0.023l0.118,0.022l0.119,0.021l0.119,0.021l0.117,0.02l0.12,0.02l0.12,0.018l0.118,0.018l0.121,0.018l0.12,0.017l0.12,0.015l0.121,0.016l0.119,0.014l0.12,0.014l0.122,0.013l0.123,0.013l0.12,0.012l0.121,0.011l0.123,0.011l0.122,0.009l0.122,0.009l0.122,0.009l0.122,0.007l0.124,0.007l0.123,0.006l0.123,0.006l0.124,0.004l0.123,0.004l0.126,0.004l0.124,0.002l0.122,0.002l0.125,0.001l0.125,0.001l0.125,-0.001l0.124,-0.001l0.122,-0.002l0.124,-0.002l0.126,-0.004l0.124,-0.004l0.123,-0.004l0.123,-0.006l0.123,-0.006l0.125,-0.007l0.122,-0.007l0.122,-0.009l0.122,-0.009l0.121,-0.009l0.123,-0.011l0.121,-0.011l0.12,-0.012l0.123,-0.013l0.122,-0.013l0.12,-0.014l0.12,-0.014l0.121,-0.016l0.119,-0.015l0.121,-0.017l0.12,-0.018l0.118,-0.018l0.121,-0.019l0.119,-0.019l0.117,-0.02l0.119,-0.021l0.119,-0.021l0.119,-0.022l0.118,-0.023l0.116,-0.023l0.12,-0.025l0.117,-0.025l0.114,-0.025l0.117,-0.026l0.119,-0.027l0.116,-0.027l0.114,-0.028l0.117,-0.029l0.115,-0.029l0.116,-0.031l0.117,-0.031l0.112,-0.03l0.114,-0.032l0.118,-0.034l0.113,-0.033l0.113,-0.033l0.113,-0.035l0.112,-0.035l0.116,-0.036l0.112,-0.036l0.112,-0.037l0.113,-0.038l0.111,-0.038l0.113,-0.039l0.112,-0.04l0.11,-0.04l0.111,-0.041l0.111,-0.041l0.111,-0.042l0.109,-0.043l0.11,-0.043l0.111,-0.044l0.108,-0.044l0.109,-0.046l0.111,-0.046l0.106,-0.045l0.107,-0.047l0.112,-0.049l0.106,-0.047l0.108,-0.049l0.107,-0.05l0.106,-0.049l0.106,-0.05l0.105,-0.051l0.108,-0.053l0.106,-0.052l0.103,-0.052l0.107,-0.054l0.105,-0.054l0.103,-0.054l0.104,-0.055l0.104,-0.056l0.105,-0.057l0.105,-0.058l0.099,-0.056l0.103,-0.058l0.102,-0.058l0.101,-0.059l0.104,-0.061l0.099,-0.059l0.102,-0.062l0.102,-0.062l0.099,-0.061l0.097,-0.061l0.103,-0.065l0.099,-0.063l0.096,-0.063l0.101,-0.066l0.099,-0.066l0.097,-0.065l0.095,-0.065l0.099,-0.068l0.098,-0.068l0.096,-0.068l0.096,-0.068l0.096,-0.07l0.093,-0.067l0.094,-0.07l0.097,-0.073l0.096,-0.072l0.091,-0.07l0.093,-0.071l0.096,-0.075l0.091,-0.072l0.092,-0.073l0.093,-0.076l0.091,-0.074l0.09,-0.074l0.091,-0.076l0.092,-0.078l0.091,-0.077l0.088,-0.076l0.088,-0.077l0.092,-0.081l0.089,-0.079l0.085,-0.077l0.088,-0.08l0.089,-0.082l0.084,-0.078l0.086,-0.08l0.089,-0.086l0.083,-0.079l0.171,-0.166l0.168,-0.168l0.168,-0.171l0.164,-0.171l0.163,-0.174l0.162,-0.175l0.159,-0.176l0.157,-0.179l0.155,-0.18l0.156,-0.183l0.152,-0.185l0.151,-0.186l0.147,-0.186l0.146,-0.189l0.147,-0.193l0.142,-0.192l0.141,-0.194l0.141,-0.199l0.067,-0.096l0.068,-0.098l0.066,-0.098l0.069,-0.103l0.066,-0.099l0.066,-0.1l0.068,-0.104l0.065,-0.101l0.062,-0.097l0.066,-0.105l0.063,-0.102l0.063,-0.103l0.063,-0.104l0.061,-0.102l0.064,-0.107l0.059,-0.102l0.06,-0.104l0.062,-0.109l0.058,-0.102l0.059,-0.105l0.06,-0.11l0.058,-0.106l0.056,-0.105l0.056,-0.107l0.058,-0.111l0.055,-0.105l0.055,-0.11l0.055,-0.109l0.052,-0.105l0.055,-0.113l0.054,-0.112l0.051,-0.107l0.052,-0.11l0.052,-0.112l0.051,-0.112l0.05,-0.113l0.049,-0.109l0.049,-0.112l0.049,-0.114l0.047,-0.111l0.048,-0.114l0.047,-0.114l0.047,-0.116l0.044,-0.111l0.045,-0.116l0.019,-0.047l-40.032,0Z" style="fill:#585858;"/><path d="M17.031,10.26c-0.558,-4.686 -3.434,-8.26 -6.894,-8.26c-3.46,0 -6.337,3.574 -6.894,8.26" style="fill:none;stroke:#585858;stroke-width:4px;"/><path d="M42.563,10.394c-0.558,-4.686 -3.434,-8.26 -6.894,-8.26c-3.46,0 -6.337,3.574 -6.894,8.26" style="fill:none;stroke:#585858;stroke-width:4px;"/></g></svg>