<?xml version="1.0" encoding="UTF-8" standalone="no"?><!DOCTYPE svg PUBLIC "-//W3C//DTD SVG 1.1//EN" "http://www.w3.org/Graphics/SVG/1.1/DTD/svg11.dtd"><svg width="100%" height="100%" viewBox="0 0 38 33" version="1.1" xmlns="http://www.w3.org/2000/svg" xmlns:xlink="http://www.w3.org/1999/xlink" xml:space="preserve" style="fill-rule:evenodd;clip-rule:evenodd;stroke-linejoin:bevel;stroke-miterlimit:1.5;"><g><path d="M37.412,16.143l-0.039,0.217l-0.041,0.216l-0.043,0.215l-0.046,0.214l-0.048,0.214l-0.05,0.213l-0.053,0.211l-0.054,0.211l-0.057,0.21l-0.059,0.209l-0.061,0.208l-0.063,0.207l-0.066,0.206l-0.067,0.205l-0.07,0.204l-0.072,0.203l-0.073,0.201l-0.076,0.201l-0.078,0.2l-0.08,0.199l-0.082,0.197l-0.084,0.197l-0.086,0.195l-0.088,0.194l-0.09,0.193l-0.092,0.192l-0.093,0.191l-0.096,0.189l-0.098,0.188l-0.099,0.187l-0.102,0.186l-0.103,0.184l-0.105,0.184l-0.107,0.182l-0.109,0.18l-0.111,0.18l-0.113,0.178l-0.114,0.176l-0.116,0.176l-0.118,0.173l-0.119,0.173l-0.122,0.171l-0.123,0.17l-0.125,0.168l-0.126,0.167l-0.128,0.166l-0.13,0.164l-0.132,0.162l-0.133,0.161l-0.134,0.16l-0.137,0.157l-0.138,0.157l-0.139,0.155l-0.142,0.153l-0.142,0.152l-0.145,0.15l-0.145,0.148l-0.148,0.147l-0.149,0.146l-0.15,0.143l-0.152,0.142l-0.153,0.141l-0.155,0.138l-0.156,0.137l-0.158,0.135l-0.159,0.134l-0.16,0.131l-0.162,0.13l-0.163,0.128l-0.165,0.127l-0.166,0.124l-0.167,0.123l-0.169,0.121l-0.17,0.119l-0.171,0.117l-0.172,0.116l-0.174,0.113l-0.175,0.112l-0.176,0.109l-0.178,0.108l-0.178,0.106l-0.18,0.104l-0.181,0.102l-0.183,0.099l-0.183,0.098l-0.185,0.096l-0.185,0.094l-0.187,0.092l-0.188,0.089l-0.189,0.088l-0.19,0.086l-0.191,0.083l-0.193,0.082l-0.193,0.079l-0.194,0.077l-0.195,0.075l-0.197,0.073l-0.197,0.07l-0.198,0.069l-0.199,0.066l-0.2,0.064l-0.202,0.062l-0.201,0.059l-0.203,0.057l-0.204,0.055l-0.205,0.053l-0.205,0.05l-0.207,0.048l-0.207,0.046l-0.208,0.043l-0.209,0.041l-0.209,0.039l-0.211,0.036l-0.211,0.034l-0.212,0.032l-0.213,0.029l-0.213,0.026l-0.214,0.024l-0.215,0.022l-0.216,0.019l-0.216,0.016l-0.217,0.014l-0.217,0.012l-0.218,0.009l-0.219,0.007l-0.22,0.003l-0.219,0.002l-0.22,-0.002l-0.22,-0.003l-0.219,-0.007l-0.218,-0.009l-0.217,-0.012l-0.217,-0.014l-0.216,-0.016l-0.216,-0.019l-0.215,-0.022l-0.214,-0.024l-0.213,-0.026l-0.213,-0.029l-0.212,-0.032l-0.211,-0.034l-0.211,-0.036l-0.209,-0.039l-0.209,-0.041l-0.208,-0.043l-0.207,-0.046l-0.207,-0.048l-0.205,-0.05l-0.205,-0.053l-0.204,-0.055l-0.202,-0.057l-0.202,-0.059l-0.202,-0.062l-0.2,-0.064l-0.199,-0.066l-0.198,-0.069l-0.197,-0.07l-0.197,-0.073l-0.195,-0.075l-0.194,-0.077l-0.193,-0.079l-0.193,-0.082l-0.191,-0.083l-0.19,-0.086l-0.189,-0.088l-0.188,-0.089l-0.187,-0.092l-0.185,-0.094l-0.185,-0.096l-0.183,-0.098l-0.183,-0.099l-0.181,-0.102l-0.18,-0.104l-0.178,-0.106l-0.178,-0.108l-0.176,-0.109l-0.175,-0.112l-0.174,-0.113l-0.172,-0.116l-0.171,-0.117l-0.17,-0.119l-0.169,-0.121l-0.167,-0.123l-0.166,-0.124l-0.165,-0.127l-0.163,-0.128l-0.162,-0.13l-0.16,-0.131l-0.159,-0.134l-0.158,-0.135l-0.156,-0.137l-0.155,-0.138l-0.153,-0.141l-0.152,-0.142l-0.15,-0.143l-0.149,-0.146l-0.148,-0.147l-0.145,-0.148l-0.145,-0.15l-0.142,-0.152l-0.142,-0.153l-0.139,-0.155l-0.138,-0.157l-0.137,-0.157l-0.134,-0.16l-0.133,-0.161l-0.132,-0.162l-0.13,-0.164l-0.128,-0.166l-0.126,-0.167l-0.125,-0.168l-0.123,-0.17l-0.122,-0.171l-0.119,-0.173l-0.118,-0.173l-0.116,-0.176l-0.114,-0.176l-0.113,-0.178l-0.111,-0.18l-0.109,-0.18l-0.107,-0.182l-0.105,-0.184l-0.103,-0.184l-0.102,-0.186l-0.099,-0.187l-0.098,-0.188l-0.095,-0.189l-0.094,-0.191l-0.092,-0.192l-0.09,-0.193l-0.088,-0.194l-0.086,-0.195l-0.084,-0.197l-0.082,-0.197l-0.08,-0.199l-0.078,-0.2l-0.076,-0.201l-0.073,-0.201l-0.072,-0.203l-0.07,-0.204l-0.067,-0.205l-0.066,-0.206l-0.063,-0.207l-0.061,-0.208l-0.059,-0.209l-0.057,-0.21l-0.054,-0.211l-0.053,-0.211l-0.05,-0.213l-0.048,-0.214l-0.046,-0.214l-0.043,-0.215l-0.041,-0.216l-0.039,-0.217l-0.037,-0.218l37.449,0l-0.037,0.218Zm-33.5,2.782l0.03,0.078l0.069,0.17l0.069,0.166l0.071,0.166l0.073,0.168l0.075,0.166l0.076,0.163l0.078,0.162l0.08,0.162l0.082,0.162l0.082,0.16l0.085,0.158l0.086,0.157l0.088,0.157l0.09,0.158l0.09,0.153l0.092,0.152l0.094,0.153l0.096,0.152l0.097,0.15l0.098,0.147l0.1,0.148l0.102,0.147l0.103,0.146l0.105,0.144l0.105,0.142l0.107,0.142l0.108,0.139l0.11,0.139l0.113,0.139l0.113,0.137l0.113,0.133l0.115,0.134l0.118,0.133l0.118,0.131l0.12,0.131l0.121,0.128l0.122,0.127l0.122,0.125l0.125,0.124l0.127,0.124l0.126,0.121l0.129,0.12l0.13,0.119l0.13,0.116l0.132,0.116l0.133,0.114l0.135,0.113l0.135,0.111l0.137,0.11l0.138,0.109l0.138,0.105l0.139,0.105l0.142,0.104l0.143,0.102l0.141,0.099l0.144,0.099l0.147,0.098l0.146,0.096l0.147,0.093l0.147,0.092l0.151,0.091l0.15,0.089l0.151,0.087l0.152,0.086l0.152,0.083l0.154,0.082l0.155,0.081l0.156,0.079l0.158,0.077l0.157,0.075l0.158,0.074l0.16,0.072l0.159,0.069l0.161,0.068l0.162,0.067l0.164,0.064l0.163,0.063l0.162,0.061l0.167,0.059l0.165,0.057l0.167,0.055l0.169,0.055l0.167,0.051l0.167,0.049l0.171,0.048l0.171,0.046l0.17,0.044l0.173,0.043l0.173,0.04l0.171,0.038l0.174,0.036l0.175,0.034l0.176,0.033l0.177,0.03l0.176,0.028l0.177,0.026l0.177,0.025l0.178,0.022l0.18,0.02l0.18,0.018l0.181,0.016l0.18,0.014l0.181,0.012l0.183,0.009l0.182,0.008l0.184,0.005l0.184,0.004l0.184,0.001l0.185,-0.001l0.184,-0.004l0.184,-0.005l0.182,-0.008l0.183,-0.009l0.181,-0.012l0.18,-0.014l0.181,-0.016l0.18,-0.018l0.18,-0.02l0.178,-0.022l0.178,-0.025l0.176,-0.026l0.177,-0.028l0.176,-0.03l0.176,-0.033l0.175,-0.034l0.174,-0.036l0.171,-0.038l0.173,-0.04l0.173,-0.043l0.17,-0.044l0.171,-0.046l0.17,-0.048l0.169,-0.049l0.167,-0.052l0.168,-0.054l0.167,-0.055l0.165,-0.057l0.166,-0.059l0.162,-0.06l0.164,-0.064l0.164,-0.064l0.162,-0.067l0.161,-0.068l0.159,-0.069l0.16,-0.073l0.159,-0.073l0.156,-0.075l0.157,-0.077l0.157,-0.079l0.155,-0.081l0.153,-0.081l0.153,-0.084l0.152,-0.086l0.151,-0.087l0.151,-0.089l0.15,-0.092l0.147,-0.091l0.147,-0.093l0.147,-0.096l0.145,-0.098l0.144,-0.098l0.142,-0.1l0.143,-0.102l0.142,-0.104l0.139,-0.105l0.139,-0.106l0.137,-0.108l0.137,-0.11l0.135,-0.111l0.135,-0.113l0.133,-0.114l0.131,-0.115l0.131,-0.117l0.13,-0.119l0.128,-0.12l0.127,-0.121l0.127,-0.124l0.125,-0.124l0.122,-0.125l0.122,-0.127l0.121,-0.128l0.121,-0.132l0.117,-0.13l0.117,-0.132l0.116,-0.135l0.113,-0.134l0.114,-0.137l0.111,-0.137l0.11,-0.139l0.109,-0.14l0.107,-0.142l0.105,-0.142l0.105,-0.145l0.104,-0.146l0.1,-0.145l0.1,-0.148l0.099,-0.148l0.097,-0.15l0.096,-0.152l0.094,-0.153l0.092,-0.152l0.091,-0.155l0.089,-0.156l0.088,-0.157l0.086,-0.157l0.084,-0.157l0.083,-0.161l0.082,-0.162l0.08,-0.162l0.078,-0.162l0.076,-0.165l0.075,-0.164l0.073,-0.166l0.071,-0.168l0.07,-0.167l0.068,-0.169l0.03,-0.078l-29.625,0Z" style="fill:#585858;"/><path d="M13.83,7.631c-0.414,-3.478 -2.549,-6.131 -5.118,-6.131c-2.568,0 -4.703,2.653 -5.117,6.131" style="fill:none;stroke:#585858;stroke-width:3px;"/><path d="M32.782,7.731c-0.414,-3.479 -2.549,-6.132 -5.117,-6.132c-2.569,0 -4.704,2.653 -5.118,6.132" style="fill:none;stroke:#585858;stroke-width:3px;"/></g></svg>