<?xml version="1.0" encoding="UTF-8" standalone="no"?><!DOCTYPE svg PUBLIC "-//W3C//DTD SVG 1.1//EN" "http://www.w3.org/Graphics/SVG/1.1/DTD/svg11.dtd"><svg width="100%" height="100%" viewBox="0 0 1585 249" version="1.1" xmlns="http://www.w3.org/2000/svg" xmlns:xlink="http://www.w3.org/1999/xlink" xml:space="preserve" style="fill-rule:evenodd;clip-rule:evenodd;stroke-linejoin:round;stroke-miterlimit:1.41421;"><path d="M0,247.944c24.91,-95.913 105.375,-166.223 200.678,-166.223c95.304,0 175.769,70.31 200.679,166.223l-401.357,0Z" style="fill:#7fb174;"/><path d="M327.215,247.523c38.079,-107.789 135.455,-184.52 249.446,-184.52c113.99,0 211.366,76.731 249.445,184.52l-498.891,0Z" style="fill:#92d5ce;"/><path d="M878.312,245.704l-319.235,0l159.618,-235.722l159.617,235.722Z" style="fill:#7fb174;"/><path d="M1155.44,245.704l-346.503,0l173.252,-221.231l173.251,221.231Z" style="fill:#8c8c8c;"/><path d="M1134.63,245.704c23.266,-90.776 114.387,-158.585 223.114,-158.585c108.728,0 199.848,67.809 223.114,158.585l-446.228,0Z" style="fill:#91cf8e;"/><path d="M4.421,0l1579.94,248.03l-1579.94,0l0,-248.03Z" style="fill:#fff;fill-opacity:0.2;"/></svg>