<?xml version="1.0" encoding="UTF-8" standalone="no"?><!DOCTYPE svg PUBLIC "-//W3C//DTD SVG 1.1//EN" "http://www.w3.org/Graphics/SVG/1.1/DTD/svg11.dtd"><svg width="100%" height="100%" viewBox="0 0 1576 645" version="1.1" xmlns="http://www.w3.org/2000/svg" xmlns:xlink="http://www.w3.org/1999/xlink" xml:space="preserve" style="fill-rule:evenodd;clip-rule:evenodd;stroke-linejoin:round;stroke-miterlimit:1.41421;"><g><path d="M781.015,296.056c42.404,-73.288 127.211,-73.288 169.614,-36.644c42.405,36.644 42.405,109.931 0,183.219c-29.682,54.966 -106.008,109.932 -169.614,146.576c-63.605,-36.644 -139.931,-91.61 -169.613,-146.576c-42.404,-73.288 -42.404,-146.575 0,-183.219c42.403,-36.644 127.21,-36.644 169.613,36.644Z" style="fill:#fffefe;fill-opacity:0.341176;"/><path d="M901.754,135.098c20.964,-39.149 62.893,-39.149 83.857,-19.574c20.965,19.574 20.965,58.724 0,97.873c-14.675,29.363 -52.411,58.725 -83.857,78.3c-31.446,-19.575 -69.182,-48.937 -83.857,-78.3c-20.964,-39.149 -20.964,-78.299 0,-97.873c20.965,-19.575 62.893,-19.575 83.857,19.574Z" style="fill:#fffefe;fill-opacity:0.341176;"/><path d="M0,215.045c73.713,-36.111 181.812,-19.611 240.344,88.134c69.114,-127.228 207.344,-127.228 276.46,-63.614c69.117,63.614 69.117,190.843 0,318.071c-14.912,29.41 -37.046,58.82 -63.569,87.299l-425.783,0c-9.797,-10.52 -18.996,-21.166 -27.452,-31.894l0,-397.996Z" style="fill:#fffefe;fill-opacity:0.341176;"/><path d="M719.371,0c0.301,18.676 -5.406,40.179 -17.119,61.683c-15.988,31.448 -57.099,62.896 -91.359,83.862c-34.26,-20.966 -75.371,-52.414 -91.359,-83.862c-11.713,-21.504 -17.419,-43.007 -17.118,-61.683l216.955,0Z" style="fill:#fffefe;fill-opacity:0.341176;"/><path d="M1330.37,644.935c-89.052,-58.492 -185.31,-137.762 -225.528,-217.032c-64.79,-119.191 -64.79,-238.381 0,-297.977c64.79,-59.595 194.37,-59.595 259.159,59.596c51.292,-94.36 143.19,-114.018 211.401,-88.544l0,395.581c-47.844,54.968 -114.619,106.897 -177.77,148.376l-67.262,0Z" style="fill:#fffefe;fill-opacity:0.341176;"/></g></svg>