<?xml version="1.0" encoding="UTF-8" standalone="no"?><!DOCTYPE svg PUBLIC "-//W3C//DTD SVG 1.1//EN" "http://www.w3.org/Graphics/SVG/1.1/DTD/svg11.dtd"><svg width="100%" height="100%" viewBox="0 0 163 671" version="1.1" xmlns="http://www.w3.org/2000/svg" xmlns:xlink="http://www.w3.org/1999/xlink" xml:space="preserve" style="fill-rule:evenodd;clip-rule:evenodd;stroke-linecap:round;stroke-linejoin:round;stroke-miterlimit:1.5;"><path d="M19.112,46.425c-0.034,15.544 58.418,46.764 94.325,46.844c25.739,0.057 49.231,-37.756 49.106,-46.525c-0.113,-8 -23.16,-46.687 -48.898,-46.744c-35.908,-0.08 -94.498,30.88 -94.533,46.425Z" style="fill:#fff;"/><path d="M21.879,39.415l32.353,-0.302l-14.617,-20.794l-34.179,0.083l16.443,21.013Z" style="fill:#fff;"/><path d="M21.858,52.606l33.939,1.265l-17.155,20.979l-33.772,0.408l16.988,-22.652Z" style="fill:#fff;"/><path d="M0.016,43.414l-0.016,7.004l50.689,0.113l0.015,-7.004l-50.688,-0.113Z" style="fill:#fff;"/><path d="M25.648,46.69c-0.032,14.318 53.805,43.073 86.878,43.147c23.706,0.052 45.344,-34.776 45.229,-42.853c-0.104,-7.368 -21.332,-43 -45.038,-43.053c-33.073,-0.073 -87.037,28.442 -87.069,42.759Z" style="fill:#264a8b;"/><path d="M22.012,36.181l27.103,0.061l-12.06,-15.464l-27.076,-0.06l12.033,15.463Z" style="fill:#013a57;"/><path d="M21.746,57.116l27.103,0.061l-12.128,15.409l-27.077,-0.06l12.102,-15.41Z" style="fill:#013a57;"/><path d="M2.921,44.99l-0.007,3.126l38.484,0.086l0.007,-3.127l-38.484,-0.085Z" style="fill:#013a57;"/><path d="M111.346,89.795c-11.997,-8.649 -20.027,-24.549 -19.987,-42.697c0.042,-18.534 8.489,-34.685 20.949,-43.145c0.498,-0.012 0.991,-0.017 1.48,-0.016c23.707,0.053 44.934,35.685 45.039,43.053c0.114,8.077 -21.523,42.905 -45.23,42.853c-0.74,-0.002 -1.49,-0.018 -2.251,-0.048Z" style="fill:#f04e37;"/><path d="M157.055,52.324c-5.065,12.504 -23.726,37.678 -43.884,37.633c-33.072,-0.073 -86.91,-28.828 -86.878,-43.146c0.004,-1.779 0.84,-3.776 2.365,-5.911c3.829,14.767 55.584,41.398 87.845,41.47c16.832,0.038 32.635,-17.037 40.552,-30.046Z" style="fill:#013a57;fill-opacity:0.517647;"/><path d="M81.669,87.357l-6.258,0.068l6.341,582.944l6.258,-0.068l-6.341,-582.944Z" style="fill:#f04e37;"/><path d="M90.513,78.118c5.47,6.618 4.539,16.432 -2.08,21.903c-6.618,5.471 -16.432,4.539 -21.903,-2.079c-5.471,-6.618 -4.539,-16.433 2.079,-21.904c6.618,-5.47 16.433,-4.539 21.904,2.08Z" style="fill:#f04e37;stroke:#fff;stroke-width:7px;"/><path d="M96.14,574.405c5.471,6.618 4.539,16.433 -2.079,21.904c-6.618,5.47 -16.433,4.539 -21.904,-2.08c-5.47,-6.618 -4.538,-16.432 2.08,-21.903c6.618,-5.471 16.433,-4.539 21.903,2.079Z" style="fill:#f04e37;stroke:#fff;stroke-width:7px;"/><path d="M93.55,322.973c5.47,6.618 4.539,16.432 -2.08,21.903c-6.618,5.471 -16.433,4.539 -21.903,-2.079c-5.471,-6.618 -4.539,-16.433 2.079,-21.904c6.618,-5.47 16.433,-4.539 21.904,2.08Z" style="fill:#f04e37;stroke:#fff;stroke-width:7px;"/></svg>