<?xml version="1.0" encoding="UTF-8" standalone="no"?><!DOCTYPE svg PUBLIC "-//W3C//DTD SVG 1.1//EN" "http://www.w3.org/Graphics/SVG/1.1/DTD/svg11.dtd"><svg width="100%" height="100%" viewBox="0 0 200 205" version="1.1" xmlns="http://www.w3.org/2000/svg" xmlns:xlink="http://www.w3.org/1999/xlink" xml:space="preserve" style="fill-rule:evenodd;clip-rule:evenodd;stroke-linecap:round;stroke-linejoin:bevel;stroke-miterlimit:1.5;"><g><path d="M37.813,132.673c-3.879,-11.222 -9.604,-25.075 0,-30.566c15.053,-8.606 58.218,-19.015 73.461,-16.503c32.353,5.333 49.746,-0.398 52.505,47.069c9.631,-2.79 17.297,1.25 18.736,12.097c0.545,4.11 -6.397,13.576 -13.991,12.326c0,0 -1.125,11.098 -2.37,12.766c-22.91,30.697 -59.68,34.734 -69.422,34.565c-45.571,-0.793 -76.152,-32.157 -70.903,-45.072c-9.21,-0.677 -12.212,-9.965 -11.436,-14.585c1.51,-8.999 9.194,-13.756 23.42,-12.097Z" style="fill:#fbcb9d;"/><path d="M14.38,147.643c-9.074,-14.667 -14.296,-31.849 -14.296,-50.21c0,-53.775 44.79,-97.433 99.958,-97.433c55.168,0 99.958,43.658 99.958,97.433c0,29.946 -13.889,56.754 -35.725,74.633c0.635,-0.787 1.261,-1.594 1.877,-2.419c1.245,-1.668 2.37,-12.766 2.37,-12.766c7.593,1.25 14.536,-8.216 13.991,-12.326c-1.439,-10.847 -9.105,-14.887 -18.736,-12.097c-0.668,-41.675 -25.038,-54.15 -63.735,-20.999c-45.225,-33.959 -61.729,-5.394 -62.231,20.999c-14.226,-1.659 -21.91,3.098 -23.42,12.097c-0.149,0.888 -0.159,1.949 -0.011,3.088Zm7.583,10.603c1.144,0.473 2.428,0.788 3.864,0.894c-0.36,0.886 -0.552,1.859 -0.581,2.903c-1.126,-1.238 -2.221,-2.504 -3.283,-3.797Z" style="fill:#454545;"/><path d="M85.544,177.836c9.273,-8.858 19.263,-9.051 30.016,0" style="fill:none;stroke:#0d0600;stroke-width:2px;"/><path d="M5.045,66.822l64.7,46.617c-10.943,6.189 -21.641,12.518 -32.018,19.029c-14.226,-1.659 -21.91,3.098 -23.42,12.096c-0.088,0.523 -0.127,1.104 -0.115,1.726c0,-0.541 0.039,-1.049 0.117,-1.51c1.51,-8.999 9.194,-13.756 23.42,-12.097c10.43,-6.544 21.183,-12.904 32.185,-19.123l89.301,64.343c-22.784,23.394 -53.749,26.687 -62.567,26.533c-45.571,-0.792 -76.152,-32.156 -70.903,-45.071l-0.083,-0.007c-0.308,0.829 -0.473,1.732 -0.5,2.695c-1.033,-1.136 -2.04,-2.296 -3.019,-3.478c-5.069,-1.956 -7.442,-6.994 -7.877,-10.969c-9.055,-14.657 -14.266,-31.821 -14.266,-50.163c0,-10.695 1.772,-20.99 5.045,-30.621Z" style="fill:#fff;fill-opacity:0.270588;"/></g></svg>