<?xml version="1.0" encoding="UTF-8" standalone="no"?><!DOCTYPE svg PUBLIC "-//W3C//DTD SVG 1.1//EN" "http://www.w3.org/Graphics/SVG/1.1/DTD/svg11.dtd"><svg width="100%" height="100%" viewBox="0 0 200 205" version="1.1" xmlns="http://www.w3.org/2000/svg" xmlns:xlink="http://www.w3.org/1999/xlink" xml:space="preserve" style="fill-rule:evenodd;clip-rule:evenodd;stroke-linecap:round;stroke-linejoin:bevel;stroke-miterlimit:1.5;"><g><path d="M37.745,132.729c-15.347,-38.56 33.533,-52.352 69.119,-49.082c19.417,8.813 71.19,4.619 56.9,49.082c9.635,-2.791 17.304,1.251 18.743,12.102c0.546,4.112 -6.399,13.582 -13.996,12.331c0,0 -1.126,11.103 -2.371,12.771c-22.92,30.71 -59.705,34.749 -69.451,34.58c-45.591,-0.793 -76.184,-32.171 -70.933,-45.091c-9.214,-0.677 -12.217,-9.969 -11.441,-14.591c1.511,-9.003 9.198,-13.762 23.43,-12.102Z" style="fill:#fbcb9d;"/><path d="M14.302,147.705c-9.078,-14.673 -14.302,-31.862 -14.302,-50.231c0,-53.797 44.808,-97.474 100,-97.474c55.192,0 100,43.677 100,97.474c0,29.958 -13.895,56.778 -35.74,74.664c0.635,-0.787 1.262,-1.594 1.878,-2.42c1.245,-1.668 2.371,-12.771 2.371,-12.771c7.596,1.251 14.542,-8.219 13.996,-12.332c-1.439,-10.85 -9.108,-14.892 -18.743,-12.101c-2.796,-50.635 -50.691,-35.062 -63.762,-35.04c-50.047,0.086 -63.482,4.768 -62.257,35.04c-14.232,-1.66 -21.92,3.099 -23.43,12.101c-0.15,0.889 -0.159,1.951 -0.011,3.09Zm7.586,10.607c1.144,0.474 2.43,0.789 3.866,0.895c-0.36,0.886 -0.552,1.859 -0.581,2.904c-1.127,-1.238 -2.222,-2.505 -3.285,-3.799Z" style="fill:#454545;"/><path d="M83.046,172.117c13.323,0.424 27.674,0.433 43.124,0" style="fill:none;stroke:#0d0600;stroke-width:2px;"/><path d="M5.183,67.228l64.728,46.638c-10.948,6.191 -21.65,12.523 -32.031,19.036c-14.233,-1.659 -21.92,3.099 -23.431,12.102c-0.087,0.522 -0.127,1.104 -0.114,1.727c-0.001,-0.542 0.039,-1.05 0.116,-1.512c1.511,-9.002 9.199,-13.761 23.431,-12.101c10.433,-6.547 21.191,-12.91 32.198,-19.131l89.338,64.369c-22.793,23.404 -53.771,26.698 -62.592,26.545c-45.591,-0.793 -76.185,-32.17 -70.933,-45.091l-0.083,-0.007c-0.309,0.83 -0.474,1.733 -0.501,2.697c-1.034,-1.137 -2.041,-2.297 -3.02,-3.48c-5.071,-1.956 -7.445,-6.997 -7.88,-10.974c-9.06,-14.662 -14.272,-31.834 -14.272,-50.183c0,-10.7 1.772,-21 5.046,-30.635Z" style="fill:#fff;fill-opacity:0.270588;"/></g></svg>