<?xml version="1.0" encoding="UTF-8" standalone="no"?><!DOCTYPE svg PUBLIC "-//W3C//DTD SVG 1.1//EN" "http://www.w3.org/Graphics/SVG/1.1/DTD/svg11.dtd"><svg width="100%" height="100%" viewBox="0 0 64 74" version="1.1" xmlns="http://www.w3.org/2000/svg" xmlns:xlink="http://www.w3.org/1999/xlink" xml:space="preserve" style="fill-rule:evenodd;clip-rule:evenodd;stroke-linejoin:round;stroke-miterlimit:1.41421;"><path d="M14.915,27.763l1.879,0l-3.81,42.131l-2.071,0l4.002,-42.131Z" style="fill:#737070;"/><path d="M16.623,27.766c5.164,-0.63 9.171,-5.383 9.938,-11.557c0.374,-3.014 -0.418,-10.03 0.65,-13.952c0.628,-2.305 3.555,-2.256 4.709,-2.217c1.701,0.057 4.475,0.529 5.505,2.217c2.85,4.674 0.076,24.262 -1.185,24.227c0,0 18.735,-0.926 23.202,0c2.161,0.448 3.59,3.61 3.601,5.557c0.029,5.207 -5.04,6.169 -5.913,5.894c-1.883,-0.595 2.038,1.926 2.312,5.191c0.464,5.529 -5.098,5.798 -5.421,5.716c-1.08,-0.273 2.739,3.986 1.929,6.721c-1.332,4.503 -4.842,2.909 -5.548,3.682c-0.668,0.733 3.816,0.806 2.135,5.976c-0.552,1.699 -1.391,4.239 -3.766,4.619c-6.624,1.061 -36.219,0 -36.219,0l4.071,-42.074" style="fill:#8c8c8c;"/><path d="M31.244,7.665l-4.649,0c0,0 -0.062,-4.342 0.84,-5.913c1.146,-1.996 3.809,-1.742 3.809,-1.742l0,7.655Z" style="fill:#a3a3a3;"/><path d="M0,24.676l15.469,0l-4.472,48.458l-10.997,0l0,-48.458Z" style="fill:#f2c05d;"/><circle cx="6.316" cy="63.649" r="3.96" style="fill:#fff;"/><path d="M6.419,59.69l0.101,0.004l0.101,0.006l0.1,0.009l0.099,0.012l0.099,0.014l0.098,0.016l0.097,0.018l0.096,0.021l0.096,0.024l0.094,0.025l0.093,0.028l0.093,0.03l0.091,0.032l0.091,0.035l0.089,0.036l0.088,0.039l0.088,0.041l0.086,0.042l0.084,0.045l0.084,0.047l0.082,0.049l0.081,0.05l0.08,0.053l0.078,0.054l0.077,0.056l0.076,0.058l0.074,0.06l0.072,0.061l0.071,0.063l0.07,0.065l0.068,0.066l0.066,0.068l0.065,0.07l0.063,0.071l0.062,0.073l0.059,0.074l0.058,0.075l0.056,0.077l0.055,0.078l0.052,0.08l0.051,0.081l0.048,0.082l0.047,0.084l0.045,0.085l0.043,0.086l0.04,0.087l0.039,0.088l0.037,0.089l0.034,0.091l0.032,0.091l0.03,0.093l0.028,0.093l0.026,0.095l0.023,0.095l0.021,0.096l0.019,0.097l0.016,0.098l0.014,0.099l0.011,0.099l0.009,0.1l0.006,0.101l0.004,0.102l0.001,0.102l-0.001,0.102l-0.004,0.102l-0.006,0.1l-0.009,0.101l-0.011,0.099l-0.014,0.099l-0.016,0.097l-0.019,0.098l-0.021,0.096l-0.023,0.095l-0.026,0.094l-0.028,0.094l-0.03,0.092l-0.032,0.092l-0.034,0.09l-0.037,0.09l-0.039,0.088l-0.04,0.087l-0.043,0.086l-0.045,0.085l-0.047,0.083l-0.048,0.083l-0.051,0.081l-0.052,0.079l-0.055,0.079l-0.056,0.077l-0.058,0.075l-0.059,0.074l-0.062,0.073l-0.063,0.071l-0.065,0.069l-0.066,0.068l-0.068,0.067l-0.07,0.065l-0.071,0.063l-0.072,0.061l-0.074,0.06l-0.076,0.058l-0.077,0.056l-0.078,0.054l-0.08,0.053l-0.081,0.05l-0.082,0.049l-0.084,0.047l-0.084,0.044l-0.086,0.043l-0.088,0.041l-0.088,0.038l-0.089,0.037l-0.091,0.034l-0.091,0.033l-0.093,0.03l-0.093,0.028l-0.094,0.025l-0.096,0.023l-0.096,0.021l-0.097,0.019l-0.098,0.016l-0.099,0.014l-0.099,0.011l-0.1,0.009l-0.101,0.007l-0.101,0.004l-0.103,0.001l-0.102,-0.001l-0.101,-0.004l-0.101,-0.007l-0.1,-0.009l-0.1,-0.011l-0.098,-0.014l-0.098,-0.016l-0.097,-0.019l-0.096,-0.021l-0.096,-0.023l-0.094,-0.025l-0.094,-0.028l-0.092,-0.03l-0.092,-0.033l-0.09,-0.034l-0.089,-0.037l-0.089,-0.038l-0.087,-0.041l-0.086,-0.043l-0.085,-0.044l-0.083,-0.047l-0.082,-0.049l-0.081,-0.05l-0.08,-0.053l-0.078,-0.054l-0.077,-0.056l-0.076,-0.058l-0.074,-0.06l-0.073,-0.061l-0.071,-0.063l-0.069,-0.065l-0.068,-0.067l-0.067,-0.068l-0.064,-0.069l-0.063,-0.071l-0.062,-0.073l-0.06,-0.074l-0.057,-0.075l-0.057,-0.077l-0.054,-0.079l-0.052,-0.079l-0.051,-0.081l-0.049,-0.083l-0.046,-0.083l-0.045,-0.085l-0.043,-0.086l-0.041,-0.087l-0.038,-0.088l-0.037,-0.09l-0.034,-0.09l-0.032,-0.092l-0.03,-0.092l-0.028,-0.094l-0.026,-0.094l-0.023,-0.095l-0.021,-0.096l-0.019,-0.098l-0.016,-0.097l-0.014,-0.099l-0.011,-0.099l-0.009,-0.101l-0.006,-0.1l-0.004,-0.102l-0.002,-0.102l0.002,-0.102l0.004,-0.102l0.006,-0.101l0.009,-0.1l0.011,-0.099l0.014,-0.099l0.016,-0.098l0.019,-0.097l0.021,-0.096l0.023,-0.095l0.026,-0.095l0.028,-0.093l0.03,-0.093l0.032,-0.091l0.034,-0.091l0.037,-0.089l0.038,-0.088l0.041,-0.087l0.043,-0.086l0.045,-0.085l0.046,-0.084l0.049,-0.082l0.051,-0.081l0.052,-0.08l0.054,-0.078l0.057,-0.077l0.057,-0.075l0.06,-0.074l0.062,-0.073l0.063,-0.071l0.064,-0.07l0.067,-0.068l0.068,-0.066l0.069,-0.065l0.071,-0.063l0.073,-0.061l0.074,-0.06l0.076,-0.058l0.077,-0.056l0.078,-0.054l0.08,-0.053l0.081,-0.05l0.082,-0.049l0.083,-0.047l0.085,-0.045l0.086,-0.042l0.087,-0.041l0.089,-0.039l0.089,-0.036l0.09,-0.035l0.092,-0.032l0.092,-0.03l0.094,-0.028l0.094,-0.025l0.096,-0.024l0.096,-0.021l0.097,-0.018l0.098,-0.016l0.098,-0.014l0.1,-0.012l0.1,-0.009l0.101,-0.006l0.101,-0.004l0.102,-0.001l0.103,0.001Zm-0.179,1l-0.076,0.003l-0.075,0.004l-0.074,0.007l-0.077,0.009l-0.075,0.01l-0.07,0.012l-0.074,0.014l-0.073,0.016l-0.068,0.017l-0.072,0.019l-0.069,0.021l-0.069,0.022l-0.069,0.025l-0.066,0.024l-0.067,0.028l-0.067,0.029l-0.064,0.03l-0.064,0.032l-0.064,0.034l-0.062,0.035l-0.062,0.036l-0.061,0.038l-0.06,0.04l-0.058,0.04l-0.057,0.042l-0.057,0.043l-0.055,0.044l-0.055,0.047l-0.053,0.047l-0.051,0.048l-0.053,0.052l-0.049,0.05l-0.049,0.052l-0.047,0.053l-0.044,0.053l-0.046,0.057l-0.044,0.056l-0.042,0.058l-0.041,0.059l-0.039,0.059l-0.038,0.061l-0.036,0.061l-0.035,0.062l-0.033,0.064l-0.032,0.063l-0.03,0.065l-0.029,0.067l-0.027,0.066l-0.027,0.069l-0.024,0.068l-0.022,0.068l-0.02,0.068l-0.019,0.071l-0.018,0.073l-0.015,0.071l-0.014,0.072l-0.012,0.074l-0.011,0.074l-0.008,0.073l-0.007,0.074l-0.005,0.077l-0.002,0.076l-0.001,0.077l0.001,0.077l0.002,0.076l0.005,0.077l0.007,0.074l0.008,0.073l0.011,0.074l0.012,0.073l0.014,0.073l0.015,0.071l0.018,0.073l0.019,0.071l0.02,0.068l0.022,0.067l0.024,0.068l0.027,0.069l0.027,0.067l0.029,0.066l0.03,0.066l0.032,0.063l0.033,0.063l0.035,0.063l0.036,0.06l0.039,0.062l0.038,0.059l0.041,0.059l0.042,0.058l0.044,0.056l0.046,0.057l0.043,0.051l0.048,0.055l0.05,0.053l0.049,0.05l0.051,0.05l0.051,0.048l0.054,0.047l0.055,0.047l0.055,0.044l0.057,0.044l0.057,0.042l0.059,0.041l0.06,0.039l0.059,0.037l0.061,0.036l0.066,0.037l0.062,0.033l0.062,0.031l0.068,0.031l0.065,0.029l0.066,0.027l0.067,0.025l0.069,0.024l0.07,0.023l0.068,0.021l0.07,0.018l0.072,0.018l0.071,0.016l0.072,0.014l0.074,0.012l0.074,0.01l0.074,0.009l0.074,0.006l0.077,0.005l0.076,0.003l0.077,0.001l0.076,-0.001l0.076,-0.003l0.077,-0.005l0.074,-0.006l0.074,-0.009l0.074,-0.01l0.073,-0.012l0.072,-0.014l0.072,-0.016l0.072,-0.018l0.069,-0.018l0.068,-0.021l0.071,-0.023l0.069,-0.024l0.067,-0.025l0.066,-0.027l0.065,-0.029l0.067,-0.031l0.064,-0.032l0.062,-0.033l0.064,-0.036l0.061,-0.036l0.059,-0.037l0.06,-0.039l0.059,-0.041l0.058,-0.042l0.057,-0.044l0.054,-0.044l0.056,-0.047l0.055,-0.048l0.05,-0.047l0.05,-0.049l0.05,-0.051l0.049,-0.053l0.049,-0.055l0.044,-0.052l0.045,-0.056l0.044,-0.056l0.042,-0.058l0.04,-0.058l0.039,-0.06l0.039,-0.062l0.036,-0.06l0.035,-0.063l0.033,-0.063l0.032,-0.065l0.03,-0.064l0.028,-0.064l0.028,-0.069l0.026,-0.069l0.025,-0.068l0.021,-0.067l0.021,-0.07l0.019,-0.069l0.017,-0.071l0.016,-0.073l0.014,-0.073l0.012,-0.073l0.011,-0.074l0.008,-0.073l0.007,-0.076l0.005,-0.075l0.002,-0.076l0.001,-0.077l-0.001,-0.077l-0.002,-0.076l-0.005,-0.075l-0.007,-0.076l-0.008,-0.073l-0.011,-0.074l-0.012,-0.074l-0.014,-0.072l-0.016,-0.073l-0.017,-0.071l-0.019,-0.069l-0.021,-0.07l-0.022,-0.068l-0.024,-0.068l-0.026,-0.069l-0.028,-0.068l-0.028,-0.065l-0.03,-0.064l-0.032,-0.064l-0.033,-0.064l-0.035,-0.062l-0.036,-0.061l-0.038,-0.061l-0.04,-0.06l-0.04,-0.058l-0.042,-0.058l-0.044,-0.056l-0.045,-0.056l-0.045,-0.054l-0.048,-0.053l-0.048,-0.052l-0.05,-0.051l-0.052,-0.051l-0.051,-0.047l-0.053,-0.048l-0.056,-0.047l-0.054,-0.044l-0.057,-0.043l-0.058,-0.042l-0.057,-0.04l-0.06,-0.04l-0.062,-0.038l-0.061,-0.037l-0.061,-0.034l-0.064,-0.033l-0.065,-0.033l-0.064,-0.03l-0.067,-0.029l-0.068,-0.028l-0.065,-0.024l-0.069,-0.025l-0.069,-0.022l-0.07,-0.021l-0.071,-0.019l-0.068,-0.017l-0.074,-0.016l-0.074,-0.014l-0.069,-0.012l-0.074,-0.01l-0.078,-0.009l-0.074,-0.007l-0.075,-0.004l-0.076,-0.003l-0.076,-0.001l-0.077,0.001Z" style="fill:#f2c05d;"/></svg>