<?xml version="1.0" encoding="UTF-8" standalone="no"?><!DOCTYPE svg PUBLIC "-//W3C//DTD SVG 1.1//EN" "http://www.w3.org/Graphics/SVG/1.1/DTD/svg11.dtd"><svg width="100%" height="100%" viewBox="0 0 200 205" version="1.1" xmlns="http://www.w3.org/2000/svg" xmlns:xlink="http://www.w3.org/1999/xlink" xml:space="preserve" style="fill-rule:evenodd;clip-rule:evenodd;stroke-linecap:round;stroke-linejoin:bevel;stroke-miterlimit:1.5;"><g><path d="M37.745,132.729c1.81,-49.743 21.01,-58.833 72.825,-57.433c44.194,-5.632 62.18,14.03 53.194,57.433c9.635,-2.791 17.304,1.251 18.743,12.102c0.546,4.112 -6.399,13.582 -13.996,12.331c0,0 -1.126,11.103 -2.371,12.771c-22.92,30.71 -59.705,34.749 -69.451,34.58c-45.591,-0.793 -76.184,-32.171 -70.933,-45.091c-9.214,-0.677 -12.217,-9.969 -11.441,-14.591c1.511,-9.003 9.198,-13.762 23.43,-12.102Z" style="fill:#fbcb9d;"/><path d="M14.302,147.705c-9.078,-14.673 -14.302,-31.862 -14.302,-50.231c0,-53.797 44.808,-97.474 100,-97.474c55.192,0 100,43.677 100,97.474c0,29.958 -13.895,56.778 -35.74,74.664c0.635,-0.787 1.262,-1.594 1.878,-2.42c1.245,-1.668 2.371,-12.771 2.371,-12.771c7.596,1.251 14.542,-8.219 13.996,-12.332c-1.439,-10.85 -9.108,-14.892 -18.743,-12.101c2.592,-62.596 -27.869,-53.759 -51.832,-53.853c-53.41,-0.209 -71.155,17.443 -74.187,53.853c-14.232,-1.66 -21.92,3.099 -23.43,12.101c-0.15,0.889 -0.159,1.951 -0.011,3.09Zm7.586,10.607c1.144,0.474 2.43,0.789 3.866,0.895c-0.36,0.886 -0.552,1.859 -0.581,2.904c-1.127,-1.238 -2.222,-2.505 -3.285,-3.799Z" style="fill:#454545;"/><path d="M87.699,172.117c9.277,8.863 19.27,9.055 30.028,0" style="fill:none;stroke:#0d0600;stroke-width:2px;"/><path d="M5.532,66.999l64.728,46.637c-10.948,6.191 -21.651,12.523 -32.032,19.037c-14.232,-1.66 -21.919,3.099 -23.43,12.101c-0.088,0.522 -0.127,1.104 -0.115,1.727c0,-0.542 0.04,-1.05 0.117,-1.512c1.511,-9.002 9.198,-13.761 23.431,-12.101c10.433,-6.547 21.191,-12.909 32.197,-19.131l89.339,64.37c-22.794,23.403 -53.771,26.698 -62.593,26.544c-45.591,-0.792 -76.184,-32.17 -70.933,-45.091l-0.083,-0.006c-0.308,0.829 -0.473,1.732 -0.5,2.696c-1.034,-1.137 -2.041,-2.297 -3.021,-3.48c-5.071,-1.956 -7.444,-6.997 -7.879,-10.973c-9.06,-14.663 -14.273,-31.835 -14.273,-50.184c0,-10.7 1.773,-20.999 5.047,-30.634Z" style="fill:#fff;fill-opacity:0.270588;"/></g></svg>