<?xml version="1.0" encoding="UTF-8" standalone="no"?><!DOCTYPE svg PUBLIC "-//W3C//DTD SVG 1.1//EN" "http://www.w3.org/Graphics/SVG/1.1/DTD/svg11.dtd"><svg width="100%" height="100%" viewBox="0 0 38 37" version="1.1" xmlns="http://www.w3.org/2000/svg" xmlns:xlink="http://www.w3.org/1999/xlink" xml:space="preserve" style="fill-rule:evenodd;clip-rule:evenodd;stroke-linejoin:round;stroke-miterlimit:1.41421;"><g><path d="M18.835,16.393l0.109,0.001l0.11,0.002l0.11,0.002l0.109,0.004l0.11,0.004l0.109,0.005l0.109,0.006l0.109,0.007l0.108,0.007l0.109,0.008l0.108,0.009l0.108,0.01l0.108,0.01l0.108,0.011l0.108,0.012l0.107,0.013l0.108,0.013l0.107,0.014l0.107,0.015l0.107,0.016l0.106,0.016l0.107,0.017l0.106,0.018l0.106,0.018l0.106,0.02l0.211,0.04l0.211,0.044l0.209,0.046l0.209,0.05l0.208,0.052l0.207,0.055l0.207,0.058l0.205,0.061l0.205,0.063l0.204,0.066l0.203,0.069l0.201,0.072l0.202,0.074l0.2,0.077l0.199,0.08l0.198,0.082l0.197,0.085l0.197,0.088l0.195,0.09l0.194,0.093l0.193,0.096l0.193,0.098l0.191,0.1l0.19,0.103l0.189,0.106l0.188,0.108l0.187,0.11l0.185,0.113l0.185,0.116l0.183,0.118l0.183,0.12l0.181,0.123l0.18,0.125l0.178,0.127l0.178,0.13l0.176,0.132l0.175,0.134l0.174,0.137l0.172,0.139l0.171,0.141l0.17,0.143l0.169,0.146l0.167,0.148l0.166,0.15l0.165,0.152l0.163,0.154l0.162,0.157l0.16,0.158l0.159,0.161l0.158,0.163l0.156,0.165l0.155,0.166l0.153,0.169l0.152,0.171l0.15,0.173l0.149,0.175l0.148,0.177l0.145,0.179l0.145,0.181l0.142,0.183l0.142,0.184l0.139,0.187l0.138,0.188l0.137,0.19l0.134,0.192l0.133,0.194l0.132,0.196l0.13,0.197l0.128,0.2l0.126,0.201l0.125,0.202l0.123,0.205l0.122,0.206l0.119,0.208l0.118,0.209l0.116,0.211l0.114,0.213l0.113,0.214l0.111,0.216l0.109,0.218l0.107,0.219l0.105,0.221l0.103,0.222l0.102,0.224l0.099,0.225l0.098,0.226l0.096,0.229l0.093,0.229l0.092,0.231l0.09,0.233l0.088,0.233l0.086,0.236l0.084,0.236l0.082,0.238l0.08,0.239l0.078,0.241l0.076,0.242l0.073,0.243l0.072,0.244l0.07,0.246l0.067,0.247l0.066,0.248l0.063,0.249l0.061,0.25l0.059,0.252l0.057,0.253l0.054,0.253l0.053,0.255l0.05,0.256l0.048,0.258l0.046,0.258l0.043,0.259l0.041,0.26l0.039,0.262l0.037,0.262l-37.449,0l0.037,-0.262l0.039,-0.262l0.041,-0.26l0.043,-0.259l0.046,-0.258l0.048,-0.258l0.05,-0.256l0.053,-0.255l0.054,-0.253l0.057,-0.253l0.059,-0.252l0.061,-0.25l0.063,-0.249l0.066,-0.248l0.067,-0.247l0.07,-0.246l0.072,-0.244l0.073,-0.243l0.076,-0.242l0.078,-0.241l0.08,-0.239l0.082,-0.238l0.084,-0.236l0.086,-0.236l0.088,-0.233l0.09,-0.233l0.092,-0.231l0.094,-0.229l0.095,-0.229l0.098,-0.226l0.099,-0.225l0.102,-0.224l0.103,-0.222l0.105,-0.221l0.107,-0.219l0.109,-0.218l0.111,-0.216l0.113,-0.214l0.114,-0.213l0.116,-0.211l0.118,-0.209l0.119,-0.208l0.122,-0.206l0.123,-0.205l0.125,-0.202l0.126,-0.201l0.128,-0.2l0.13,-0.197l0.132,-0.196l0.133,-0.194l0.134,-0.192l0.137,-0.19l0.138,-0.188l0.139,-0.187l0.142,-0.184l0.142,-0.183l0.145,-0.181l0.145,-0.179l0.148,-0.177l0.149,-0.175l0.15,-0.173l0.152,-0.171l0.153,-0.169l0.155,-0.166l0.156,-0.165l0.158,-0.163l0.159,-0.161l0.16,-0.158l0.162,-0.157l0.163,-0.154l0.165,-0.152l0.166,-0.15l0.167,-0.148l0.169,-0.146l0.17,-0.143l0.171,-0.141l0.172,-0.139l0.174,-0.137l0.175,-0.134l0.176,-0.132l0.178,-0.13l0.178,-0.127l0.18,-0.125l0.181,-0.123l0.183,-0.12l0.183,-0.118l0.185,-0.116l0.185,-0.113l0.187,-0.11l0.188,-0.108l0.189,-0.106l0.19,-0.103l0.191,-0.1l0.193,-0.098l0.193,-0.096l0.194,-0.093l0.195,-0.09l0.197,-0.088l0.197,-0.085l0.198,-0.082l0.199,-0.08l0.2,-0.077l0.202,-0.074l0.202,-0.072l0.202,-0.069l0.204,-0.066l0.205,-0.063l0.205,-0.061l0.207,-0.058l0.207,-0.055l0.208,-0.052l0.209,-0.05l0.209,-0.046l0.211,-0.044l0.211,-0.04l0.106,-0.02l0.106,-0.018l0.106,-0.018l0.107,-0.017l0.106,-0.016l0.107,-0.016l0.107,-0.015l0.107,-0.014l0.108,-0.013l0.107,-0.013l0.108,-0.012l0.108,-0.011l0.108,-0.01l0.108,-0.01l0.108,-0.009l0.109,-0.008l0.108,-0.007l0.109,-0.007l0.109,-0.006l0.109,-0.005l0.11,-0.004l0.109,-0.004l0.11,-0.002l0.11,-0.002l0.109,-0.001l0.111,-0.001l0.11,0.001Zm-0.201,2.999l-0.085,0.001l-0.09,0.002l-0.091,0.002l-0.086,0.003l-0.087,0.003l-0.087,0.004l-0.089,0.005l-0.09,0.006l-0.085,0.005l-0.086,0.007l-0.089,0.007l-0.088,0.008l-0.086,0.008l-0.085,0.009l-0.091,0.01l-0.084,0.01l-0.085,0.01l-0.09,0.012l-0.084,0.012l-0.084,0.012l-0.087,0.014l-0.086,0.013l-0.087,0.015l-0.083,0.014l-0.079,0.015l-0.178,0.034l-0.169,0.035l-0.169,0.038l-0.169,0.04l-0.168,0.042l-0.168,0.044l-0.166,0.047l-0.167,0.049l-0.165,0.051l-0.165,0.054l-0.165,0.056l-0.166,0.059l-0.162,0.06l-0.163,0.063l-0.164,0.065l-0.159,0.067l-0.163,0.07l-0.161,0.071l-0.159,0.074l-0.161,0.077l-0.159,0.078l-0.156,0.08l-0.158,0.083l-0.158,0.086l-0.155,0.087l-0.156,0.089l-0.155,0.092l-0.154,0.093l-0.154,0.097l-0.153,0.098l-0.151,0.1l-0.151,0.102l-0.15,0.104l-0.15,0.107l-0.15,0.11l-0.147,0.11l-0.147,0.113l-0.147,0.115l-0.145,0.117l-0.144,0.119l-0.144,0.122l-0.143,0.123l-0.141,0.125l-0.142,0.128l-0.14,0.13l-0.139,0.131l-0.137,0.132l-0.138,0.136l-0.135,0.138l-0.135,0.139l-0.135,0.142l-0.132,0.143l-0.132,0.145l-0.131,0.147l-0.129,0.148l-0.128,0.151l-0.127,0.153l-0.127,0.155l-0.124,0.156l-0.123,0.158l-0.123,0.16l-0.121,0.162l-0.12,0.164l-0.119,0.165l-0.117,0.168l-0.116,0.168l-0.114,0.17l-0.114,0.173l-0.112,0.174l-0.11,0.176l-0.11,0.177l-0.107,0.179l-0.107,0.181l-0.105,0.182l-0.103,0.185l-0.103,0.186l-0.1,0.186l-0.099,0.188l-0.097,0.191l-0.096,0.191l-0.095,0.194l-0.093,0.195l-0.091,0.196l-0.09,0.198l-0.087,0.198l-0.087,0.201l-0.085,0.203l-0.083,0.203l-0.081,0.204l-0.08,0.207l-0.078,0.207l-0.076,0.209l-0.075,0.211l-0.073,0.21l-0.071,0.214l-0.07,0.214l-0.067,0.215l-0.066,0.217l-0.063,0.217l-0.063,0.22l-0.004,0.017l30.109,0l-0.004,-0.017l-0.063,-0.22l-0.063,-0.217l-0.066,-0.217l-0.067,-0.215l-0.07,-0.214l-0.071,-0.214l-0.073,-0.21l-0.075,-0.211l-0.076,-0.209l-0.078,-0.207l-0.08,-0.207l-0.081,-0.204l-0.083,-0.203l-0.085,-0.203l-0.087,-0.201l-0.087,-0.198l-0.09,-0.198l-0.091,-0.196l-0.093,-0.195l-0.095,-0.194l-0.096,-0.191l-0.097,-0.191l-0.099,-0.188l-0.1,-0.186l-0.103,-0.186l-0.103,-0.185l-0.106,-0.183l-0.106,-0.18l-0.107,-0.178l-0.11,-0.178l-0.11,-0.176l-0.112,-0.174l-0.114,-0.173l-0.114,-0.17l-0.116,-0.169l-0.117,-0.167l-0.119,-0.165l-0.12,-0.164l-0.121,-0.162l-0.123,-0.16l-0.123,-0.158l-0.124,-0.156l-0.127,-0.155l-0.127,-0.153l-0.128,-0.151l-0.129,-0.148l-0.131,-0.147l-0.132,-0.145l-0.133,-0.143l-0.134,-0.142l-0.134,-0.139l-0.136,-0.137l-0.138,-0.136l-0.138,-0.134l-0.138,-0.13l-0.14,-0.13l-0.142,-0.128l-0.141,-0.125l-0.143,-0.124l-0.144,-0.121l-0.143,-0.118l-0.146,-0.117l-0.147,-0.116l-0.147,-0.113l-0.147,-0.11l-0.15,-0.11l-0.15,-0.107l-0.15,-0.104l-0.151,-0.102l-0.151,-0.1l-0.152,-0.098l-0.155,-0.097l-0.154,-0.093l-0.155,-0.092l-0.156,-0.09l-0.155,-0.086l-0.157,-0.085l-0.159,-0.084l-0.156,-0.08l-0.159,-0.078l-0.161,-0.077l-0.159,-0.074l-0.161,-0.071l-0.162,-0.07l-0.16,-0.067l-0.164,-0.065l-0.163,-0.063l-0.162,-0.06l-0.166,-0.059l-0.165,-0.056l-0.165,-0.054l-0.165,-0.051l-0.167,-0.049l-0.166,-0.047l-0.168,-0.044l-0.168,-0.042l-0.169,-0.04l-0.169,-0.038l-0.169,-0.035l-0.178,-0.034l-0.079,-0.015l-0.083,-0.014l-0.087,-0.015l-0.086,-0.013l-0.087,-0.014l-0.084,-0.012l-0.084,-0.012l-0.091,-0.012l-0.084,-0.01l-0.084,-0.01l-0.091,-0.01l-0.085,-0.009l-0.086,-0.008l-0.088,-0.008l-0.089,-0.007l-0.086,-0.007l-0.085,-0.005l-0.09,-0.006l-0.089,-0.005l-0.087,-0.004l-0.087,-0.003l-0.086,-0.003l-0.091,-0.002l-0.09,-0.002l-0.085,-0.001l-0.09,0l-0.091,0Z" style="fill:#454545;"/><path d="M11.102,6.034l-10.25,5.933l0.057,-11.967l10.193,6.034Zm-7.225,0.716l1.287,-0.745l-1.28,-0.758l-0.007,1.503Z" style="fill:#454545;"/><path d="M34.189,11.967l-10.25,-5.933l10.192,-6.034l0.058,11.967Zm-4.312,-5.962l1.287,0.745l-0.008,-1.503l-1.279,0.758Z" style="fill:#454545;"/></g></svg>