<?xml version="1.0" encoding="UTF-8" standalone="no"?><!DOCTYPE svg PUBLIC "-//W3C//DTD SVG 1.1//EN" "http://www.w3.org/Graphics/SVG/1.1/DTD/svg11.dtd"><svg width="100%" height="100%" viewBox="0 0 39 38" version="1.1" xmlns="http://www.w3.org/2000/svg" xmlns:xlink="http://www.w3.org/1999/xlink" xml:space="preserve" style="fill-rule:evenodd;clip-rule:evenodd;stroke-linejoin:round;stroke-miterlimit:1.41421;"><g><path d="M19.424,17.444l0.113,0.001l0.113,0.002l0.113,0.003l0.113,0.003l0.113,0.005l0.113,0.005l0.112,0.006l0.112,0.007l0.112,0.007l0.112,0.009l0.112,0.009l0.111,0.01l0.112,0.01l0.111,0.012l0.111,0.012l0.111,0.013l0.111,0.014l0.11,0.014l0.111,0.016l0.11,0.016l0.11,0.017l0.109,0.017l0.11,0.019l0.109,0.019l0.11,0.02l0.109,0.02l0.108,0.022l0.109,0.022l0.108,0.023l0.109,0.023l0.108,0.025l0.107,0.025l0.108,0.026l0.107,0.026l0.107,0.027l0.107,0.028l0.107,0.029l0.107,0.03l0.106,0.03l0.106,0.031l0.106,0.031l0.211,0.066l0.21,0.068l0.209,0.071l0.209,0.074l0.207,0.077l0.207,0.079l0.205,0.082l0.204,0.085l0.204,0.088l0.202,0.091l0.202,0.093l0.2,0.095l0.199,0.099l0.198,0.101l0.198,0.104l0.196,0.106l0.195,0.109l0.193,0.111l0.193,0.114l0.192,0.117l0.19,0.119l0.189,0.121l0.188,0.124l0.187,0.127l0.185,0.129l0.184,0.131l0.184,0.134l0.181,0.136l0.181,0.139l0.179,0.14l0.178,0.144l0.176,0.145l0.176,0.148l0.173,0.15l0.173,0.153l0.171,0.155l0.17,0.157l0.168,0.159l0.167,0.161l0.166,0.164l0.164,0.165l0.162,0.168l0.161,0.17l0.16,0.172l0.158,0.175l0.157,0.176l0.155,0.178l0.153,0.181l0.152,0.182l0.15,0.185l0.149,0.186l0.147,0.189l0.146,0.19l0.144,0.192l0.142,0.195l0.141,0.196l0.139,0.198l0.137,0.2l0.136,0.201l0.134,0.204l0.132,0.206l0.13,0.207l0.129,0.209l0.127,0.211l0.125,0.212l0.123,0.215l0.122,0.216l0.12,0.217l0.118,0.22l0.116,0.221l0.114,0.223l0.112,0.224l0.11,0.226l0.109,0.227l0.106,0.23l0.105,0.23l0.103,0.232l0.1,0.234l0.099,0.235l0.097,0.237l0.095,0.238l0.092,0.24l0.091,0.241l0.089,0.243l0.086,0.244l0.085,0.245l0.082,0.247l0.081,0.248l0.078,0.249l0.076,0.251l0.074,0.252l0.072,0.253l0.069,0.255l0.068,0.256l0.065,0.257l0.063,0.258l0.061,0.26l0.059,0.26l0.056,0.262l0.054,0.263l0.052,0.264l0.049,0.265l0.047,0.266l0.045,0.268l0.043,0.268l0.04,0.27l0.038,0.27l-38.621,0l0.038,-0.27l0.04,-0.27l0.042,-0.268l0.045,-0.268l0.047,-0.266l0.05,-0.265l0.052,-0.264l0.054,-0.263l0.056,-0.262l0.059,-0.26l0.06,-0.26l0.063,-0.258l0.066,-0.257l0.067,-0.256l0.07,-0.255l0.072,-0.253l0.074,-0.252l0.076,-0.251l0.078,-0.249l0.08,-0.248l0.083,-0.247l0.084,-0.245l0.087,-0.244l0.088,-0.243l0.091,-0.241l0.093,-0.24l0.095,-0.238l0.096,-0.237l0.099,-0.235l0.101,-0.234l0.102,-0.232l0.105,-0.23l0.107,-0.23l0.108,-0.227l0.111,-0.226l0.112,-0.224l0.114,-0.223l0.116,-0.221l0.118,-0.22l0.12,-0.217l0.121,-0.216l0.123,-0.215l0.126,-0.212l0.126,-0.211l0.129,-0.209l0.131,-0.207l0.132,-0.206l0.134,-0.204l0.135,-0.201l0.138,-0.2l0.139,-0.198l0.14,-0.196l0.143,-0.195l0.144,-0.192l0.145,-0.19l0.147,-0.189l0.149,-0.186l0.15,-0.185l0.152,-0.182l0.154,-0.181l0.155,-0.178l0.157,-0.176l0.158,-0.175l0.159,-0.172l0.161,-0.17l0.163,-0.168l0.164,-0.165l0.165,-0.164l0.167,-0.161l0.169,-0.159l0.169,-0.157l0.172,-0.155l0.172,-0.153l0.174,-0.15l0.175,-0.148l0.177,-0.145l0.178,-0.144l0.179,-0.14l0.18,-0.139l0.182,-0.136l0.183,-0.134l0.184,-0.131l0.186,-0.129l0.187,-0.127l0.188,-0.124l0.189,-0.121l0.19,-0.119l0.192,-0.117l0.192,-0.114l0.194,-0.111l0.195,-0.109l0.196,-0.106l0.197,-0.104l0.198,-0.101l0.2,-0.099l0.2,-0.095l0.201,-0.093l0.203,-0.091l0.203,-0.088l0.205,-0.085l0.205,-0.082l0.206,-0.079l0.208,-0.077l0.208,-0.074l0.209,-0.071l0.211,-0.068l0.211,-0.066l0.105,-0.031l0.107,-0.031l0.106,-0.03l0.106,-0.03l0.107,-0.029l0.107,-0.028l0.107,-0.027l0.108,-0.026l0.107,-0.026l0.108,-0.025l0.108,-0.025l0.108,-0.023l0.109,-0.023l0.108,-0.022l0.109,-0.022l0.109,-0.02l0.109,-0.02l0.11,-0.019l0.109,-0.019l0.11,-0.017l0.11,-0.017l0.11,-0.016l0.11,-0.016l0.111,-0.014l0.111,-0.014l0.11,-0.013l0.111,-0.012l0.112,-0.012l0.111,-0.01l0.112,-0.01l0.111,-0.009l0.112,-0.009l0.112,-0.007l0.113,-0.007l0.112,-0.006l0.113,-0.005l0.112,-0.005l0.113,-0.003l0.113,-0.003l0.113,-0.002l0.114,-0.001l0.113,-0.001l0.114,0.001Zm-0.203,3.5l-0.087,0l-0.089,0.002l-0.089,0.002l-0.086,0.003l-0.089,0.004l-0.089,0.004l-0.088,0.004l-0.086,0.005l-0.087,0.006l-0.088,0.007l-0.087,0.007l-0.086,0.008l-0.087,0.008l-0.086,0.009l-0.087,0.01l-0.087,0.01l-0.086,0.01l-0.086,0.012l-0.087,0.012l-0.085,0.012l-0.085,0.013l-0.087,0.014l-0.086,0.015l-0.084,0.014l-0.084,0.016l-0.086,0.016l-0.085,0.017l-0.084,0.017l-0.086,0.018l-0.085,0.018l-0.083,0.019l-0.084,0.02l-0.084,0.02l-0.085,0.021l-0.084,0.021l-0.083,0.022l-0.083,0.023l-0.084,0.023l-0.084,0.024l-0.083,0.024l-0.077,0.023l-0.172,0.053l-0.165,0.053l-0.164,0.057l-0.166,0.058l-0.163,0.06l-0.163,0.063l-0.163,0.065l-0.161,0.067l-0.161,0.07l-0.162,0.072l-0.16,0.074l-0.16,0.077l-0.159,0.078l-0.158,0.081l-0.158,0.083l-0.158,0.085l-0.156,0.088l-0.156,0.089l-0.156,0.093l-0.154,0.093l-0.154,0.096l-0.154,0.1l-0.152,0.1l-0.151,0.102l-0.152,0.106l-0.151,0.108l-0.15,0.109l-0.147,0.11l-0.149,0.115l-0.148,0.116l-0.145,0.116l-0.145,0.121l-0.145,0.122l-0.144,0.124l-0.143,0.127l-0.141,0.127l-0.141,0.13l-0.141,0.134l-0.139,0.134l-0.138,0.136l-0.138,0.14l-0.135,0.139l-0.134,0.142l-0.135,0.145l-0.133,0.147l-0.132,0.148l-0.13,0.15l-0.13,0.153l-0.129,0.154l-0.126,0.156l-0.126,0.157l-0.126,0.161l-0.124,0.162l-0.121,0.163l-0.121,0.165l-0.121,0.168l-0.119,0.169l-0.116,0.17l-0.116,0.173l-0.116,0.175l-0.112,0.176l-0.112,0.177l-0.111,0.18l-0.109,0.181l-0.107,0.183l-0.107,0.185l-0.105,0.187l-0.103,0.186l-0.102,0.191l-0.1,0.191l-0.099,0.192l-0.097,0.194l-0.096,0.197l-0.094,0.197l-0.092,0.198l-0.091,0.201l-0.089,0.201l-0.088,0.203l-0.086,0.206l-0.085,0.207l-0.082,0.207l-0.081,0.209l-0.079,0.21l-0.077,0.212l-0.076,0.213l-0.074,0.214l-0.072,0.216l-0.07,0.218l-0.069,0.219l-0.05,0.165l29.971,0l-0.05,-0.165l-0.069,-0.219l-0.071,-0.218l-0.072,-0.216l-0.073,-0.214l-0.076,-0.213l-0.077,-0.212l-0.08,-0.21l-0.08,-0.209l-0.083,-0.207l-0.085,-0.207l-0.086,-0.206l-0.087,-0.203l-0.089,-0.201l-0.091,-0.201l-0.092,-0.198l-0.094,-0.197l-0.097,-0.197l-0.097,-0.194l-0.098,-0.192l-0.101,-0.191l-0.102,-0.191l-0.102,-0.186l-0.105,-0.187l-0.107,-0.185l-0.108,-0.183l-0.109,-0.181l-0.11,-0.18l-0.112,-0.177l-0.113,-0.176l-0.115,-0.175l-0.116,-0.173l-0.117,-0.17l-0.118,-0.169l-0.121,-0.168l-0.121,-0.165l-0.122,-0.163l-0.124,-0.162l-0.125,-0.161l-0.126,-0.157l-0.127,-0.156l-0.128,-0.154l-0.13,-0.153l-0.131,-0.15l-0.131,-0.148l-0.133,-0.147l-0.134,-0.144l-0.136,-0.143l-0.135,-0.14l-0.138,-0.139l-0.137,-0.136l-0.14,-0.134l-0.141,-0.134l-0.14,-0.13l-0.141,-0.127l-0.143,-0.127l-0.144,-0.124l-0.144,-0.122l-0.147,-0.121l-0.145,-0.117l-0.147,-0.115l-0.15,-0.115l-0.147,-0.11l-0.149,-0.109l-0.152,-0.108l-0.151,-0.106l-0.151,-0.102l-0.153,-0.1l-0.154,-0.1l-0.153,-0.096l-0.154,-0.093l-0.156,-0.093l-0.156,-0.089l-0.157,-0.088l-0.157,-0.085l-0.158,-0.083l-0.159,-0.081l-0.159,-0.078l-0.16,-0.077l-0.159,-0.074l-0.162,-0.072l-0.162,-0.07l-0.161,-0.067l-0.162,-0.065l-0.164,-0.063l-0.163,-0.06l-0.164,-0.058l-0.166,-0.057l-0.165,-0.053l-0.171,-0.053l-0.077,-0.023l-0.083,-0.024l-0.084,-0.024l-0.084,-0.023l-0.084,-0.023l-0.082,-0.022l-0.084,-0.021l-0.085,-0.021l-0.084,-0.02l-0.085,-0.02l-0.082,-0.019l-0.085,-0.018l-0.086,-0.018l-0.084,-0.017l-0.085,-0.017l-0.086,-0.016l-0.084,-0.015l-0.085,-0.015l-0.086,-0.015l-0.086,-0.014l-0.085,-0.013l-0.086,-0.012l-0.087,-0.012l-0.085,-0.011l-0.086,-0.011l-0.088,-0.011l-0.086,-0.009l-0.087,-0.009l-0.086,-0.008l-0.087,-0.008l-0.087,-0.007l-0.087,-0.007l-0.087,-0.006l-0.086,-0.005l-0.088,-0.004l-0.09,-0.004l-0.088,-0.004l-0.087,-0.003l-0.088,-0.002l-0.089,-0.002l-0.087,0l-0.09,-0.001l-0.089,0.001Z" style="fill:#585858;"/><path d="M10.911,6.223l-10.571,6.119l0.059,-12.342l10.512,6.223Zm-7.042,0.031l0.114,-0.065l-0.113,-0.067l-0.001,0.132Z" style="fill:#585858;"/><path d="M34.72,12.342l-10.571,-6.119l10.512,-6.223l0.059,12.342Zm-3.643,-6.153l0.114,0.065l-0.001,-0.132l-0.113,0.067Z" style="fill:#585858;"/></g></svg>