<?xml version="1.0" encoding="UTF-8" standalone="no"?><!DOCTYPE svg PUBLIC "-//W3C//DTD SVG 1.1//EN" "http://www.w3.org/Graphics/SVG/1.1/DTD/svg11.dtd"><svg width="100%" height="100%" viewBox="0 0 1134 108" version="1.1" xmlns="http://www.w3.org/2000/svg" xmlns:xlink="http://www.w3.org/1999/xlink" xml:space="preserve" style="fill-rule:evenodd;clip-rule:evenodd;stroke-linejoin:bevel;stroke-miterlimit:1.5;"><g><g><path d="M48.559,51.754l0.284,0.003l0.283,0.005l0.282,0.007l0.283,0.009l0.281,0.011l0.282,0.013l0.281,0.015l0.28,0.017l0.281,0.019l0.279,0.02l0.28,0.023l0.279,0.025l0.278,0.027l0.278,0.028l0.278,0.031l0.277,0.033l0.277,0.034l0.276,0.037l0.276,0.038l0.275,0.04l0.275,0.042l0.275,0.044l0.273,0.046l0.274,0.048l0.273,0.05l0.272,0.051l0.272,0.054l0.272,0.055l0.271,0.057l0.27,0.059l0.27,0.061l0.27,0.063l0.269,0.064l0.268,0.067l0.268,0.068l0.268,0.07l0.266,0.072l0.267,0.074l0.266,0.075l0.265,0.077l0.264,0.08l0.265,0.08l0.263,0.083l0.263,0.084l0.263,0.087l0.261,0.088l0.262,0.089l0.26,0.092l0.26,0.093l0.26,0.095l0.259,0.097l0.258,0.098l0.258,0.101l0.257,0.101l0.256,0.104l0.256,0.105l0.255,0.108l0.255,0.108l0.254,0.111l0.253,0.112l0.253,0.114l0.252,0.115l0.252,0.118l0.25,0.118l0.25,0.121l0.25,0.122l0.249,0.124l0.248,0.126l0.247,0.127l0.247,0.128l0.246,0.131l0.245,0.132l0.245,0.134l0.244,0.135l0.243,0.137l0.243,0.138l0.242,0.14l0.241,0.142l0.241,0.143l0.239,0.145l0.239,0.147l0.239,0.148l0.237,0.149l0.237,0.151l0.236,0.153l0.235,0.154l0.235,0.156l0.234,0.158l0.233,0.158l0.232,0.161l0.232,0.162l0.23,0.163l0.23,0.165l0.229,0.167l0.229,0.168l0.227,0.169l0.227,0.171l0.226,0.173l0.225,0.173l0.225,0.176l0.223,0.177l0.223,0.178l0.222,0.18l0.221,0.181l0.22,0.183l0.22,0.184l0.218,0.186l0.218,0.187l0.217,0.188l0.216,0.19l0.215,0.191l0.215,0.193l0.213,0.194l0.213,0.195l0.212,0.197l0.21,0.199l0.21,0.199l0.209,0.201l0.209,0.203l0.207,0.203l0.206,0.205l0.206,0.207l0.204,0.208l0.204,0.209l0.203,0.211l0.202,0.211l0.201,0.214l0.2,0.214l0.199,0.216l0.198,0.217l0.197,0.218l0.196,0.22l0.195,0.221l0.195,0.223l0.193,0.223l0.192,0.225l0.192,0.226l0.19,0.228l0.19,0.228l0.188,0.23l0.188,0.231l0.186,0.233l0.186,0.234l0.184,0.235l0.184,0.236l0.182,0.237l0.182,0.239l0.18,0.24l0.18,0.241l0.178,0.242l0.177,0.243l0.177,0.245l0.175,0.246l0.174,0.247l0.173,0.248l0.173,0.249l0.171,0.251l0.17,0.251l0.169,0.253l0.168,0.254l0.166,0.255l0.166,0.257l0.165,0.257l0.163,0.258l0.163,0.26l0.161,0.261l0.161,0.262l0.159,0.263l0.158,0.264l0.157,0.265l0.156,0.266l0.155,0.268l0.153,0.268l0.153,0.269l0.151,0.271l0.15,0.272l0.149,0.272l0.148,0.274l0.147,0.275l0.146,0.276l0.144,0.277l0.143,0.277l0.142,0.279l0.141,0.28l0.14,0.281l0.139,0.282l0.137,0.283l0.136,0.284l0.135,0.285l0.134,0.286l0.133,0.287l0.131,0.288l0.13,0.289l0.129,0.289l0.128,0.291l0.126,0.292l0.126,0.293l0.124,0.293l0.123,0.295l0.121,0.295l0.12,0.297l0.119,0.297l0.118,0.298l0.117,0.299l0.115,0.3l0.114,0.301l0.113,0.302l0.111,0.303l0.111,0.304l0.108,0.304l0.108,0.306l0.106,0.306l0.105,0.307l0.104,0.308l0.102,0.309l0.102,0.309l0.099,0.311l0.099,0.311l0.097,0.312l0.096,0.313l0.094,0.314l0.093,0.315l0.092,0.315l0.09,0.316l0.089,0.317l0.088,0.318l0.087,0.319l0.085,0.319l0.083,0.32l0.082,0.321l0.081,0.322l0.08,0.323l0.078,0.323l0.077,0.324l0.075,0.324l0.074,0.326l0.072,0.326l0.071,0.327l0.07,0.327l0.068,0.329l0.067,0.329l0.066,0.329l0.064,0.331l0.062,0.331l0.061,0.332l0.06,0.332l0.058,0.334l0.057,0.333l0.055,0.335l0.054,0.335l0.053,0.336l0.05,0.336l0.05,0.337l0.048,0.338l0.046,0.339l-96.551,0l0.046,-0.339l0.048,-0.338l0.05,-0.337l0.051,-0.336l0.052,-0.336l0.054,-0.335l0.055,-0.335l0.057,-0.333l0.058,-0.334l0.06,-0.332l0.061,-0.332l0.063,-0.331l0.064,-0.331l0.065,-0.329l0.067,-0.329l0.068,-0.329l0.07,-0.327l0.071,-0.327l0.073,-0.326l0.074,-0.326l0.075,-0.324l0.077,-0.324l0.078,-0.323l0.079,-0.323l0.081,-0.322l0.082,-0.321l0.084,-0.32l0.085,-0.319l0.086,-0.319l0.088,-0.318l0.089,-0.317l0.09,-0.316l0.092,-0.315l0.093,-0.315l0.095,-0.314l0.096,-0.313l0.097,-0.312l0.098,-0.311l0.1,-0.311l0.101,-0.309l0.102,-0.309l0.104,-0.308l0.105,-0.307l0.106,-0.306l0.108,-0.306l0.109,-0.304l0.11,-0.304l0.111,-0.303l0.113,-0.302l0.114,-0.301l0.116,-0.3l0.116,-0.299l0.118,-0.298l0.119,-0.297l0.12,-0.297l0.122,-0.295l0.123,-0.295l0.124,-0.293l0.125,-0.293l0.126,-0.292l0.128,-0.291l0.129,-0.289l0.13,-0.289l0.132,-0.288l0.132,-0.287l0.134,-0.286l0.135,-0.285l0.136,-0.284l0.138,-0.283l0.138,-0.282l0.14,-0.281l0.141,-0.28l0.142,-0.279l0.143,-0.277l0.145,-0.277l0.145,-0.276l0.147,-0.275l0.148,-0.274l0.149,-0.272l0.15,-0.272l0.152,-0.271l0.152,-0.269l0.154,-0.268l0.155,-0.268l0.155,-0.266l0.157,-0.265l0.159,-0.264l0.159,-0.263l0.16,-0.262l0.161,-0.261l0.163,-0.26l0.164,-0.258l0.164,-0.257l0.166,-0.257l0.167,-0.255l0.168,-0.254l0.169,-0.253l0.17,-0.251l0.171,-0.251l0.172,-0.249l0.173,-0.248l0.174,-0.247l0.176,-0.246l0.176,-0.245l0.177,-0.243l0.179,-0.242l0.179,-0.241l0.181,-0.24l0.181,-0.239l0.183,-0.237l0.183,-0.236l0.185,-0.235l0.185,-0.234l0.187,-0.233l0.187,-0.231l0.189,-0.23l0.189,-0.228l0.191,-0.228l0.191,-0.226l0.192,-0.225l0.194,-0.223l0.194,-0.223l0.195,-0.221l0.196,-0.22l0.198,-0.218l0.198,-0.217l0.199,-0.216l0.2,-0.214l0.201,-0.214l0.201,-0.211l0.203,-0.211l0.204,-0.209l0.205,-0.208l0.205,-0.207l0.206,-0.205l0.208,-0.203l0.208,-0.203l0.209,-0.201l0.21,-0.199l0.211,-0.199l0.212,-0.197l0.212,-0.195l0.214,-0.194l0.214,-0.193l0.215,-0.191l0.216,-0.19l0.217,-0.188l0.218,-0.187l0.219,-0.186l0.219,-0.184l0.22,-0.183l0.221,-0.181l0.222,-0.18l0.223,-0.178l0.224,-0.177l0.224,-0.176l0.225,-0.173l0.226,-0.173l0.227,-0.171l0.228,-0.169l0.228,-0.168l0.229,-0.167l0.23,-0.165l0.231,-0.163l0.231,-0.162l0.233,-0.161l0.233,-0.158l0.233,-0.158l0.235,-0.156l0.235,-0.154l0.236,-0.153l0.237,-0.151l0.238,-0.149l0.238,-0.148l0.239,-0.147l0.24,-0.145l0.24,-0.143l0.241,-0.142l0.242,-0.14l0.243,-0.138l0.243,-0.137l0.244,-0.135l0.245,-0.134l0.245,-0.132l0.246,-0.131l0.247,-0.128l0.248,-0.127l0.248,-0.126l0.248,-0.124l0.25,-0.122l0.25,-0.121l0.251,-0.118l0.251,-0.118l0.252,-0.115l0.253,-0.114l0.253,-0.112l0.254,-0.111l0.255,-0.108l0.255,-0.108l0.256,-0.105l0.256,-0.104l0.258,-0.101l0.257,-0.101l0.259,-0.098l0.259,-0.097l0.259,-0.095l0.26,-0.093l0.261,-0.092l0.261,-0.089l0.262,-0.088l0.262,-0.087l0.263,-0.084l0.264,-0.083l0.264,-0.08l0.265,-0.08l0.265,-0.077l0.266,-0.075l0.266,-0.074l0.267,-0.072l0.267,-0.07l0.268,-0.068l0.269,-0.067l0.268,-0.064l0.27,-0.063l0.27,-0.061l0.27,-0.059l0.271,-0.057l0.272,-0.055l0.272,-0.054l0.272,-0.051l0.273,-0.05l0.274,-0.048l0.274,-0.046l0.274,-0.044l0.275,-0.042l0.276,-0.04l0.275,-0.038l0.277,-0.037l0.276,-0.034l0.278,-0.033l0.277,-0.031l0.278,-0.028l0.279,-0.027l0.279,-0.025l0.279,-0.023l0.28,-0.02l0.28,-0.019l0.281,-0.017l0.281,-0.015l0.281,-0.013l0.282,-0.011l0.282,-0.009l0.283,-0.007l0.283,-0.005l0.283,-0.003l0.284,-0.001l0.283,0.001Zm-0.522,6.499l-0.235,0.003l-0.238,0.004l-0.237,0.006l-0.233,0.007l-0.237,0.01l-0.239,0.011l-0.235,0.012l-0.232,0.014l-0.234,0.016l-0.234,0.018l-0.233,0.019l-0.233,0.02l-0.233,0.023l-0.231,0.024l-0.232,0.025l-0.234,0.028l-0.231,0.028l-0.23,0.031l-0.232,0.032l-0.23,0.034l-0.232,0.035l-0.227,0.037l-0.228,0.038l-0.23,0.04l-0.227,0.041l-0.229,0.044l-0.23,0.045l-0.224,0.046l-0.228,0.048l-0.227,0.049l-0.224,0.051l-0.227,0.053l-0.226,0.054l-0.224,0.055l-0.227,0.058l-0.221,0.058l-0.223,0.06l-0.228,0.063l-0.222,0.063l-0.222,0.065l-0.222,0.066l-0.222,0.068l-0.221,0.069l-0.22,0.071l-0.224,0.074l-0.219,0.073l-0.219,0.076l-0.222,0.077l-0.218,0.078l-0.22,0.081l-0.217,0.081l-0.216,0.083l-0.219,0.085l-0.219,0.086l-0.218,0.088l-0.214,0.089l-0.214,0.09l-0.217,0.092l-0.215,0.094l-0.215,0.095l-0.215,0.097l-0.215,0.098l-0.214,0.1l-0.209,0.099l-0.212,0.102l-0.215,0.106l-0.212,0.105l-0.208,0.105l-0.211,0.109l-0.213,0.111l-0.209,0.111l-0.208,0.112l-0.211,0.115l-0.207,0.115l-0.207,0.116l-0.21,0.12l-0.205,0.119l-0.205,0.12l-0.208,0.125l-0.207,0.124l-0.202,0.124l-0.206,0.128l-0.207,0.13l-0.2,0.128l-0.201,0.13l-0.203,0.133l-0.202,0.134l-0.203,0.137l-0.2,0.136l-0.198,0.137l-0.203,0.142l-0.199,0.141l-0.197,0.141l-0.199,0.145l-0.197,0.145l-0.195,0.145l-0.199,0.15l-0.194,0.148l-0.195,0.151l-0.197,0.154l-0.192,0.152l-0.194,0.155l-0.193,0.156l-0.192,0.158l-0.19,0.157l-0.191,0.16l-0.191,0.162l-0.189,0.163l-0.191,0.166l-0.189,0.166l-0.186,0.165l-0.187,0.168l-0.187,0.17l-0.184,0.169l-0.187,0.174l-0.186,0.175l-0.182,0.173l-0.182,0.175l-0.184,0.179l-0.182,0.179l-0.181,0.179l-0.18,0.182l-0.179,0.182l-0.179,0.184l-0.178,0.185l-0.178,0.186l-0.177,0.188l-0.176,0.188l-0.176,0.192l-0.175,0.191l-0.172,0.191l-0.175,0.195l-0.172,0.195l-0.171,0.196l-0.169,0.196l-0.17,0.198l-0.172,0.204l-0.169,0.201l-0.165,0.2l-0.168,0.205l-0.166,0.205l-0.165,0.206l-0.165,0.206l-0.162,0.207l-0.164,0.211l-0.163,0.212l-0.162,0.213l-0.159,0.211l-0.159,0.214l-0.158,0.215l-0.159,0.218l-0.158,0.219l-0.153,0.215l-0.156,0.221l-0.156,0.223l-0.153,0.222l-0.153,0.225l-0.152,0.224l-0.149,0.223l-0.151,0.228l-0.15,0.23l-0.147,0.226l-0.148,0.233l-0.147,0.231l-0.143,0.229l-0.145,0.235l-0.144,0.234l-0.143,0.237l-0.141,0.235l-0.141,0.239l-0.141,0.24l-0.137,0.237l-0.138,0.24l-0.137,0.243l-0.136,0.242l-0.135,0.246l-0.135,0.246l-0.131,0.243l-0.133,0.248l-0.131,0.248l-0.129,0.248l-0.129,0.251l-0.128,0.251l-0.128,0.254l-0.126,0.252l-0.123,0.252l-0.125,0.257l-0.123,0.256l-0.121,0.256l-0.121,0.258l-0.119,0.259l-0.119,0.26l-0.116,0.258l-0.118,0.264l-0.116,0.264l-0.113,0.261l-0.113,0.263l-0.112,0.267l-0.112,0.268l-0.11,0.267l-0.109,0.269l-0.107,0.267l-0.107,0.271l-0.106,0.271l-0.103,0.268l-0.103,0.273l-0.104,0.278l-0.101,0.273l-0.099,0.273l-0.098,0.275l-0.098,0.279l-0.097,0.279l-0.094,0.275l-0.095,0.281l-0.093,0.282l-0.091,0.278l-0.091,0.283l-0.09,0.284l-0.087,0.281l-0.087,0.284l-0.086,0.287l-0.085,0.286l-0.083,0.284l-0.082,0.289l-0.081,0.288l-0.08,0.289l-0.079,0.29l-0.076,0.288l-0.077,0.294l-0.075,0.293l-0.04,0.157l80.837,0l-0.04,-0.16l-0.074,-0.29l-0.077,-0.291l-0.078,-0.294l-0.077,-0.287l-0.08,-0.289l-0.081,-0.288l-0.082,-0.287l-0.084,-0.286l-0.084,-0.286l-0.087,-0.287l-0.086,-0.284l-0.089,-0.283l-0.089,-0.282l-0.09,-0.281l-0.091,-0.28l-0.094,-0.282l-0.094,-0.281l-0.095,-0.275l-0.097,-0.279l-0.098,-0.279l-0.098,-0.275l-0.099,-0.273l-0.102,-0.276l-0.102,-0.275l-0.103,-0.27l-0.104,-0.271l-0.106,-0.271l-0.106,-0.271l-0.109,-0.27l-0.109,-0.269l-0.108,-0.264l-0.111,-0.266l-0.113,-0.266l-0.113,-0.266l-0.115,-0.264l-0.115,-0.261l-0.116,-0.262l-0.117,-0.26l-0.119,-0.26l-0.12,-0.259l-0.12,-0.258l-0.122,-0.256l-0.123,-0.256l-0.124,-0.257l-0.125,-0.254l-0.126,-0.253l-0.126,-0.251l-0.128,-0.251l-0.128,-0.248l-0.13,-0.248l-0.132,-0.251l-0.133,-0.248l-0.132,-0.245l-0.133,-0.244l-0.135,-0.243l-0.137,-0.245l-0.137,-0.243l-0.137,-0.24l-0.138,-0.237l-0.14,-0.24l-0.142,-0.239l-0.141,-0.235l-0.143,-0.237l-0.143,-0.234l-0.145,-0.235l-0.146,-0.232l-0.144,-0.228l-0.148,-0.231l-0.148,-0.228l-0.15,-0.23l-0.151,-0.228l-0.149,-0.223l-0.151,-0.224l-0.155,-0.227l-0.153,-0.222l-0.153,-0.219l-0.156,-0.221l-0.156,-0.219l-0.157,-0.217l-0.157,-0.216l-0.16,-0.217l-0.16,-0.216l-0.158,-0.209l-0.161,-0.211l-0.164,-0.214l-0.164,-0.211l-0.162,-0.207l-0.164,-0.206l-0.165,-0.206l-0.166,-0.205l-0.168,-0.205l-0.168,-0.202l-0.167,-0.199l-0.17,-0.202l-0.171,-0.2l-0.17,-0.196l-0.171,-0.196l-0.172,-0.195l-0.175,-0.195l-0.172,-0.191l-0.174,-0.191l-0.177,-0.192l-0.176,-0.188l-0.177,-0.188l-0.177,-0.186l-0.178,-0.185l-0.179,-0.184l-0.18,-0.182l-0.18,-0.182l-0.181,-0.179l-0.182,-0.179l-0.184,-0.179l-0.181,-0.175l-0.183,-0.173l-0.186,-0.175l-0.187,-0.174l-0.184,-0.169l-0.186,-0.17l-0.189,-0.17l-0.185,-0.163l-0.188,-0.166l-0.191,-0.166l-0.188,-0.161l-0.193,-0.164l-0.19,-0.16l-0.19,-0.157l-0.195,-0.16l-0.191,-0.154l-0.192,-0.154l-0.195,-0.155l-0.195,-0.152l-0.194,-0.15l-0.198,-0.15l-0.196,-0.149l-0.194,-0.144l-0.199,-0.146l-0.201,-0.146l-0.194,-0.14l-0.2,-0.141l-0.202,-0.142l-0.197,-0.136l-0.201,-0.137l-0.204,-0.137l-0.202,-0.134l-0.203,-0.133l-0.201,-0.13l-0.202,-0.129l-0.204,-0.129l-0.206,-0.127l-0.203,-0.125l-0.206,-0.124l-0.209,-0.125l-0.204,-0.12l-0.206,-0.119l-0.21,-0.12l-0.206,-0.116l-0.207,-0.115l-0.212,-0.115l-0.208,-0.112l-0.209,-0.111l-0.213,-0.111l-0.211,-0.109l-0.207,-0.105l-0.212,-0.105l-0.216,-0.106l-0.211,-0.102l-0.21,-0.099l-0.214,-0.1l-0.214,-0.098l-0.215,-0.097l-0.216,-0.095l-0.215,-0.094l-0.216,-0.092l-0.214,-0.09l-0.215,-0.089l-0.218,-0.088l-0.218,-0.086l-0.219,-0.085l-0.217,-0.083l-0.217,-0.081l-0.22,-0.081l-0.218,-0.078l-0.221,-0.077l-0.219,-0.076l-0.22,-0.073l-0.224,-0.074l-0.22,-0.071l-0.221,-0.069l-0.222,-0.068l-0.221,-0.066l-0.222,-0.065l-0.223,-0.063l-0.227,-0.063l-0.225,-0.061l-0.221,-0.057l-0.224,-0.057l-0.225,-0.056l-0.227,-0.054l-0.226,-0.053l-0.224,-0.051l-0.228,-0.049l-0.227,-0.048l-0.225,-0.046l-0.229,-0.045l-0.23,-0.044l-0.227,-0.041l-0.23,-0.04l-0.228,-0.038l-0.227,-0.037l-0.232,-0.035l-0.229,-0.034l-0.233,-0.032l-0.23,-0.031l-0.23,-0.028l-0.235,-0.028l-0.231,-0.025l-0.232,-0.024l-0.232,-0.023l-0.233,-0.02l-0.234,-0.019l-0.234,-0.018l-0.234,-0.016l-0.231,-0.014l-0.236,-0.012l-0.239,-0.011l-0.236,-0.01l-0.234,-0.007l-0.237,-0.006l-0.238,-0.004l-0.234,-0.003l-0.239,0l-0.239,0Z" style="fill:#585858;"/><path d="M27.277,23.701l-26.426,15.297l0.147,-30.854l26.279,15.557Zm-19.872,3.993l7.006,-4.056l-6.967,-4.124l-0.039,8.18Z" style="fill:#585858;"/><path d="M86.799,38.998l-26.425,-15.297l26.278,-15.557l0.147,30.854Zm-13.56,-15.36l7.006,4.056l-0.039,-8.18l-6.967,4.124Z" style="fill:#585858;"/></g><g><path d="M520.042,97.185c34.377,0 68.754,0 103.131,0" style="fill:#92d5ce;stroke:#585858;stroke-width:6.5px;"/><path d="M538.323,13.659c0,6.124 0,12.248 0,18.372" style="fill:#92d5ce;stroke:#585858;stroke-width:6.5px;stroke-linecap:round;"/><path d="M598.149,13.659c0,6.124 0,12.248 0,18.372" style="fill:#92d5ce;stroke:#585858;stroke-width:6.5px;stroke-linecap:round;"/></g><g><path d="M1133.18,52.448l-0.062,0.367l-0.065,0.365l-0.066,0.365l-0.069,0.365l-0.07,0.363l-0.072,0.363l-0.075,0.362l-0.076,0.362l-0.078,0.36l-0.079,0.36l-0.082,0.359l-0.084,0.359l-0.085,0.357l-0.088,0.357l-0.089,0.356l-0.091,0.356l-0.093,0.354l-0.094,0.354l-0.097,0.353l-0.098,0.352l-0.101,0.352l-0.102,0.35l-0.103,0.35l-0.106,0.349l-0.107,0.348l-0.11,0.347l-0.111,0.347l-0.112,0.345l-0.115,0.345l-0.116,0.344l-0.119,0.343l-0.119,0.342l-0.122,0.341l-0.123,0.341l-0.126,0.339l-0.126,0.339l-0.129,0.338l-0.13,0.337l-0.132,0.335l-0.134,0.335l-0.136,0.334l-0.137,0.334l-0.139,0.332l-0.14,0.331l-0.142,0.33l-0.144,0.33l-0.146,0.328l-0.147,0.328l-0.149,0.326l-0.151,0.325l-0.152,0.325l-0.154,0.323l-0.155,0.323l-0.158,0.322l-0.158,0.32l-0.161,0.32l-0.162,0.318l-0.164,0.318l-0.165,0.316l-0.167,0.315l-0.168,0.315l-0.17,0.313l-0.172,0.312l-0.173,0.312l-0.175,0.31l-0.176,0.309l-0.178,0.308l-0.18,0.307l-0.181,0.306l-0.182,0.304l-0.184,0.304l-0.186,0.302l-0.187,0.302l-0.189,0.3l-0.19,0.299l-0.192,0.298l-0.193,0.297l-0.195,0.296l-0.196,0.295l-0.198,0.293l-0.199,0.293l-0.2,0.291l-0.202,0.29l-0.204,0.288l-0.205,0.288l-0.207,0.287l-0.208,0.285l-0.209,0.284l-0.211,0.283l-0.212,0.281l-0.214,0.281l-0.215,0.279l-0.216,0.278l-0.218,0.277l-0.22,0.275l-0.22,0.274l-0.223,0.273l-0.223,0.272l-0.225,0.271l-0.226,0.269l-0.228,0.268l-0.229,0.266l-0.23,0.266l-0.232,0.264l-0.233,0.262l-0.234,0.262l-0.236,0.26l-0.237,0.259l-0.239,0.257l-0.239,0.257l-0.241,0.254l-0.243,0.254l-0.243,0.252l-0.245,0.251l-0.246,0.249l-0.248,0.248l-0.249,0.247l-0.25,0.245l-0.251,0.244l-0.252,0.243l-0.254,0.241l-0.255,0.24l-0.257,0.238l-0.257,0.237l-0.259,0.236l-0.26,0.234l-0.261,0.232l-0.263,0.232l-0.263,0.229l-0.265,0.229l-0.266,0.227l-0.267,0.225l-0.269,0.224l-0.269,0.223l-0.271,0.221l-0.272,0.219l-0.273,0.218l-0.275,0.217l-0.275,0.215l-0.277,0.213l-0.277,0.212l-0.279,0.211l-0.28,0.209l-0.281,0.207l-0.283,0.206l-0.283,0.205l-0.284,0.203l-0.286,0.201l-0.287,0.2l-0.287,0.198l-0.289,0.196l-0.29,0.195l-0.291,0.194l-0.292,0.192l-0.293,0.19l-0.294,0.189l-0.296,0.187l-0.296,0.185l-0.297,0.184l-0.299,0.182l-0.299,0.181l-0.3,0.179l-0.302,0.177l-0.302,0.176l-0.304,0.174l-0.304,0.172l-0.305,0.171l-0.307,0.169l-0.307,0.167l-0.309,0.166l-0.309,0.164l-0.31,0.162l-0.311,0.16l-0.313,0.159l-0.313,0.157l-0.314,0.156l-0.315,0.154l-0.316,0.151l-0.317,0.151l-0.318,0.148l-0.318,0.147l-0.32,0.145l-0.321,0.143l-0.321,0.142l-0.322,0.139l-0.324,0.138l-0.324,0.136l-0.325,0.135l-0.326,0.132l-0.326,0.131l-0.328,0.129l-0.328,0.127l-0.33,0.125l-0.33,0.124l-0.331,0.122l-0.331,0.119l-0.333,0.118l-0.333,0.117l-0.335,0.114l-0.335,0.112l-0.335,0.111l-0.337,0.109l-0.337,0.106l-0.339,0.105l-0.339,0.103l-0.339,0.101l-0.341,0.1l-0.341,0.097l-0.342,0.096l-0.343,0.093l-0.344,0.092l-0.344,0.089l-0.345,0.088l-0.346,0.086l-0.346,0.084l-0.347,0.081l-0.348,0.08l-0.349,0.078l-0.349,0.076l-0.35,0.074l-0.351,0.072l-0.351,0.07l-0.352,0.068l-0.353,0.066l-0.353,0.064l-0.354,0.062l-0.355,0.06l-0.355,0.058l-0.356,0.056l-0.357,0.054l-0.357,0.052l-0.358,0.05l-0.358,0.048l-0.359,0.045l-0.36,0.044l-0.36,0.042l-0.361,0.039l-0.362,0.038l-0.362,0.035l-0.362,0.033l-0.364,0.031l-0.363,0.029l-0.365,0.027l-0.365,0.025l-0.365,0.023l-0.366,0.02l-0.367,0.019l-0.367,0.016l-0.367,0.014l-0.368,0.012l-0.369,0.01l-0.369,0.007l-0.37,0.006l-0.37,0.003l-0.371,0.001l-0.37,-0.001l-0.371,-0.003l-0.369,-0.006l-0.369,-0.007l-0.369,-0.01l-0.368,-0.012l-0.368,-0.014l-0.367,-0.016l-0.366,-0.019l-0.366,-0.02l-0.366,-0.023l-0.365,-0.025l-0.364,-0.027l-0.364,-0.029l-0.363,-0.031l-0.363,-0.033l-0.362,-0.035l-0.361,-0.038l-0.361,-0.039l-0.36,-0.042l-0.36,-0.044l-0.359,-0.045l-0.359,-0.048l-0.358,-0.05l-0.357,-0.052l-0.356,-0.054l-0.356,-0.056l-0.356,-0.058l-0.354,-0.06l-0.354,-0.062l-0.354,-0.064l-0.352,-0.066l-0.352,-0.068l-0.352,-0.07l-0.35,-0.072l-0.35,-0.074l-0.35,-0.076l-0.348,-0.078l-0.348,-0.08l-0.347,-0.081l-0.347,-0.084l-0.346,-0.086l-0.345,-0.088l-0.344,-0.089l-0.343,-0.092l-0.343,-0.093l-0.342,-0.096l-0.341,-0.097l-0.341,-0.1l-0.34,-0.101l-0.339,-0.103l-0.338,-0.105l-0.337,-0.106l-0.337,-0.109l-0.336,-0.111l-0.335,-0.112l-0.334,-0.114l-0.333,-0.117l-0.333,-0.118l-0.332,-0.119l-0.331,-0.122l-0.33,-0.124l-0.329,-0.125l-0.329,-0.127l-0.327,-0.129l-0.327,-0.131l-0.326,-0.132l-0.325,-0.135l-0.324,-0.136l-0.323,-0.138l-0.322,-0.139l-0.322,-0.142l-0.32,-0.143l-0.32,-0.145l-0.319,-0.147l-0.318,-0.148l-0.316,-0.151l-0.316,-0.151l-0.315,-0.154l-0.315,-0.156l-0.313,-0.157l-0.312,-0.159l-0.311,-0.16l-0.311,-0.162l-0.309,-0.164l-0.308,-0.166l-0.308,-0.167l-0.306,-0.169l-0.305,-0.171l-0.305,-0.172l-0.303,-0.174l-0.303,-0.176l-0.301,-0.177l-0.3,-0.179l-0.3,-0.181l-0.298,-0.182l-0.297,-0.184l-0.297,-0.185l-0.295,-0.187l-0.294,-0.189l-0.293,-0.19l-0.292,-0.192l-0.291,-0.194l-0.29,-0.195l-0.289,-0.196l-0.288,-0.198l-0.286,-0.2l-0.286,-0.201l-0.284,-0.203l-0.284,-0.205l-0.282,-0.206l-0.281,-0.207l-0.28,-0.209l-0.279,-0.211l-0.278,-0.212l-0.276,-0.213l-0.276,-0.215l-0.274,-0.217l-0.273,-0.218l-0.272,-0.219l-0.271,-0.221l-0.27,-0.223l-0.268,-0.224l-0.267,-0.225l-0.266,-0.227l-0.265,-0.229l-0.264,-0.229l-0.262,-0.232l-0.261,-0.232l-0.26,-0.234l-0.259,-0.236l-0.258,-0.237l-0.256,-0.238l-0.255,-0.24l-0.254,-0.241l-0.253,-0.243l-0.251,-0.244l-0.25,-0.245l-0.249,-0.247l-0.247,-0.248l-0.246,-0.249l-0.245,-0.251l-0.244,-0.252l-0.242,-0.254l-0.241,-0.254l-0.24,-0.257l-0.238,-0.257l-0.237,-0.259l-0.236,-0.26l-0.234,-0.262l-0.233,-0.262l-0.232,-0.264l-0.231,-0.266l-0.229,-0.266l-0.227,-0.268l-0.226,-0.269l-0.225,-0.271l-0.224,-0.272l-0.222,-0.273l-0.221,-0.274l-0.219,-0.275l-0.218,-0.277l-0.216,-0.278l-0.216,-0.279l-0.213,-0.281l-0.213,-0.281l-0.21,-0.283l-0.21,-0.284l-0.208,-0.285l-0.206,-0.287l-0.205,-0.288l-0.204,-0.288l-0.202,-0.29l-0.201,-0.291l-0.199,-0.293l-0.198,-0.293l-0.196,-0.295l-0.195,-0.296l-0.193,-0.297l-0.191,-0.298l-0.191,-0.299l-0.188,-0.3l-0.188,-0.302l-0.185,-0.302l-0.184,-0.304l-0.183,-0.304l-0.181,-0.306l-0.179,-0.307l-0.178,-0.308l-0.177,-0.309l-0.174,-0.31l-0.174,-0.312l-0.171,-0.312l-0.17,-0.313l-0.169,-0.315l-0.167,-0.315l-0.165,-0.316l-0.163,-0.318l-0.163,-0.318l-0.16,-0.32l-0.159,-0.32l-0.157,-0.322l-0.155,-0.323l-0.154,-0.323l-0.153,-0.325l-0.15,-0.325l-0.149,-0.326l-0.147,-0.328l-0.146,-0.328l-0.144,-0.33l-0.142,-0.33l-0.141,-0.331l-0.139,-0.332l-0.137,-0.334l-0.135,-0.334l-0.134,-0.335l-0.132,-0.335l-0.13,-0.337l-0.129,-0.338l-0.127,-0.339l-0.125,-0.339l-0.123,-0.341l-0.122,-0.341l-0.12,-0.342l-0.118,-0.343l-0.116,-0.344l-0.115,-0.345l-0.113,-0.345l-0.111,-0.347l-0.109,-0.347l-0.107,-0.348l-0.106,-0.349l-0.104,-0.35l-0.102,-0.35l-0.1,-0.352l-0.098,-0.352l-0.097,-0.353l-0.095,-0.354l-0.093,-0.354l-0.091,-0.356l-0.089,-0.356l-0.087,-0.357l-0.086,-0.357l-0.083,-0.359l-0.082,-0.359l-0.08,-0.36l-0.078,-0.36l-0.076,-0.362l-0.074,-0.362l-0.072,-0.363l-0.071,-0.363l-0.068,-0.365l-0.067,-0.365l-0.064,-0.365l-0.063,-0.367l-0.061,-0.367l126.124,0l-0.061,0.367Zm-117.255,6.633l0.069,0.221l0.098,0.312l0.1,0.311l0.101,0.311l0.102,0.308l0.105,0.308l0.106,0.308l0.108,0.31l0.109,0.304l0.109,0.302l0.112,0.305l0.115,0.305l0.114,0.302l0.117,0.3l0.119,0.304l0.12,0.3l0.121,0.298l0.124,0.3l0.123,0.296l0.126,0.295l0.128,0.299l0.13,0.297l0.129,0.292l0.132,0.292l0.134,0.293l0.136,0.294l0.134,0.288l0.139,0.291l0.14,0.29l0.139,0.285l0.143,0.289l0.144,0.285l0.146,0.288l0.145,0.282l0.148,0.283l0.151,0.286l0.15,0.279l0.152,0.28l0.153,0.279l0.156,0.279l0.157,0.28l0.158,0.276l0.16,0.277l0.159,0.273l0.162,0.272l0.164,0.275l0.165,0.272l0.167,0.271l0.166,0.269l0.17,0.27l0.169,0.267l0.171,0.265l0.175,0.269l0.174,0.263l0.176,0.265l0.176,0.261l0.177,0.26l0.182,0.264l0.182,0.261l0.181,0.257l0.182,0.256l0.185,0.257l0.187,0.256l0.187,0.253l0.187,0.252l0.191,0.253l0.192,0.251l0.193,0.251l0.193,0.248l0.194,0.246l0.197,0.247l0.198,0.246l0.199,0.245l0.199,0.242l0.2,0.241l0.203,0.241l0.203,0.239l0.207,0.241l0.207,0.238l0.204,0.233l0.209,0.236l0.21,0.234l0.21,0.232l0.213,0.232l0.213,0.231l0.212,0.226l0.214,0.226l0.219,0.229l0.219,0.227l0.217,0.222l0.221,0.224l0.222,0.223l0.221,0.219l0.222,0.218l0.224,0.217l0.226,0.217l0.228,0.216l0.228,0.215l0.228,0.212l0.231,0.212l0.232,0.211l0.229,0.207l0.236,0.21l0.235,0.207l0.232,0.202l0.237,0.205l0.238,0.203l0.236,0.198l0.241,0.201l0.243,0.201l0.24,0.196l0.242,0.195l0.242,0.193l0.247,0.196l0.247,0.193l0.243,0.188l0.249,0.189l0.247,0.187l0.251,0.187l0.251,0.186l0.251,0.182l0.251,0.182l0.254,0.181l0.256,0.18l0.255,0.177l0.258,0.179l0.254,0.172l0.257,0.173l0.263,0.175l0.259,0.17l0.259,0.168l0.263,0.169l0.264,0.168l0.262,0.164l0.263,0.162l0.265,0.162l0.268,0.161l0.268,0.16l0.269,0.158l0.268,0.156l0.271,0.155l0.272,0.154l0.267,0.15l0.274,0.15l0.273,0.149l0.273,0.147l0.278,0.147l0.274,0.144l0.275,0.142l0.281,0.142l0.277,0.139l0.276,0.137l0.284,0.138l0.281,0.136l0.279,0.132l0.283,0.132l0.283,0.13l0.281,0.128l0.286,0.127l0.289,0.128l0.285,0.124l0.283,0.12l0.289,0.121l0.289,0.12l0.289,0.117l0.291,0.117l0.291,0.115l0.292,0.113l0.29,0.11l0.293,0.11l0.294,0.108l0.294,0.106l0.296,0.105l0.296,0.103l0.294,0.101l0.299,0.1l0.295,0.097l0.297,0.096l0.306,0.097l0.298,0.092l0.299,0.091l0.3,0.089l0.3,0.088l0.306,0.087l0.305,0.085l0.302,0.083l0.305,0.081l0.304,0.079l0.305,0.077l0.306,0.077l0.307,0.074l0.311,0.073l0.308,0.071l0.309,0.069l0.306,0.067l0.31,0.065l0.315,0.065l0.308,0.061l0.312,0.06l0.313,0.059l0.314,0.057l0.315,0.055l0.312,0.053l0.316,0.052l0.316,0.049l0.314,0.048l0.318,0.046l0.318,0.044l0.316,0.042l0.32,0.041l0.318,0.039l0.318,0.036l0.322,0.035l0.322,0.034l0.32,0.031l0.32,0.029l0.325,0.028l0.322,0.026l0.322,0.024l0.323,0.022l0.323,0.02l0.328,0.018l0.325,0.016l0.325,0.015l0.326,0.012l0.327,0.011l0.331,0.009l0.324,0.006l0.329,0.005l0.332,0.003l0.326,0.001l0.326,-0.001l0.333,-0.003l0.329,-0.005l0.324,-0.006l0.331,-0.009l0.326,-0.011l0.327,-0.012l0.325,-0.015l0.325,-0.016l0.328,-0.018l0.323,-0.02l0.323,-0.022l0.322,-0.024l0.322,-0.026l0.325,-0.028l0.32,-0.029l0.319,-0.031l0.324,-0.034l0.321,-0.035l0.318,-0.036l0.317,-0.039l0.32,-0.041l0.316,-0.042l0.319,-0.044l0.318,-0.046l0.314,-0.048l0.316,-0.049l0.316,-0.052l0.312,-0.053l0.314,-0.055l0.315,-0.057l0.312,-0.059l0.312,-0.06l0.309,-0.061l0.315,-0.065l0.31,-0.065l0.306,-0.067l0.309,-0.069l0.307,-0.071l0.312,-0.073l0.306,-0.074l0.307,-0.077l0.305,-0.077l0.304,-0.079l0.304,-0.081l0.302,-0.083l0.307,-0.085l0.305,-0.087l0.3,-0.088l0.3,-0.089l0.299,-0.091l0.298,-0.092l0.305,-0.097l0.297,-0.096l0.297,-0.097l0.297,-0.1l0.295,-0.101l0.296,-0.103l0.296,-0.105l0.293,-0.106l0.294,-0.108l0.294,-0.11l0.29,-0.11l0.291,-0.113l0.292,-0.115l0.291,-0.117l0.289,-0.117l0.289,-0.12l0.288,-0.121l0.283,-0.12l0.286,-0.124l0.287,-0.127l0.286,-0.127l0.284,-0.129l0.284,-0.131l0.281,-0.131l0.279,-0.132l0.281,-0.136l0.283,-0.138l0.277,-0.137l0.276,-0.139l0.281,-0.142l0.276,-0.142l0.274,-0.144l0.278,-0.147l0.271,-0.146l0.275,-0.15l0.276,-0.151l0.265,-0.149l0.272,-0.154l0.271,-0.155l0.267,-0.156l0.27,-0.158l0.268,-0.16l0.268,-0.161l0.265,-0.162l0.262,-0.162l0.262,-0.164l0.265,-0.168l0.263,-0.169l0.259,-0.168l0.259,-0.17l0.261,-0.174l0.259,-0.174l0.255,-0.173l0.257,-0.178l0.255,-0.177l0.255,-0.18l0.255,-0.181l0.251,-0.182l0.25,-0.182l0.252,-0.186l0.251,-0.187l0.247,-0.187l0.246,-0.188l0.245,-0.189l0.249,-0.195l0.246,-0.194l0.242,-0.193l0.241,-0.195l0.241,-0.196l0.241,-0.199l0.241,-0.201l0.239,-0.202l0.238,-0.203l0.234,-0.201l0.234,-0.204l0.237,-0.209l0.234,-0.208l0.229,-0.207l0.232,-0.211l0.231,-0.212l0.227,-0.212l0.229,-0.215l0.227,-0.216l0.227,-0.217l0.223,-0.217l0.222,-0.218l0.221,-0.219l0.222,-0.223l0.221,-0.224l0.218,-0.222l0.218,-0.227l0.22,-0.229l0.214,-0.226l0.209,-0.224l0.216,-0.233l0.214,-0.234l0.208,-0.23l0.211,-0.234l0.209,-0.236l0.204,-0.233l0.206,-0.238l0.208,-0.241l0.203,-0.239l0.203,-0.241l0.2,-0.241l0.198,-0.242l0.2,-0.245l0.198,-0.246l0.197,-0.247l0.194,-0.246l0.193,-0.248l0.193,-0.251l0.192,-0.251l0.19,-0.253l0.188,-0.252l0.185,-0.251l0.186,-0.256l0.189,-0.262l0.182,-0.255l0.18,-0.255l0.182,-0.261l0.181,-0.264l0.178,-0.26l0.176,-0.261l0.176,-0.265l0.173,-0.263l0.175,-0.269l0.171,-0.265l0.169,-0.267l0.17,-0.27l0.167,-0.269l0.167,-0.271l0.165,-0.272l0.162,-0.272l0.163,-0.275l0.161,-0.276l0.159,-0.274l0.157,-0.276l0.158,-0.28l0.156,-0.279l0.153,-0.279l0.152,-0.28l0.149,-0.279l0.152,-0.286l0.147,-0.283l0.146,-0.282l0.146,-0.288l0.143,-0.285l0.143,-0.289l0.14,-0.285l0.14,-0.29l0.138,-0.291l0.135,-0.288l0.136,-0.294l0.134,-0.293l0.131,-0.292l0.13,-0.292l0.129,-0.297l0.129,-0.299l0.125,-0.295l0.124,-0.296l0.124,-0.3l0.121,-0.298l0.119,-0.3l0.12,-0.304l0.116,-0.3l0.115,-0.302l0.114,-0.305l0.113,-0.305l0.109,-0.302l0.109,-0.304l0.108,-0.31l0.106,-0.308l0.104,-0.308l0.103,-0.308l0.101,-0.311l0.1,-0.311l0.098,-0.312l0.068,-0.221l-108.508,0Z" style="fill:#585858;"/><path d="M1049.69,24.15c-1.394,-11.715 -8.585,-20.65 -17.235,-20.65c-8.65,0 -15.841,8.935 -17.235,20.65" style="fill:none;stroke:#585858;stroke-width:7px;"/><path d="M1113.52,24.485c-1.394,-11.715 -8.585,-20.65 -17.235,-20.65c-8.65,0 -15.841,8.935 -17.235,20.65" style="fill:none;stroke:#585858;stroke-width:7px;"/></g></g></svg>