<?xml version="1.0" encoding="UTF-8" standalone="no"?><!DOCTYPE svg PUBLIC "-//W3C//DTD SVG 1.1//EN" "http://www.w3.org/Graphics/SVG/1.1/DTD/svg11.dtd"><svg width="100%" height="100%" viewBox="0 0 294 405" version="1.1" xmlns="http://www.w3.org/2000/svg" xmlns:xlink="http://www.w3.org/1999/xlink" xml:space="preserve" style="fill-rule:evenodd;clip-rule:evenodd;stroke-linecap:round;stroke-linejoin:round;stroke-miterlimit:1.5;"><g><path d="M73.866,44.725c-16.579,6.271 -35.092,18.649 -43.619,29.373c-7.565,9.517 -6.283,23.238 -7.54,34.977c-1.257,11.739 0,23.638 0,35.457c0,12.271 -1.257,26.976 0,38.168c1.111,9.894 7.54,20.7 7.54,28.986c0,7.306 -8.14,13.447 -7.54,20.731c1.041,12.623 7.771,37.039 13.783,55.005c6.295,18.813 13.407,41.307 23.988,57.872c10.174,15.928 24.86,31.642 39.496,41.517c14.059,9.485 33.047,17.731 48.319,17.731c15.272,0 31.264,-8.176 43.312,-17.731c16.74,-13.276 45.58,-42.101 57.129,-61.924c9.896,-16.987 10.136,-40.233 12.164,-57.012c1.747,-14.459 0,-29.463 0,-43.658c0,-13.839 -0.93,-28.236 0,-41.517c0.896,-12.815 7.005,-25.396 5.574,-38.168c-2.027,-18.1 -9.456,-53.799 -17.738,-70.434c-6.324,-12.701 -18.505,-23.394 -31.957,-29.373c-16.74,-7.441 -45.027,-15.271 -68.484,-15.271c-23.819,0 -54.753,7.83 -74.427,15.271Z" style="fill:#f4ca9d;"/><path d="M112.719,188.463c-1.047,9.904 -3.377,45.435 -6.282,54.522c-1.073,3.357 -7.842,-1.453 -11.145,0c-3.303,1.453 -7.227,5.559 -8.673,8.716c-1.433,3.13 -1.089,8.066 0,10.228c1.024,2.032 4.15,2.744 6.534,2.744c2.504,0 5.533,-3.166 8.49,-2.744c3.261,0.466 8.169,3.614 11.076,5.54c2.457,1.628 3.542,5.044 6.362,6.016c2.911,1.002 10.361,-0.093 11.102,0c3.372,0.424 7.438,-10.336 12.036,-11.556c8.727,-2.316 10.134,-0.05 11.053,0c4.028,0.219 10.18,2.149 12.794,0c3.578,-2.941 5.387,-5.376 6.522,-7.282c1.567,-2.63 1.044,-6.199 0,-9.05c-1.087,-2.97 -4.482,-6.124 -6.522,-8.77c-1.855,-2.405 -4.026,-4.598 -5.721,-7.106c-2.132,-3.155 -5.745,-7.476 -7.073,-11.825c-1.607,-5.265 0.743,-13.427 -2.242,-24.583c-1.789,-6.688 0.41,-7.894 0,-13.712c-0.27,-3.834 -8.915,-5.463 -11.693,-6.556c-1.532,-0.602 -3.333,-0.205 -4.978,0c-2.771,0.346 -8.137,0.365 -11.65,2.073c-3.606,1.753 -8.325,6.222 -9.99,8.446c-0.999,1.334 0.171,3.274 0,4.899Z" style="fill:#d6ad8e;"/><path d="M155.052,187.11c2.819,-4.295 13.505,-11.788 20.744,-14.57c7.04,-2.704 15.204,-3.356 22.69,-2.118c7.7,1.275 18.299,6.982 23.513,9.763c3.101,1.654 6.018,4.424 7.769,6.925c1.651,2.358 4.539,5.821 2.735,8.076c-3.448,4.311 -16.745,13.786 -23.421,17.787c-5.036,3.018 -10.705,6.814 -16.637,6.22c-6.31,-0.632 -15.632,-6.53 -21.225,-10.011c-4.697,-2.924 -9.64,-7.197 -12.335,-10.875c-2.363,-3.227 -6.021,-7.863 -3.833,-11.197Z" style="fill:#d6ad8e;"/><path d="M38.618,198.307c-0.56,-4.091 2.899,-8.392 5.584,-11.197c2.685,-2.806 6.663,-4.539 10.526,-5.639c5.505,-1.568 16.102,-3.77 22.506,-3.77c5.47,0 11.478,1.686 15.915,3.77c4.224,1.984 9.352,5.148 10.71,8.735c1.358,3.588 0.048,9.217 -2.563,12.788c-3.064,4.19 -10.017,9.346 -15.823,12.353c-5.807,3.008 -12.784,5.692 -19.018,5.692c-6.234,0 -13.747,-1.903 -18.387,-5.692c-4.639,-3.788 -8.806,-12.334 -9.45,-17.04Z" style="fill:#95817c;"/><path d="M82.855,301.741l111.52,0l-7.158,8.001l-55.342,16.418l-39.897,-16.418l-9.123,-8.001Z" style="fill:#1d090c;"/><path d="M258.862,206.254c2.57,-12.014 15.022,-26.543 19.461,-31.852c1.482,-1.772 5.043,-1.024 7.175,0c2.458,1.181 6.643,3.847 7.575,7.084c1.262,4.39 0.638,13.283 0,19.255c-0.602,5.628 -2.389,11.089 -3.833,16.578c-1.737,6.604 -4.349,15.954 -6.591,23.046c-2.076,6.564 -4.464,15.336 -6.865,19.503c-1.518,2.634 -4.721,4.582 -7.541,5.498c-2.82,0.916 -8.918,2.919 -9.381,0c-1.563,-9.852 -3.243,-43.952 0,-59.112Z" style="fill:#ecbc9e;"/><path d="M268.243,200.741c2.876,-4.249 13.599,-17.823 17.255,-19.255c3.655,-1.431 4.677,6.82 4.677,10.668c0,5.713 -1.439,16.21 -4.677,23.609c-3.656,8.352 -13.66,22.085 -17.255,26.502c-0.876,1.077 -4.315,1.358 -4.315,0c0,-1.91 2.216,-7.922 4.315,-11.459c2.62,-4.417 10.16,-11.073 11.406,-15.043c0.957,-3.046 -2.024,-7.317 -3.925,-8.78c-1.901,-1.464 -6.234,1.04 -7.481,0c-1.247,-1.04 -1.187,-4.488 0,-6.242Z" style="fill:#ae4c42;stroke:#d6ad8e;stroke-width:1.5px;"/><path d="M96.692,304.008c1.423,2.61 4.271,7.83 6.521,9.396c1.873,1.303 5.818,1.566 6.981,0c1.164,-1.566 0.469,-7.83 0,-9.396c-0.255,-0.852 -1.89,0.78 -2.815,0c-2.577,-2.173 -8.495,-0.676 -10.687,0" style="fill:#4d3221;"/><path d="M164.247,304.008c-1.232,1.566 0.513,8.249 2.094,9.396c1.581,1.146 6.161,-0.951 7.393,-2.517c1.232,-1.566 1.581,-5.732 0,-6.879c-1.581,-1.146 -8.254,-1.566 -9.487,0Z" style="fill:#675046;"/><path d="M155.003,306.623c-1.112,1.485 -3.01,5.229 -3.01,6.781c0,1.268 1.717,2.185 3.01,2.529c1.583,0.421 4.951,1.436 6.488,0c1.661,-1.552 3.949,-7.403 3.478,-9.31c-0.471,-1.906 -4.643,-2.127 -6.305,-2.127c-1.433,0 -2.834,1.023 -3.661,2.127Z" style="fill:#5e4639;"/><path d="M136.671,308.933c-1.42,0.651 -0.452,3.078 0,4.471c0.453,1.393 1.141,3.434 2.714,3.888c2.244,0.648 8.11,2.069 10.755,0c2.645,-2.068 7.359,-11.016 5.115,-12.409c-2.245,-1.393 -15.486,2.63 -18.584,4.05Z" style="fill:#5f5f5f;"/><path d="M97.141,194.635c-0.629,-1.636 -8.397,-8.283 -13.971,-9.817c-5.944,-1.636 -16.22,-1.636 -21.693,0c-4.844,1.448 -11.145,8.181 -11.145,9.817c0,1.636 8.683,-2.626 11.145,0c3.082,3.286 13.601,2.901 19.658,0c1.728,-0.828 3.875,0 5.813,0c2.668,0 10.823,1.636 10.193,0Z" style="fill:#fffae8;"/><path d="M119.35,308.933c0.516,1.808 0.303,7.039 3.101,8.359c2.952,1.394 12.176,1.394 14.611,0c2.436,-1.393 2.477,-6.842 0,-8.359c-2.952,-1.809 -13.867,-1.487 -17.712,-2.492c-1.569,-0.41 -0.23,1.69 0,2.492Z" style="fill:#7b7b7b;"/><path d="M111.102,304.388l0,10.66l8.914,0l0,-8.218l-8.914,-2.442Z" style="fill:#655147;"/><path d="M91.482,238.964c-1.613,0 -20.592,13.98 -27.14,21.405c-5.836,6.617 -11.057,16.481 -12.152,23.142c-0.954,5.808 3.559,13.433 5.584,16.826c1.237,2.072 5.992,4.756 6.568,3.532c0.576,-1.224 -4.008,-7.483 -3.112,-10.876c0.897,-3.393 6.968,-5.601 8.49,-9.482c2.132,-5.437 0.827,-16.03 4.302,-23.142c3.627,-7.425 19.074,-21.405 17.46,-21.405Z" style="fill:#d5b593;"/><path d="M170.849,234.609c1.221,4.632 17.762,20.759 22.873,27.788c3.228,4.44 5.047,11.988 7.791,14.385c2.121,1.854 6.51,-1.81 8.673,0c2.833,2.371 5.214,12.99 8.319,14.223c3.105,1.234 8.958,-3.074 10.31,-6.825c1.718,-4.768 2.741,-14.999 0,-21.783c-3.105,-7.684 -11.558,-19.688 -18.629,-24.32c-6.592,-4.318 -15.597,-1.117 -23.792,-3.468c-10.395,-2.98 -16.766,-4.631 -15.545,0Z" style="fill:#d6ad8e;stroke:#000;stroke-opacity:0;stroke-width:1.5px;"/><path d="M167.66,189.084c0,-1.123 7.743,-6.553 11.957,-8.726c4.123,-2.125 8.634,-4.309 13.331,-4.309c5.425,0 14.982,3.042 19.221,4.309c2.265,0.677 7.627,1.84 6.214,3.294c-1.413,1.455 -9.513,4.565 -14.692,5.432c-5.407,0.905 -13.735,0.331 -17.747,0c-2.214,-0.183 -4.104,-1.987 -6.327,-1.987c-3.047,0 -11.957,3.11 -11.957,1.987Z" style="fill:#fffae8;"/><path d="M27.94,200.489c0,0 -1.695,-27.426 10.538,-56.81c2.853,-6.852 23.758,-27.809 25.871,-32.566c9.292,-20.922 30.629,-61.556 30.629,-61.556l0,-17.349c-17.575,9.795 -32.722,18.178 -67.038,37.141c-11.957,51.055 -10.851,91.777 0,131.14Z" style="fill:#95817c;"/><ellipse cx="71.617" cy="189.527" rx="9.577" ry="7.193" style="fill:#151314;stroke:#000;stroke-width:1.5px;"/><ellipse cx="194.724" cy="183.209" rx="9.577" ry="7.193" style="fill:#151314;"/><path d="M83.534,301.233c7.737,18.711 25.397,36.835 56.798,35.866c32.406,-5.831 42.227,-23.171 54.877,-35.866c-10.64,3.565 -21.939,11.47 -36.768,15.131c-10.35,4.811 -22.098,4.281 -33.011,3.304c-18.43,-0.069 -41.896,-18.435 -41.896,-18.435Z" style="fill:#643e2b;"/><path d="M85.9,301.429c1.47,0.144 4.412,0.432 6.545,0c2.962,-0.6 7.274,-3.597 11.226,-3.597c4.499,0 10.81,2.997 15.768,3.597c4.623,0.559 9.365,0.597 13.982,0c4.632,-0.6 9.035,-3.597 13.81,-3.597c5.311,0 12.232,2.997 18.057,3.597c5.596,0.576 12.013,0 16.889,0c4.123,0 13.219,-0.436 12.369,0c-0.851,0.435 -11.678,1.579 -17.472,2.612c-6.198,1.105 -13.11,3.349 -19.718,4.019c-6.606,0.669 -13.287,0 -19.93,0c-6.732,0 -14.833,0.669 -20.458,0c-4.618,-0.55 -9.21,-3.349 -13.297,-4.019c-3.687,-0.604 -8.264,0.436 -11.226,0c-2.34,-0.344 -5.144,-1.856 -6.545,-2.612" style="fill:#643e2b;"/><path d="M46.467,214.332c-4.141,2.437 -9.167,8.647 -10.333,17.02" style="fill:none;stroke:#d6ad8e;stroke-width:1.5px;"/><path d="M31.043,200.854c2.808,-1.109 5.294,-0.144 7.575,2.14c-1.982,2.712 -4.382,3.914 -7.575,2.246" style="fill:none;stroke:#d6ad8e;stroke-width:1.5px;"/><path d="M220.604,205.483c27.689,17.829 36.671,40.881 35.138,54.946" style="fill:none;stroke:#d6ad8e;stroke-width:1.5px;"/><path d="M130.884,195.196c-0.429,4.318 0,19.219 0,25.908c0,4.741 0.473,10.859 0,14.223c-0.304,2.16 -2.47,3.811 -2.842,5.962c-0.474,2.734 -2.756,8.702 0,10.442c2.755,1.741 11.4,0.351 16.534,0c4.801,-0.328 11.312,-0.365 14.268,-2.105c2.683,-1.58 4.657,-5.954 3.467,-8.337c-1.19,-2.383 -7.705,-3.208 -10.606,-5.962c-2.956,-2.806 -4.85,-9.063 -7.129,-10.875c-1.669,-1.327 -6.044,2.004 -6.545,0c-1.091,-4.359 0.762,-21.28 0,-26.156c-0.275,-1.753 -3.386,-2.583 -4.577,-3.1c-0.778,-0.337 -2.49,-0.805 -2.57,0Z" style="fill:#fad2b5;"/><path d="M81.347,112.289c11.723,0.854 35.169,2.561 46.695,2.16c7.653,-0.267 14.91,-3.351 22.459,-4.568c7.565,-1.221 15.234,-3.091 22.931,-2.754c9.157,0.402 23.007,2.576 32.014,5.162c7.848,2.254 17.3,7.656 22.026,10.357" style="fill:none;stroke:#d6ad8e;stroke-width:1.5px;"/><path d="M81.347,90.183c11.866,0.359 35.598,1.076 46.695,0c6.974,-0.676 12.945,-5.536 19.887,-6.458c8.101,-1.076 19.274,-1.476 28.719,0c10.977,1.715 28.419,7.432 37.141,10.291" style="fill:none;stroke:#d6ad8e;stroke-width:1.5px;"/><path d="M147.707,164.128c2.019,-3.48 12.466,-10.357 17.918,-13.187c4.478,-2.323 9.685,-3.791 14.795,-3.791c6.568,0 16.791,1.133 24.612,3.791c8.324,2.83 19.279,8.219 25.331,13.187c5.221,4.284 9.154,12.619 10.985,16.619c1.034,2.257 1.831,6.148 0,7.378c-1.831,1.229 -8.189,2.232 -10.985,0c-3.403,-2.718 -5.216,-12.308 -9.438,-16.308c-4.202,-3.98 -10.042,-6.654 -15.893,-7.689c-7.241,-1.282 -20.984,0.514 -27.552,0c-4.085,-0.321 -7.973,-4.335 -11.855,-3.09c-3.995,1.282 -9.129,10.264 -12.115,10.779c-2.987,0.515 -7.405,-4.929 -5.803,-7.689Z" style="fill:#422015;"/><path d="M118.861,165.167c-7.395,-2.568 -22.184,-7.704 -30.024,-9.936c-5.554,-1.581 -11.695,-3.455 -17.014,-3.455c-5.114,0 -10.487,1.013 -14.898,3.455c-6.81,3.771 -23.068,15.631 -25.961,19.169c-1.808,2.211 5.644,2.063 8.603,2.063c3.113,0 6.848,-0.938 10.069,-2.063c4.28,-1.494 10.263,-5.75 15.608,-6.901c5.345,-1.15 11.958,-0.388 16.465,0c3.604,0.311 6.954,2.332 10.573,2.332c4.703,0 13.214,-1.943 17.644,-2.332c2.965,-0.26 7.446,0.389 8.935,0c0.794,-0.207 0.265,-1.624 0,-2.332" style="fill:#422015;"/><path d="M228.486,198.788c24.029,13.996 22.046,28.631 24.28,33.653" style="fill:none;stroke:#d6ad8e;stroke-width:1.5px;"/><path d="M165.078,191.509c1.589,2.23 12.236,6.981 18.068,8.878c5.398,1.756 11.43,3.979 16.922,2.505c6.841,-1.837 20.598,-10.267 24.12,-13.522c1.674,-1.547 -0.644,-6.005 -2.987,-6.005c-3.587,0 -12.193,5.004 -18.536,6.005c-6.342,1.001 -14.677,0.395 -19.519,0c-3.274,-0.266 -6.522,-2.722 -9.533,-2.365c-3.012,0.356 -10.124,2.273 -8.535,4.504Z" style="fill:#7e4535;"/><path d="M45.169,199.373c0.932,3.052 4.647,11.786 10.218,13.491c5.654,1.729 17.243,-2.045 23.707,-3.111c5.082,-0.838 11.072,-1.553 15.081,-3.282c3.549,-1.532 8.202,-5.112 8.972,-7.098c0.769,-1.98 -2.121,-4.644 -4.348,-4.816c-5.37,-0.416 -21.416,2.322 -27.873,2.322c-3.715,0 -7.349,-1.935 -10.871,-2.322c-3.398,-0.374 -7.781,-0.803 -10.262,0c-2.172,0.702 -5.26,2.735 -4.624,4.816Z" style="fill:#643e2b;"/><path d="M14.694,190.126c-0.646,-5.39 -1.937,-16.171 -3.661,-23.947c-1.705,-7.691 -6.129,-14.872 -6.682,-22.712c-0.688,-9.766 1.438,-27.363 2.552,-35.888c0.68,-5.211 4.555,-12.717 4.13,-15.261c-0.347,-2.076 -5.994,1.028 -6.682,0c-0.688,-1.028 2.126,-4.533 2.552,-6.166c0.306,-1.174 -0.502,-2.515 0,-3.628c0.688,-1.526 5.253,-5.529 4.13,-5.529c-1.124,0 -9.757,5.846 -10.871,5.529c-1.113,-0.317 3.857,-6.192 4.189,-7.43c0.18,-0.67 -2.695,0.508 -2.198,0c1.114,-1.138 8.88,-5.688 8.88,-6.825c0,-1.138 -8.191,1.105 -8.88,0c-0.688,-1.105 2.929,-4.59 4.75,-6.631c2.09,-2.344 5.277,-5.243 7.791,-7.429c2.318,-2.018 6.695,-2.769 7.289,-5.692c0.604,-2.976 -2.536,-8.083 -3.661,-12.161c-1.215,-4.402 -4.238,-11.879 -3.628,-14.254c0.572,-2.229 6.684,2.102 7.289,0c0.604,-2.103 -4.77,-9.421 -3.661,-12.616c1.108,-3.195 6.271,-5.68 10.309,-6.555c5.041,-1.093 14.372,-1.093 19.933,0c4.934,0.969 9.671,6.555 13.432,6.555c3.761,0 5.535,-5.463 9.132,-6.555c3.596,-1.093 8.392,0 12.449,0l24.234,0c4.613,0 10.231,0.3 15.333,0c6.306,-0.371 16.193,-1.855 22.505,-2.226c5.112,-0.301 10.472,-1.424 15.367,0c5.032,1.463 10.115,8.41 14.829,8.781c4.714,0.371 8.523,-5.542 13.455,-6.555c5.32,-1.093 12.66,-1.928 18.467,0c6.083,2.019 12.513,7.495 18.033,12.116c9.075,7.597 28.564,24.599 36.419,33.47c5.025,5.675 8.723,12.597 10.708,19.752c2.166,7.807 1.983,18.035 2.288,27.088c0.382,11.32 0,31.525 0,40.833c0,5.003 -1.047,11.893 0,15.011c0.746,2.22 5.351,1.537 6.283,3.694c1.482,3.432 4.658,11.545 2.611,16.9c-3.213,8.405 -17.78,33.533 -21.89,33.533c-4.11,0 -2.451,-22.326 -2.768,-33.533c-0.461,-16.292 6.862,-43.814 0,-64.216c-6.91,-20.547 -22.492,-47.192 -41.459,-59.062c-18.967,-11.871 -49.94,-11.177 -72.343,-12.161c-20.786,-0.913 -43.581,0.938 -62.072,6.256c-17.833,5.13 -39.357,19.005 -48.876,25.657c-4.609,3.221 -7.305,8.915 -8.238,14.255c-2.12,12.135 -4.48,40.623 -4.48,58.556c0,16.41 1.662,36.993 4.48,49.046c2.608,11.158 8.665,38.911 2.168,33.851c-2.478,-1.93 0.89,9.342 0,7.122c-1.108,-2.764 -4.326,-16.878 -6.648,-23.707c-2.007,-5.898 -5.529,-13.477 -7.289,-17.266" style="fill:#8c694d;"/><path d="M40.196,262.656c-4.72,25.124 16.857,67.031 29.662,86.661c10.058,15.418 20.408,17.787 47.17,31.119c7.504,3.738 -21.683,-19.682 -47.17,-45.71c-23.007,-23.495 -32.4,-57.497 -29.662,-72.07Z" style="fill:#95817c;"/><path d="M113.763,184.272c-1.052,-3.048 -6.906,29.22 -10.158,38.721c-2.197,6.417 -7.797,14.656 -9.357,18.286c-0.466,1.086 -1.225,3.139 0,3.494c2.009,0.582 9.438,0.582 12.049,0c1.713,-0.382 3.426,-1.906 3.622,-3.494c1.245,-10.083 4.897,-53.959 3.844,-57.007Z" style="fill:#422015;"/></g></svg>