<?xml version="1.0" encoding="UTF-8" standalone="no"?><!DOCTYPE svg PUBLIC "-//W3C//DTD SVG 1.1//EN" "http://www.w3.org/Graphics/SVG/1.1/DTD/svg11.dtd"><svg width="100%" height="100%" viewBox="0 0 277 242" version="1.1" xmlns="http://www.w3.org/2000/svg" xmlns:xlink="http://www.w3.org/1999/xlink" xml:space="preserve" style="fill-rule:evenodd;clip-rule:evenodd;stroke-linecap:round;stroke-linejoin:round;stroke-miterlimit:1.5;"><g><path d="M24.133,172.908c0,0 -10.858,45.05 -10.52,56.4c0.17,5.717 8.151,10.06 12.547,11.703c7.111,2.656 20.998,-1.504 24.23,-15.102c2.649,-11.145 5.023,-29.436 5.023,-29.436c-0.979,4.074 0.518,0.878 5.398,6.455c7.149,4.093 7.226,-0.295 12.967,-3.56c3.42,3.673 7.294,5.726 12.35,3.56c8.163,-1.728 21.354,-15.26 25.039,-23.937c3.438,-8.095 2.285,-16.829 -9.463,-19.203c12.807,3.579 20.214,-29.129 8.419,-45.861c-8.596,-12.194 -54.474,-20.416 -71.313,-20.556c-13.065,-0.109 -37.953,37.196 -38.777,51.937c-0.696,12.449 9.66,26.608 24.1,27.6Z" style="fill:#fff;"/><path d="M75.359,200.066c7.017,-6.831 22.386,-26.19 22.418,-37.629c2.805,-5.84 2.428,-12.081 -5.998,-19.334c-6.784,-2.597 -15.629,0.868 -23.259,9.352" style="fill:#fff;"/><path d="M46.031,174.101c6.161,2.626 13.747,4.631 19.085,5.502c5.488,0.895 12.294,-6.086 12.619,-12.437c0.229,-4.447 -4.423,-9.253 -9.517,-14.104c-3.809,-3.627 -8.575,-6.593 -14.039,-7.228c3.358,-1.289 4.829,-3.11 1.788,-6.205" style="fill:#fff;"/><path d="M44.65,107.84c43.107,-136.763 113.61,-121.737 231.032,-73.092c6.257,2.592 -29.813,33.355 -16.689,52.085c-77.204,-38.381 -125.65,-49.819 -163.312,34.273l-51.031,-13.266Z" style="fill:#fff;"/><path d="M52.919,87.904l21.018,8.833l0.517,9.5l9.174,-10.028l17.368,8.583l-4.054,17.01l-52.304,-13.941l8.281,-19.957Z" style="fill:#fff;"/><g><path d="M30.096,169.541c0,0 -10.804,47.077 -11.273,58.27c-0.172,4.086 4.623,7.459 8.453,8.89c6.197,2.315 17.125,-8.4 19.941,-20.249c2.309,-9.712 4.98,-34.215 4.98,-34.215c-0.853,3.55 -1.315,7.199 2.938,12.059c6.229,3.567 11.452,1.873 16.454,-0.972c2.98,3.201 6.356,4.99 10.762,3.102c7.113,-1.505 18.608,-13.297 21.819,-20.858c2.995,-7.054 1.991,-14.664 -8.246,-16.733c11.16,3.119 17.614,-25.383 7.336,-39.963c-7.49,-10.625 -47.468,-17.79 -62.142,-17.912c-11.384,-0.095 -33.071,32.412 -33.789,45.257c-0.607,10.848 10.184,22.459 22.767,23.324Z" style="fill:#fd9972;stroke:#ff7e61;stroke-width:5.5px;"/><path d="M73.522,192.077c6.114,-5.953 19.507,-22.821 19.534,-32.789c2.445,-5.089 2.116,-10.527 -5.226,-16.848c-5.912,-2.263 -13.619,0.756 -20.268,8.15" style="fill:#fd9972;stroke:#ff7e61;stroke-width:5.5px;"/><path d="M47.965,169.452c5.369,2.287 11.979,4.035 16.631,4.794c4.782,0.78 10.713,-5.304 10.997,-10.837c0.198,-3.876 -3.855,-8.064 -8.294,-12.291c-3.319,-3.16 -7.472,-5.744 -12.233,-6.299c2.926,-1.122 4.208,-2.709 1.558,-5.406" style="fill:#fd9972;stroke:#ff7e61;stroke-width:5.5px;"/></g><path d="M47.336,111.856c37.118,-125.496 117.968,-125.088 220.701,-76.855c5.341,2.508 -27.019,28.125 -15.584,44.446c-77.573,-44.391 -136.615,-38.651 -160.649,43.969l-44.468,-11.56Z" style="fill:#1b4f67;"/><path d="M53.968,94.34l18.315,7.697l0.45,8.279l7.994,-8.738l15.135,7.478l-3.533,14.822l-45.577,-12.148l7.216,-17.39Z" style="fill:#203c51;"/></g></svg>