<?xml version="1.0" encoding="UTF-8" standalone="no"?><!DOCTYPE svg PUBLIC "-//W3C//DTD SVG 1.1//EN" "http://www.w3.org/Graphics/SVG/1.1/DTD/svg11.dtd"><svg width="100%" height="100%" viewBox="0 0 315 444" version="1.1" xmlns="http://www.w3.org/2000/svg" xmlns:xlink="http://www.w3.org/1999/xlink" xml:space="preserve" style="fill-rule:evenodd;clip-rule:evenodd;stroke-linecap:round;stroke-linejoin:round;stroke-miterlimit:1.5;"><path d="M269.393,67.175c-104.153,6.238 -180.849,5.998 -233.146,0c-1.779,4.258 -19.224,217.142 28.909,233.005c17.413,5.739 43.274,13.195 83.947,13.588c38.642,0.373 80.245,-3.137 98.21,-13.588c42.404,-24.666 22.08,-233.005 22.08,-233.005Z" style="fill:#fd9972;stroke:#fd9972;stroke-opacity:0.14902;stroke-width:2px;"/><path d="M34.396,129.984l0,70.732c-12.131,-3.37 -21.266,-17.933 -21.266,-35.366c0,-17.433 9.135,-31.997 21.266,-35.366Z" style="fill:#ff7e61;"/><path d="M272.843,130.774l0,70.731c12.131,-3.369 21.266,-17.933 21.266,-35.366c0,-17.433 -9.135,-31.996 -21.266,-35.365Z" style="fill:#ff7e61;"/><path d="M40.381,260.028c-8.898,-13.747 -58.211,12.512 -33.539,88.057c13.354,40.894 40.777,85.273 52.062,85.48c1.979,-48.838 -12.834,-123.013 -18.523,-173.537Z" style="fill:#1b4f67;"/><path d="M265.838,261.756c24.512,10.871 41.328,28.196 45.984,55.294l2.442,43.868c-11.169,16.657 -22.564,28.434 -34.129,36.543l-17.855,13.583c-1.979,-48.838 -2.673,-110.145 3.558,-149.288Z" style="fill:#1b4f67;"/><path d="M243.647,309.318l0,113.798c13.116,-5.922 25.879,-13.008 36.797,-26.194l0,-30.872l-17.699,-10.528l17.699,-8.522l0,-57.977c-0.736,-7.728 -8.358,-14.795 -14.521,-20.43l-22.276,40.725Z" style="fill:#203c51;"/><path d="M243.881,311.038c1.037,2.341 -180.16,0.716 -179.809,-3.414c0.02,41.802 0.199,-28.136 0,117.997c57.059,23.761 117.022,23.542 179.809,0l0,-114.583Z" style="fill:#fff;"/><ellipse cx="107.841" cy="144.509" rx="10.638" ry="11.02" style="fill:#45444a;"/><ellipse cx="195.59" cy="144.509" rx="10.638" ry="11.02" style="fill:#45444a;"/><path d="M162.487,142.904c0,-5.577 -4.528,-10.104 -10.105,-10.104l-1.067,0c-5.577,0 -10.104,4.527 -10.104,10.104l0,10.138c0,5.577 4.527,10.104 10.104,10.104l1.067,0c5.577,0 10.105,-4.527 10.105,-10.104l0,-10.138Z" style="fill:#ff7b5c;"/><path d="M171.169,264.101c0.443,1.319 0.68,2.708 0.68,4.142c0,8.609 -8.539,15.599 -19.058,15.599c-10.518,0 -19.057,-6.99 -19.057,-15.599c0,-1.434 0.236,-2.823 0.68,-4.142l36.755,0Z" style="fill:#f48671;"/><path d="M62.236,70.385c0,-4.011 -6.344,-7.269 -10.355,-7.269l-14.538,0c-4.012,0 -7.269,3.258 -7.269,7.269c-3.918,29.813 -5.592,59.458 -6.004,89.011c0,4.012 9.261,9.423 13.273,9.423l7.247,0c4.012,0 12.087,-3.257 12.087,-7.269c0.82,-30.319 2.539,-60.699 5.559,-91.165Z" style="fill:#f4c356;"/><path d="M242.542,76.223c5.48,-0.368 29.631,-32.378 26.921,-44.227c1.967,3.517 2.513,9.001 3.01,14.318c0.001,0.008 7.041,82.445 7.454,111.997c0,4.012 -9.262,9.423 -13.274,9.423l-7.247,0c-4.012,0 -12.086,-3.257 -12.086,-7.269c-0.82,-30.319 -1.759,-53.775 -4.778,-84.242Z" style="fill:#f4c356;"/><path d="M122.25,126.16c0.682,-2.98 -1.184,-5.954 -4.165,-6.636l-25.936,-5.933c-2.98,-0.682 -5.954,1.185 -6.636,4.165l-0.378,1.654c-0.682,2.981 1.184,5.954 4.165,6.636l25.936,5.933c2.981,0.682 5.954,-1.184 6.636,-4.165l0.378,-1.654Z" style="fill:#f4c356;"/><g><path d="M153.438,179.185c29.723,1.346 41.558,13.377 45.753,30.854c4.039,16.831 -11.585,30.654 -45.753,30.855c-36.943,0.218 -51.597,-11.666 -49.217,-30.855c1.963,-15.825 12.286,-31.924 43.911,-30.678c1.731,0.068 3.499,-0.258 5.306,-0.176Z" style="fill:#ee4a5a;"/><path d="M128.633,228.347c-0.219,-0.839 -0.333,-1.702 -0.333,-2.582c0,-8.416 10.437,-15.249 23.294,-15.249c12.856,0 23.294,6.833 23.294,15.249c0,0.88 -0.114,1.743 -0.333,2.582c-14.949,3.418 -30.266,3.326 -45.922,0Z" style="fill:#ff7e61;"/><path d="M178.71,226.593c0,-2.421 -1.965,-4.387 -4.386,-4.387l-45.409,0c-2.421,0 -4.387,1.966 -4.387,4.387l0,1.687c0,2.421 1.966,4.386 4.387,4.386l45.409,0c2.421,0 4.386,-1.965 4.386,-4.386l0,-1.687Z" style="fill:#fff;"/><path d="M176.945,186.234c0,-3.584 -2.909,-6.493 -6.493,-6.493l-39.602,0c-3.583,0 -6.493,2.909 -6.493,6.493l0,2.35c0,3.584 2.91,6.493 6.493,6.493l39.602,0c3.584,0 6.493,-2.909 6.493,-6.493l0,-2.35Z" style="fill:#fff;"/><path d="M154.556,176.83c29.723,1.346 41.558,13.376 45.753,30.854c4.039,16.831 -11.585,30.653 -45.753,30.855c-36.943,0.217 -51.597,-11.666 -49.217,-30.855c1.963,-15.825 12.286,-31.925 43.911,-30.679c1.731,0.069 3.5,-0.257 5.306,-0.175Z" style="fill:none;stroke:#ff7e61;stroke-width:9px;"/></g><path d="M180.373,126.041c-0.682,-2.98 1.184,-5.954 4.164,-6.636l25.937,-5.933c2.98,-0.682 5.953,1.185 6.635,4.165l0.379,1.654c0.681,2.981 -1.185,5.954 -4.165,6.636l-25.937,5.933c-2.98,0.682 -5.953,-1.184 -6.635,-4.165l-0.378,-1.654Z" style="fill:#f4c356;"/><path d="M38.561,250.629c6.622,27.227 29.983,47.322 54.857,54.259c29.827,8.317 94.045,7.679 123.374,0c24.49,-6.412 43.508,-24.874 51.738,-54.259c-2.247,29.601 -20.32,56.232 -45.273,63.841c-31.651,9.651 -114.037,4.068 -144.629,-5.936c-19.092,-6.242 -39.34,-20.82 -40.067,-57.905Z" style="fill:#fe8b66;"/><path d="M143.093,316.954c0,0 -8.004,5.408 -7.045,9.13c1.055,4.095 13.377,15.436 13.377,15.436l-9.563,76.189c0,0 11.54,15.265 17.423,15.638c5.883,0.373 17.878,-13.402 17.878,-13.402l-5.778,-78.425c0,0 12.032,-11.341 12.995,-15.436c0.888,-3.776 -7.217,-9.13 -7.217,-9.13l-32.07,0Z" style="fill:#1976d3;"/><path d="M64.449,308.608l0,113.798c-13.115,-5.921 -19.654,-13.007 -30.573,-26.193l-6.224,-30.873c16.827,-7.371 15.026,-8.159 17.7,-10.528l-17.7,-8.521l-7.273,-57.977c0.737,-7.728 14.669,-14.354 20.832,-19.989l23.238,40.283Z" style="fill:#203c51;"/><path d="M10.516,16.8c8.809,5.95 22.062,10.715 32.142,8.887c42.731,-18.543 103.999,-28.57 142.273,-24.957c31.41,2.966 82.513,13.469 86.525,37.128c4.555,26.861 -25.414,46.983 -111.318,56.418c-56.168,5.223 -99.628,-5.351 -128.241,-34.381c-10.588,-13.49 -21.109,-28.675 -21.381,-43.095Z" style="fill:#ffe6a9;"/><path d="M9.712,22.644c8.809,5.95 18.028,9.39 28.109,7.563c42.761,-18.204 103.714,-25.175 140.948,-23.056c29.912,1.702 78.444,12.111 82.456,35.769c4.554,26.861 -20.02,46.441 -105.924,55.876c-56.168,5.223 -99.628,-5.351 -128.241,-34.382c-10.588,-13.49 -17.076,-27.35 -17.348,-41.77Z" style="fill:#ffc95c;"/><path d="M30.807,67.771c-0.399,-0.805 6.834,6.274 15.545,11.891c5.013,3.233 9.13,4.878 14.089,7.29c14.208,6.911 30.265,10.823 49.474,12.19c24.841,1.769 54.953,-0.203 80.385,-5.039c28.328,-5.388 41.013,-11.031 52.691,-17.001c7.603,-3.887 17.378,-18.822 17.378,-18.822c0,0 -2.043,17.413 -9.879,23.471c-15.196,11.749 -57.194,24.463 -88.005,26.855c-30.869,2.395 -78.316,-3.5 -100.018,-12.008c-11.869,-4.654 -30.821,-27.137 -31.66,-28.827Z" style="fill:#fff;fill-opacity:0.552941;"/></svg>