<?xml version="1.0" encoding="UTF-8" standalone="no"?><!DOCTYPE svg PUBLIC "-//W3C//DTD SVG 1.1//EN" "http://www.w3.org/Graphics/SVG/1.1/DTD/svg11.dtd"><svg width="100%" height="100%" viewBox="0 0 1400 841" version="1.1" xmlns="http://www.w3.org/2000/svg" xmlns:xlink="http://www.w3.org/1999/xlink" xml:space="preserve" style="fill-rule:evenodd;clip-rule:evenodd;stroke-linejoin:round;stroke-miterlimit:1.41421;"><rect x="0" y="4.465" width="1399.13" height="836" style="fill:#484848;"/><path d="M470.689,840.589l162.946,-652.928l0,327.077l-119.495,325.851l-43.451,0Z" style="fill:#f04e37;"/><path d="M435.616,840.589l119.253,-782.314l78.766,116.442l0,20.199l-161.67,645.673l-36.349,0Z" style="fill:#264a8b;"/><path d="M399.186,840.589l45.618,-840.589l70.646,0l41.24,60.966l-120.355,779.623l-37.149,0Z" style="fill:#f04e37;"/><path d="M399.577,840.589l-40.8,0l-42.004,-768.923l105.946,-71.666l23.362,0l-46.504,840.589Z" style="fill:#264a8b;"/><path d="M313.617,840.589l-52.125,0l-189.136,-602.968l122.203,-82.662l119.058,685.63Z" style="fill:#264a8b;"/><path d="M358.777,840.589l-44.168,0l-119.259,-686.788l121.423,-82.135l42.004,768.923Z" style="fill:#f04e37;"/><path d="M262.646,840.589l-55.294,0c-72.932,-156.645 -152.544,-326.141 -202.741,-428.573l0,-129.772c32.536,-21.836 68.535,-45.781 68.535,-45.781l189.5,604.126Z" style="fill:#f04e37;"/><path d="M390.53,42.365l4.847,37.099l37.841,7.445l-34.845,15.484l4.847,37.099l-26.383,-27.53l-34.846,15.484l18.541,-32.498l-26.383,-27.53l37.841,7.445l18.54,-32.498Z" style="fill:#fff;"/><path d="M155.885,196.701l4.847,37.099l37.841,7.445l-34.845,15.484l4.847,37.099l-26.383,-27.53l-34.846,15.484l18.54,-32.498l-26.383,-27.53l37.842,7.445l18.54,-32.498Z" style="fill:#fff;"/><path d="M194.763,336.263l4.847,37.099l37.842,7.445l-34.846,15.484l4.847,37.099l-26.383,-27.53l-34.845,15.484l18.54,-32.498l-26.383,-27.53l37.841,7.445l18.54,-32.498Z" style="fill:#fff;"/></svg>