<?xml version="1.0" encoding="UTF-8" standalone="no"?><!DOCTYPE svg PUBLIC "-//W3C//DTD SVG 1.1//EN" "http://www.w3.org/Graphics/SVG/1.1/DTD/svg11.dtd"><svg width="100%" height="100%" viewBox="0 0 427 595" version="1.1" xmlns="http://www.w3.org/2000/svg" xmlns:xlink="http://www.w3.org/1999/xlink" xml:space="preserve" style="fill-rule:evenodd;clip-rule:evenodd;stroke-linecap:round;stroke-linejoin:round;stroke-miterlimit:1.5;"><rect x="1.961" y="0" width="421.346" height="594.836" style="fill:#444f8d;"/><path d="M297.763,244.534c0,-23.467 -19.052,-42.52 -42.52,-42.52l-85.039,0c-23.467,0 -42.52,19.053 -42.52,42.52l0,85.04c0,23.467 19.053,42.519 42.52,42.519l85.039,0c23.468,0 42.52,-19.052 42.52,-42.519l0,-85.04Z" style="fill:#6b708f;stroke:#fffdfd;stroke-width:5.5px;"/><g transform="matrix(0.24,0,0,0.24,1.5418,110.146)"><text x="388.908px" y="1922.13px" style="font-family:'Futura-Medium', 'Futura', sans-serif;font-weight:500;font-size:100px;fill:none;">cr<tspan x="473.283px 528.605px 588.566px 616.789px 672.111px " y="1922.13px 1922.13px 1922.13px 1922.13px 1922.13px ">eate </tspan>a dat<tspan x="941.936px 1001.9px 1061.86px 1119.57px 1175.38px " y="1922.13px 1922.13px 1922.13px 1922.13px 1922.13px ">abox </tspan>app</text><text x="388.908px" y="1922.13px" style="font-family:'Futura-Medium', 'Futura', sans-serif;font-weight:500;font-size:100px;fill:#fff;">cr<tspan x="473.283px 528.605px 588.566px 616.789px 672.111px " y="1922.13px 1922.13px 1922.13px 1922.13px 1922.13px ">eate </tspan>a dat<tspan x="941.936px 1001.9px 1061.86px 1119.57px 1175.38px " y="1922.13px 1922.13px 1922.13px 1922.13px 1922.13px ">abox </tspan>app</text></g><path d="M4.25,44.366c138.167,-4.073 207.827,50.537 205.966,154.66" style="fill:none;stroke:#fffdfd;stroke-width:8.5px;"/><path d="M421.916,536.295c-138.166,4.073 -208.618,-50.537 -206.758,-154.66" style="fill:none;stroke:#fffdfd;stroke-width:8.5px;"/><ellipse cx="211.791" cy="201.023" rx="20.831" ry="21.104" style="fill:#b6b6b6;stroke:#fffdfd;stroke-width:5.5px;"/><ellipse cx="213.584" cy="379.638" rx="20.831" ry="21.104" style="fill:#b6b6b6;stroke:#fffdfd;stroke-width:5.5px;"/></svg>