<?xml version="1.0" encoding="UTF-8" standalone="no"?><!DOCTYPE svg PUBLIC "-//W3C//DTD SVG 1.1//EN" "http://www.w3.org/Graphics/SVG/1.1/DTD/svg11.dtd"><svg width="100%" height="100%" viewBox="0 0 427 501" version="1.1" xmlns="http://www.w3.org/2000/svg" xmlns:xlink="http://www.w3.org/1999/xlink" xml:space="preserve" style="fill-rule:evenodd;clip-rule:evenodd;stroke-linecap:round;stroke-linejoin:round;stroke-miterlimit:1.5;"><path d="M297.763,204.631c0,-23.467 -19.052,-42.52 -42.52,-42.52l-85.039,0c-23.467,0 -42.52,19.053 -42.52,42.52l0,85.039c0,23.468 19.053,42.52 42.52,42.52l85.039,0c23.468,0 42.52,-19.052 42.52,-42.52l0,-85.039Z" style="fill:#6b708f;stroke:#fffdfd;stroke-width:5.5px;"/><path d="M4.25,4.462c138.167,-4.073 207.827,50.538 205.966,154.661" style="fill:none;stroke:#fffdfd;stroke-width:8.5px;"/><path d="M421.916,496.392c-138.166,4.073 -208.618,-50.538 -206.758,-154.661" style="fill:none;stroke:#fffdfd;stroke-width:8.5px;"/><ellipse cx="211.791" cy="161.12" rx="20.831" ry="21.104" style="fill:#b6b6b6;stroke:#fffdfd;stroke-width:5.5px;"/><ellipse cx="213.584" cy="339.734" rx="20.831" ry="21.104" style="fill:#b6b6b6;stroke:#fffdfd;stroke-width:5.5px;"/></svg>