<?xml version="1.0" encoding="UTF-8" standalone="no"?><!DOCTYPE svg PUBLIC "-//W3C//DTD SVG 1.1//EN" "http://www.w3.org/Graphics/SVG/1.1/DTD/svg11.dtd"><svg width="100%" height="100%" viewBox="0 0 422 596" version="1.1" xmlns="http://www.w3.org/2000/svg" xmlns:xlink="http://www.w3.org/1999/xlink" xml:space="preserve" style="fill-rule:evenodd;clip-rule:evenodd;stroke-linecap:round;stroke-linejoin:round;stroke-miterlimit:1.5;"><rect x="0" y="0" width="421.346" height="595.406" style="fill:#74d2aa;"/><circle cx="210.357" cy="288.252" r="85.039" style="fill:#42b383;stroke:#fffdfd;stroke-width:5.5px;"/><g transform="matrix(0.24,0,0,0.24,1.33671,109.816)"><text x="388.908px" y="1922.13px" style="font-family:'Futura-Medium', 'Futura', sans-serif;font-weight:500;font-size:100px;fill:none;">cr<tspan x="473.283px 528.605px 588.566px 616.789px 672.111px " y="1922.13px 1922.13px 1922.13px 1922.13px 1922.13px ">eate </tspan>a dat<tspan x="941.936px 1001.9px 1061.86px 1119.57px 1175.38px " y="1922.13px 1922.13px 1922.13px 1922.13px 1922.13px ">abox </tspan>dr<tspan x="1305.12px 1330.02px 1378.56px 1433.88px " y="1922.13px 1922.13px 1922.13px 1922.13px ">iver</tspan></text><text x="388.908px" y="1922.13px" style="font-family:'Futura-Medium', 'Futura', sans-serif;font-weight:500;font-size:100px;fill:#fff;">cr<tspan x="473.283px 528.605px 588.566px 616.789px 672.111px " y="1922.13px 1922.13px 1922.13px 1922.13px 1922.13px ">eate </tspan>a dat<tspan x="941.936px 1001.9px 1061.86px 1119.57px 1175.38px " y="1922.13px 1922.13px 1922.13px 1922.13px 1922.13px ">abox </tspan>dr<tspan x="1305.12px 1330.02px 1378.56px 1433.88px " y="1922.13px 1922.13px 1922.13px 1922.13px ">iver</tspan></text></g><g><path d="M138.327,271.463c36.101,-38.854 96.78,-43.261 138.189,-9.048c2.532,2.093 4.937,4.283 7.211,6.561l-72.441,75.114l-72.959,-72.627Z" style="fill:#409d75;stroke:#42b383;stroke-width:8px;"/><path d="M162.365,295.391c24.096,-25.661 64.369,-28.502 91.882,-5.77c1.791,1.48 3.486,3.033 5.084,4.652l-48.045,49.817l-48.921,-48.699Z" style="fill:#409d75;stroke:#42b383;stroke-width:8px;"/><path d="M186.024,318.943c11.896,-13.92 32.835,-15.779 47.004,-4.072c1.209,0.999 2.33,2.065 3.363,3.188l-25.105,26.031l-25.262,-25.147Z" style="fill:#409d75;stroke:#42b383;stroke-width:8px;"/></g></svg>