<?xml version="1.0" encoding="UTF-8" standalone="no"?><!DOCTYPE svg PUBLIC "-//W3C//DTD SVG 1.1//EN" "http://www.w3.org/Graphics/SVG/1.1/DTD/svg11.dtd"><svg width="100%" height="100%" viewBox="0 0 418 493" version="1.1" xmlns="http://www.w3.org/2000/svg" xmlns:xlink="http://www.w3.org/1999/xlink" xml:space="preserve" style="fill-rule:evenodd;clip-rule:evenodd;stroke-linecap:round;stroke-linejoin:round;stroke-miterlimit:1.5;"><g><circle cx="213.549" cy="244.555" r="85.039" style="fill:#42b383;stroke:#fffdfd;stroke-width:5.5px;"/><g><path d="M141.52,227.765c36.1,-38.853 96.779,-43.26 138.188,-9.047c2.533,2.092 4.937,4.282 7.212,6.561l-72.442,75.113l-72.958,-72.627Z" style="fill:#409d75;stroke:#42b383;stroke-width:8px;"/><path d="M165.557,251.694c24.096,-25.661 64.369,-28.502 91.882,-5.771c1.791,1.48 3.486,3.034 5.084,4.653l-48.045,49.816l-48.921,-48.698Z" style="fill:#409d75;stroke:#42b383;stroke-width:8px;"/><path d="M189.217,275.246c11.895,-13.921 32.834,-15.779 47.003,-4.072c1.209,0.999 2.33,2.064 3.363,3.188l-25.105,26.03l-25.261,-25.146Z" style="fill:#409d75;stroke:#42b383;stroke-width:8px;"/></g><rect x="0" y="0" width="417.543" height="492.378" style="fill:none;"/></g></svg>